STARTFONT 2.1
COMMENT
COMMENT Converted from OpenType font "awesome-2.0.otf" by "otf2bdf 3.0".
COMMENT
FONT -FreeType-Source Sans Pro SemiBold-Medium-R-Normal--22-160-100-100-P-108-ISO10646-1
SIZE 16 100 100
FONTBOUNDINGBOX 57 28 -10 -6
STARTPROPERTIES 19
FOUNDRY "FreeType"
FAMILY_NAME "Source Sans Pro SemiBold"
WEIGHT_NAME "Medium"
SLANT "R"
SETWIDTH_NAME "Normal"
ADD_STYLE_NAME ""
PIXEL_SIZE 22
POINT_SIZE 160
RESOLUTION_X 100
RESOLUTION_Y 100
SPACING "P"
AVERAGE_WIDTH 108
CHARSET_REGISTRY "ISO10646"
CHARSET_ENCODING "1"
FONT_ASCENT 21
FONT_DESCENT 6
COPYRIGHT "Copyright 2010, 2012, 2014 Adobe Systems Incorporated (http://www.adobe.com/), with Reserved Font Name Source."
_OTF_FONTFILE "awesome-2.0.otf"
_OTF_PSNAME "SourceSansPro-SemiBold"
ENDPROPERTIES
CHARS 1296
STARTCHAR 0020
ENCODING 32
SWIDTH 180 0
DWIDTH 4 0
BBX 0 0 0 0
BITMAP
ENDCHAR
STARTCHAR 0021
ENCODING 33
SWIDTH 315 0
DWIDTH 7 0
BBX 3 15 2 0
BITMAP
E0
E0
E0
E0
E0
E0
C0
40
40
40
00
00
E0
E0
E0
ENDCHAR
STARTCHAR 0022
ENCODING 34
SWIDTH 495 0
DWIDTH 11 0
BBX 7 7 2 8
BITMAP
CE
CE
CE
CE
C6
C4
C4
ENDCHAR
STARTCHAR 0023
ENCODING 35
SWIDTH 495 0
DWIDTH 11 0
BBX 10 15 1 0
BITMAP
1100
1100
3100
3300
FFC0
FFC0
2300
2200
2200
FF80
FF80
6200
6600
6600
6600
ENDCHAR
STARTCHAR 0024
ENCODING 36
SWIDTH 495 0
DWIDTH 11 0
BBX 9 18 1 -2
BITMAP
0C00
0C00
3E00
7F80
6100
6000
6000
7800
3E00
0F00
0780
0380
0180
4380
FF00
3E00
0C00
0C00
ENDCHAR
STARTCHAR 0025
ENCODING 37
SWIDTH 855 0
DWIDTH 19 0
BBX 17 15 1 0
BITMAP
781800
CC1000
C43000
C42000
866000
C44000
CCCE00
CD9300
793180
033180
023180
063180
043180
0C1300
080E00
ENDCHAR
STARTCHAR 0026
ENCODING 38
SWIDTH 630 0
DWIDTH 14 0
BBX 13 14 1 0
BITMAP
1E00
3F00
3300
7300
3700
3E00
3838
7C30
EE70
C760
C3E0
E1E0
FFF8
3E30
ENDCHAR
STARTCHAR 0027
ENCODING 39
SWIDTH 270 0
DWIDTH 6 0
BBX 2 7 2 8
BITMAP
C0
C0
C0
C0
C0
C0
C0
ENDCHAR
STARTCHAR 0028
ENCODING 40
SWIDTH 315 0
DWIDTH 7 0
BBX 4 20 2 -4
BITMAP
30
30
60
60
60
C0
C0
C0
C0
C0
C0
C0
C0
C0
C0
60
60
60
30
30
ENDCHAR
STARTCHAR 0029
ENCODING 41
SWIDTH 315 0
DWIDTH 7 0
BBX 4 20 1 -4
BITMAP
C0
C0
60
60
30
30
30
30
30
30
30
30
30
30
30
30
60
60
C0
C0
ENDCHAR
STARTCHAR 002A
ENCODING 42
SWIDTH 450 0
DWIDTH 10 0
BBX 8 7 1 9
BITMAP
18
18
FE
7F
38
3C
66
ENDCHAR
STARTCHAR 002B
ENCODING 43
SWIDTH 495 0
DWIDTH 11 0
BBX 10 10 1 2
BITMAP
0C00
0C00
0C00
0C00
FFC0
FFC0
0C00
0C00
0C00
0C00
ENDCHAR
STARTCHAR 002C
ENCODING 44
SWIDTH 270 0
DWIDTH 6 0
BBX 4 7 1 -4
BITMAP
60
F0
70
30
30
E0
C0
ENDCHAR
STARTCHAR 002D
ENCODING 45
SWIDTH 315 0
DWIDTH 7 0
BBX 5 2 1 5
BITMAP
F8
F8
ENDCHAR
STARTCHAR 002E
ENCODING 46
SWIDTH 270 0
DWIDTH 6 0
BBX 4 3 1 0
BITMAP
60
F0
60
ENDCHAR
STARTCHAR 002F
ENCODING 47
SWIDTH 360 0
DWIDTH 8 0
BBX 7 19 0 -3
BITMAP
06
06
04
0C
0C
0C
08
18
18
18
10
30
30
20
60
60
60
40
C0
ENDCHAR
STARTCHAR 0030
ENCODING 48
SWIDTH 495 0
DWIDTH 11 0
BBX 9 14 1 0
BITMAP
1E00
7F00
6380
E380
C180
C180
C180
C180
C180
E180
E380
6380
7F00
1E00
ENDCHAR
STARTCHAR 0031
ENCODING 49
SWIDTH 495 0
DWIDTH 11 0
BBX 8 14 2 0
BITMAP
18
78
F8
F8
18
18
18
18
18
18
18
18
FF
FF
ENDCHAR
STARTCHAR 0032
ENCODING 50
SWIDTH 495 0
DWIDTH 11 0
BBX 9 14 1 0
BITMAP
3C00
FF00
C700
8380
0380
0300
0300
0600
0E00
1C00
3800
7000
FF80
FF80
ENDCHAR
STARTCHAR 0033
ENCODING 51
SWIDTH 495 0
DWIDTH 11 0
BBX 9 14 1 0
BITMAP
3E00
FF00
4380
0380
0380
0700
1E00
1F00
0380
0180
8180
C380
FF00
3E00
ENDCHAR
STARTCHAR 0034
ENCODING 52
SWIDTH 495 0
DWIDTH 11 0
BBX 11 14 0 0
BITMAP
0380
0780
0F80
0D80
1980
3980
7180
6180
FFE0
FFE0
0180
0180
0180
0180
ENDCHAR
STARTCHAR 0035
ENCODING 53
SWIDTH 495 0
DWIDTH 11 0
BBX 9 14 1 0
BITMAP
7F80
7F80
6000
6000
6000
7E00
7F00
4380
0180
0180
8380
C380
FF00
3E00
ENDCHAR
STARTCHAR 0036
ENCODING 54
SWIDTH 495 0
DWIDTH 11 0
BBX 9 14 1 0
BITMAP
1F00
3F80
7100
6000
E000
CF00
FF80
E380
C180
E180
E180
7380
3F00
1E00
ENDCHAR
STARTCHAR 0037
ENCODING 55
SWIDTH 495 0
DWIDTH 11 0
BBX 9 14 1 0
BITMAP
FF80
FF80
0300
0300
0600
0600
0C00
0C00
1C00
1C00
1C00
1800
1800
1800
ENDCHAR
STARTCHAR 0038
ENCODING 56
SWIDTH 495 0
DWIDTH 11 0
BBX 9 14 1 0
BITMAP
3E00
7F00
6380
E180
6180
7F00
3E00
7F00
E380
C180
C180
E380
7F80
3E00
ENDCHAR
STARTCHAR 0039
ENCODING 57
SWIDTH 495 0
DWIDTH 11 0
BBX 9 14 1 0
BITMAP
3C00
7F00
E300
C380
C180
C180
E380
7F80
3D80
0180
0380
4700
FE00
7C00
ENDCHAR
STARTCHAR 003A
ENCODING 58
SWIDTH 270 0
DWIDTH 6 0
BBX 4 11 1 0
BITMAP
60
F0
60
00
00
00
00
00
60
F0
60
ENDCHAR
STARTCHAR 003B
ENCODING 59
SWIDTH 270 0
DWIDTH 6 0
BBX 4 15 1 -4
BITMAP
60
F0
60
00
00
00
00
00
60
F0
70
30
30
E0
C0
ENDCHAR
STARTCHAR 003C
ENCODING 60
SWIDTH 495 0
DWIDTH 11 0
BBX 10 9 1 3
BITMAP
00C0
07C0
1F00
F800
C000
F800
1F00
07C0
00C0
ENDCHAR
STARTCHAR 003D
ENCODING 61
SWIDTH 495 0
DWIDTH 11 0
BBX 10 6 1 4
BITMAP
FFC0
FFC0
0000
0000
FFC0
FFC0
ENDCHAR
STARTCHAR 003E
ENCODING 62
SWIDTH 495 0
DWIDTH 11 0
BBX 10 9 1 3
BITMAP
8000
F000
7C00
0F80
01C0
0F80
7C00
F000
8000
ENDCHAR
STARTCHAR 003F
ENCODING 63
SWIDTH 450 0
DWIDTH 10 0
BBX 8 15 1 0
BITMAP
3C
FE
47
07
07
0E
0C
18
18
38
00
00
38
38
38
ENDCHAR
STARTCHAR 0040
ENCODING 64
SWIDTH 855 0
DWIDTH 19 0
BBX 17 19 1 -4
BITMAP
01F800
07FC00
1E0E00
380300
300180
61D980
63F180
C73180
C63180
C63180
C63180
C67300
C7FF00
C39E00
600000
700000
3C1000
1FF000
07E000
ENDCHAR
STARTCHAR 0041
ENCODING 65
SWIDTH 540 0
DWIDTH 12 0
BBX 12 14 0 0
BITMAP
0F00
0F00
0F00
1D80
1980
1980
39C0
30C0
3FC0
7FE0
7060
6060
E070
E070
ENDCHAR
STARTCHAR 0042
ENCODING 66
SWIDTH 585 0
DWIDTH 13 0
BBX 10 14 2 0
BITMAP
FF00
FF80
C380
C1C0
C180
C380
FF00
FF80
C1C0
C0C0
C0C0
C1C0
FF80
FF00
ENDCHAR
STARTCHAR 0043
ENCODING 67
SWIDTH 585 0
DWIDTH 13 0
BBX 11 14 1 0
BITMAP
0F80
3FE0
78C0
7000
E000
E000
E000
E000
E000
E000
7000
7860
3FE0
0F80
ENDCHAR
STARTCHAR 0044
ENCODING 68
SWIDTH 630 0
DWIDTH 14 0
BBX 11 14 2 0
BITMAP
FE00
FF80
C380
C1C0
C0C0
C0E0
C0E0
C0E0
C0E0
C0C0
C1C0
C380
FF80
FE00
ENDCHAR
STARTCHAR 0045
ENCODING 69
SWIDTH 540 0
DWIDTH 12 0
BBX 9 14 2 0
BITMAP
FF80
FF80
C000
C000
C000
C000
FF00
FF00
C000
C000
C000
C000
FF80
FF80
ENDCHAR
STARTCHAR 0046
ENCODING 70
SWIDTH 495 0
DWIDTH 11 0
BBX 9 14 2 0
BITMAP
FF80
FF80
C000
C000
C000
C000
FF00
FF00
C000
C000
C000
C000
C000
C000
ENDCHAR
STARTCHAR 0047
ENCODING 71
SWIDTH 630 0
DWIDTH 14 0
BBX 11 14 1 0
BITMAP
0F80
3FE0
7860
7000
E000
E000
E3E0
E3E0
E060
E060
7060
7860
3FE0
0FC0
ENDCHAR
STARTCHAR 0048
ENCODING 72
SWIDTH 675 0
DWIDTH 15 0
BBX 11 14 2 0
BITMAP
C0E0
C0E0
C0E0
C0E0
C0E0
C0E0
FFE0
FFE0
C0E0
C0E0
C0E0
C0E0
C0E0
C0E0
ENDCHAR
STARTCHAR 0049
ENCODING 73
SWIDTH 270 0
DWIDTH 6 0
BBX 2 14 2 0
BITMAP
C0
C0
C0
C0
C0
C0
C0
C0
C0
C0
C0
C0
C0
C0
ENDCHAR
STARTCHAR 004A
ENCODING 74
SWIDTH 495 0
DWIDTH 11 0
BBX 8 14 1 0
BITMAP
03
03
03
03
03
03
03
03
03
03
87
C7
FE
7C
ENDCHAR
STARTCHAR 004B
ENCODING 75
SWIDTH 585 0
DWIDTH 13 0
BBX 11 14 2 0
BITMAP
C1C0
C380
C300
C700
CE00
DC00
FE00
F600
F700
E300
C380
C1C0
C1C0
C0E0
ENDCHAR
STARTCHAR 004C
ENCODING 76
SWIDTH 495 0
DWIDTH 11 0
BBX 8 14 2 0
BITMAP
C0
C0
C0
C0
C0
C0
C0
C0
C0
C0
C0
C0
FF
FF
ENDCHAR
STARTCHAR 004D
ENCODING 77
SWIDTH 720 0
DWIDTH 16 0
BBX 13 14 2 0
BITMAP
E078
E078
F078
F0F8
F0F8
D8F8
D9B8
DDB8
CD38
CF38
C738
C638
C638
C038
ENDCHAR
STARTCHAR 004E
ENCODING 78
SWIDTH 630 0
DWIDTH 14 0
BBX 11 14 2 0
BITMAP
E0E0
E0E0
F0E0
F0E0
D8E0
DCE0
CCE0
CEE0
C6E0
C7E0
C3E0
C1E0
C1E0
C0E0
ENDCHAR
STARTCHAR 004F
ENCODING 79
SWIDTH 675 0
DWIDTH 15 0
BBX 13 14 1 0
BITMAP
0F80
3FE0
78F0
7070
E030
E038
E038
E038
E038
E030
7070
78E0
3FE0
0F80
ENDCHAR
STARTCHAR 0050
ENCODING 80
SWIDTH 585 0
DWIDTH 13 0
BBX 10 14 2 0
BITMAP
FE00
FF80
C1C0
C1C0
C1C0
C1C0
C380
FF80
FE00
C000
C000
C000
C000
C000
ENDCHAR
STARTCHAR 0051
ENCODING 81
SWIDTH 675 0
DWIDTH 15 0
BBX 13 18 1 -4
BITMAP
0F80
3FE0
78F0
7070
E030
E038
E038
E038
E038
E030
7070
78F0
3FE0
0F80
0700
0380
01F8
00F8
ENDCHAR
STARTCHAR 0052
ENCODING 82
SWIDTH 585 0
DWIDTH 13 0
BBX 11 14 2 0
BITMAP
FF00
FF80
C1C0
C1C0
C1C0
C1C0
C380
FF00
FE00
C700
C300
C380
C1C0
C1E0
ENDCHAR
STARTCHAR 0053
ENCODING 83
SWIDTH 540 0
DWIDTH 12 0
BBX 10 14 1 0
BITMAP
1F00
7FC0
7180
E000
6000
7800
3F00
0F80
03C0
01C0
80C0
E1C0
FF80
3F00
ENDCHAR
STARTCHAR 0054
ENCODING 84
SWIDTH 540 0
DWIDTH 12 0
BBX 10 14 1 0
BITMAP
FFC0
FFC0
0C00
0C00
0C00
0C00
0C00
0C00
0C00
0C00
0C00
0C00
0C00
0C00
ENDCHAR
STARTCHAR 0055
ENCODING 85
SWIDTH 630 0
DWIDTH 14 0
BBX 11 14 2 0
BITMAP
C0E0
C0E0
C0E0
C0E0
C0E0
C0E0
C0E0
C0E0
C0E0
C0E0
E0C0
71C0
7F80
1F00
ENDCHAR
STARTCHAR 0056
ENCODING 86
SWIDTH 540 0
DWIDTH 12 0
BBX 12 14 0 0
BITMAP
E070
E060
6060
70E0
70C0
30C0
31C0
3980
1980
1980
1F80
0F00
0F00
0F00
ENDCHAR
STARTCHAR 0057
ENCODING 87
SWIDTH 810 0
DWIDTH 18 0
BBX 17 14 0 0
BITMAP
E0C180
61C380
61E380
71E380
71E300
336300
337300
333700
333700
3E3600
1E3600
1E1E00
1E1E00
1C1E00
ENDCHAR
STARTCHAR 0058
ENCODING 88
SWIDTH 540 0
DWIDTH 12 0
BBX 12 14 0 0
BITMAP
70E0
70E0
39C0
1980
1F80
0F00
0F00
0F00
1F00
1B80
39C0
31C0
70E0
E070
ENDCHAR
STARTCHAR 0059
ENCODING 89
SWIDTH 495 0
DWIDTH 11 0
BBX 11 14 0 0
BITMAP
E0E0
60C0
71C0
3180
3980
1B00
1B00
0E00
0E00
0E00
0E00
0E00
0E00
0E00
ENDCHAR
STARTCHAR 005A
ENCODING 90
SWIDTH 540 0
DWIDTH 12 0
BBX 10 14 1 0
BITMAP
7FC0
7FC0
0180
0300
0700
0600
0E00
1C00
1800
3800
7000
6000
FFC0
FFC0
ENDCHAR
STARTCHAR 005B
ENCODING 91
SWIDTH 315 0
DWIDTH 7 0
BBX 4 20 2 -4
BITMAP
F0
F0
C0
C0
C0
C0
C0
C0
C0
C0
C0
C0
C0
C0
C0
C0
C0
C0
F0
F0
ENDCHAR
STARTCHAR 005C
ENCODING 92
SWIDTH 360 0
DWIDTH 8 0
BBX 7 19 0 -3
BITMAP
C0
60
60
60
20
30
30
30
10
18
18
08
0C
0C
0C
04
06
06
06
ENDCHAR
STARTCHAR 005D
ENCODING 93
SWIDTH 315 0
DWIDTH 7 0
BBX 4 20 1 -4
BITMAP
F0
F0
30
30
30
30
30
30
30
30
30
30
30
30
30
30
30
30
F0
F0
ENDCHAR
STARTCHAR 005E
ENCODING 94
SWIDTH 495 0
DWIDTH 11 0
BBX 9 8 1 6
BITMAP
1C00
1C00
1600
3600
3300
6300
6300
E180
ENDCHAR
STARTCHAR 005F
ENCODING 95
SWIDTH 495 0
DWIDTH 11 0
BBX 11 2 0 -3
BITMAP
FFE0
FFE0
ENDCHAR
STARTCHAR 0060
ENCODING 96
SWIDTH 540 0
DWIDTH 12 0
BBX 5 5 2 13
BITMAP
20
E0
70
38
08
ENDCHAR
STARTCHAR 0061
ENCODING 97
SWIDTH 495 0
DWIDTH 11 0
BBX 9 11 1 0
BITMAP
3E00
FF00
4380
0380
1F80
7F80
F380
E380
E780
FF80
7980
ENDCHAR
STARTCHAR 0062
ENCODING 98
SWIDTH 540 0
DWIDTH 12 0
BBX 9 16 2 0
BITMAP
C000
C000
C000
C000
C000
DE00
FF00
E380
C180
C180
C180
C180
C380
E380
FF00
DE00
ENDCHAR
STARTCHAR 0063
ENCODING 99
SWIDTH 450 0
DWIDTH 10 0
BBX 9 11 1 0
BITMAP
1E00
7F00
7200
E000
E000
E000
E000
E000
7100
7F80
1E00
ENDCHAR
STARTCHAR 0064
ENCODING 100
SWIDTH 540 0
DWIDTH 12 0
BBX 10 16 1 0
BITMAP
01C0
01C0
01C0
01C0
01C0
1DC0
7FC0
71C0
E1C0
E1C0
E1C0
E1C0
E1C0
73C0
7FC0
3CC0
ENDCHAR
STARTCHAR 0065
ENCODING 101
SWIDTH 495 0
DWIDTH 11 0
BBX 9 11 1 0
BITMAP
1E00
7F00
6180
C180
FF80
FF80
C000
E000
7100
7F80
1F00
ENDCHAR
STARTCHAR 0066
ENCODING 102
SWIDTH 315 0
DWIDTH 7 0
BBX 7 16 1 0
BITMAP
1E
3C
70
70
70
FC
FC
70
70
70
70
70
70
70
70
70
ENDCHAR
STARTCHAR 0067
ENCODING 103
SWIDTH 495 0
DWIDTH 11 0
BBX 10 16 1 -5
BITMAP
3FC0
7FC0
E300
E380
E380
6300
7F00
7E00
6000
E000
7F80
7FC0
C0C0
C1C0
FF80
7E00
ENDCHAR
STARTCHAR 0068
ENCODING 104
SWIDTH 540 0
DWIDTH 12 0
BBX 9 16 2 0
BITMAP
C000
C000
C000
C000
C000
CE00
FF00
E380
C380
C380
C380
C380
C380
C380
C380
C380
ENDCHAR
STARTCHAR 0069
ENCODING 105
SWIDTH 270 0
DWIDTH 6 0
BBX 3 16 1 0
BITMAP
60
E0
60
00
00
60
60
60
60
60
60
60
60
60
60
60
ENDCHAR
STARTCHAR 006A
ENCODING 106
SWIDTH 270 0
DWIDTH 6 0
BBX 5 21 -1 -5
BITMAP
18
38
18
00
00
18
18
18
18
18
18
18
18
18
18
18
18
18
38
F8
F0
ENDCHAR
STARTCHAR 006B
ENCODING 107
SWIDTH 495 0
DWIDTH 11 0
BBX 9 16 2 0
BITMAP
C000
C000
C000
C000
C000
C380
C700
CE00
DC00
D800
FC00
FC00
E600
C700
C300
C380
ENDCHAR
STARTCHAR 006C
ENCODING 108
SWIDTH 270 0
DWIDTH 6 0
BBX 3 16 2 0
BITMAP
C0
C0
C0
C0
C0
C0
C0
C0
C0
C0
C0
C0
C0
C0
E0
E0
ENDCHAR
STARTCHAR 006D
ENCODING 109
SWIDTH 855 0
DWIDTH 19 0
BBX 15 11 2 0
BITMAP
DE3C
FFFE
E3CE
C38E
C386
C386
C386
C386
C386
C386
C386
ENDCHAR
STARTCHAR 006E
ENCODING 110
SWIDTH 540 0
DWIDTH 12 0
BBX 9 11 2 0
BITMAP
DE00
FF00
E380
C380
C380
C380
C380
C380
C380
C380
C380
ENDCHAR
STARTCHAR 006F
ENCODING 111
SWIDTH 540 0
DWIDTH 12 0
BBX 10 11 1 0
BITMAP
1E00
7F80
7380
E1C0
E1C0
E0C0
E0C0
E1C0
7380
7F80
1E00
ENDCHAR
STARTCHAR 0070
ENCODING 112
SWIDTH 540 0
DWIDTH 12 0
BBX 9 16 2 -5
BITMAP
DE00
FF00
E380
C180
C180
C180
C180
C380
E380
FF00
DE00
C000
C000
C000
C000
C000
ENDCHAR
STARTCHAR 0071
ENCODING 113
SWIDTH 540 0
DWIDTH 12 0
BBX 10 15 1 -4
BITMAP
1EC0
7FC0
71C0
E1C0
E1C0
E1C0
E1C0
E1C0
73C0
7FC0
3DC0
01C0
01C0
01C0
01C0
ENDCHAR
STARTCHAR 0072
ENCODING 114
SWIDTH 360 0
DWIDTH 8 0
BBX 6 11 2 0
BITMAP
DC
FC
E0
C0
C0
C0
C0
C0
C0
C0
C0
ENDCHAR
STARTCHAR 0073
ENCODING 115
SWIDTH 405 0
DWIDTH 9 0
BBX 8 11 1 0
BITMAP
3C
7F
E2
E0
F0
3E
0F
07
C7
FE
7C
ENDCHAR
STARTCHAR 0074
ENCODING 116
SWIDTH 360 0
DWIDTH 8 0
BBX 8 14 0 0
BITMAP
38
38
38
FE
FE
38
38
38
38
38
38
38
3E
1F
ENDCHAR
STARTCHAR 0075
ENCODING 117
SWIDTH 540 0
DWIDTH 12 0
BBX 10 11 1 0
BITMAP
E1C0
E1C0
E1C0
E1C0
E1C0
E1C0
E1C0
61C0
63C0
7FC0
3CC0
ENDCHAR
STARTCHAR 0076
ENCODING 118
SWIDTH 495 0
DWIDTH 11 0
BBX 11 11 0 0
BITMAP
E0E0
60C0
71C0
7180
3180
3180
3B00
1B00
1B00
0E00
0E00
ENDCHAR
STARTCHAR 0077
ENCODING 119
SWIDTH 720 0
DWIDTH 16 0
BBX 15 11 1 0
BITMAP
C38E
C38E
E38C
E78C
66CC
66DC
74D8
7CD8
3C78
3C78
3870
ENDCHAR
STARTCHAR 0078
ENCODING 120
SWIDTH 495 0
DWIDTH 11 0
BBX 10 11 0 0
BITMAP
71C0
7180
3B80
1B00
1E00
0E00
1E00
3F00
3380
7180
E1C0
ENDCHAR
STARTCHAR 0079
ENCODING 121
SWIDTH 495 0
DWIDTH 11 0
BBX 11 16 0 -5
BITMAP
E0E0
60C0
71C0
3180
3180
3980
1B00
1B00
1F00
0E00
0E00
0E00
0C00
1C00
7800
7000
ENDCHAR
STARTCHAR 007A
ENCODING 122
SWIDTH 450 0
DWIDTH 10 0
BBX 8 11 1 0
BITMAP
FF
FF
06
0C
1C
18
38
70
60
FF
FF
ENDCHAR
STARTCHAR 007B
ENCODING 123
SWIDTH 315 0
DWIDTH 7 0
BBX 5 20 1 -4
BITMAP
38
38
70
60
60
20
30
30
60
E0
E0
60
30
30
20
60
60
70
38
38
ENDCHAR
STARTCHAR 007C
ENCODING 124
SWIDTH 270 0
DWIDTH 6 0
BBX 2 22 2 -6
BITMAP
C0
C0
C0
C0
C0
C0
C0
C0
C0
C0
C0
C0
C0
C0
C0
C0
C0
C0
C0
C0
C0
C0
ENDCHAR
STARTCHAR 007D
ENCODING 125
SWIDTH 315 0
DWIDTH 7 0
BBX 5 20 1 -4
BITMAP
E0
F0
70
30
30
30
30
30
30
38
38
30
30
30
30
30
30
70
F0
E0
ENDCHAR
STARTCHAR 007E
ENCODING 126
SWIDTH 495 0
DWIDTH 11 0
BBX 10 4 1 5
BITMAP
7000
F880
8FC0
0700
ENDCHAR
STARTCHAR 00A0
ENCODING 160
SWIDTH 225 0
DWIDTH 5 0
BBX 0 0 0 0
BITMAP
ENDCHAR
STARTCHAR 00A1
ENCODING 161
SWIDTH 315 0
DWIDTH 7 0
BBX 3 15 2 -4
BITMAP
E0
E0
E0
00
00
40
40
40
C0
E0
E0
E0
E0
E0
E0
ENDCHAR
STARTCHAR 00A2
ENCODING 162
SWIDTH 495 0
DWIDTH 11 0
BBX 9 15 1 -1
BITMAP
0400
0400
1F00
3F80
7500
6400
E400
E400
E400
6400
7500
3F80
1F00
0400
0400
ENDCHAR
STARTCHAR 00A3
ENCODING 163
SWIDTH 495 0
DWIDTH 11 0
BBX 9 14 1 0
BITMAP
0F00
3F80
3980
7000
7000
3000
FF00
FF00
3800
3800
3000
3000
7F80
FF80
ENDCHAR
STARTCHAR 00A4
ENCODING 164
SWIDTH 495 0
DWIDTH 11 0
BBX 11 10 0 2
BITMAP
4040
EFE0
3FC0
71C0
60C0
60C0
71C0
3FC0
6FE0
C040
ENDCHAR
STARTCHAR 00A5
ENCODING 165
SWIDTH 495 0
DWIDTH 11 0
BBX 11 14 0 0
BITMAP
E0E0
70C0
31C0
3180
1B80
1B00
0F00
7FC0
0E00
7FC0
7FC0
0E00
0E00
0E00
ENDCHAR
STARTCHAR 00A6
ENCODING 166
SWIDTH 270 0
DWIDTH 6 0
BBX 2 22 2 -6
BITMAP
C0
C0
C0
C0
C0
C0
C0
C0
C0
C0
00
00
C0
C0
C0
C0
C0
C0
C0
C0
C0
C0
ENDCHAR
STARTCHAR 00A7
ENCODING 167
SWIDTH 495 0
DWIDTH 11 0
BBX 9 17 1 -2
BITMAP
1E00
3F00
7300
6000
7800
7E00
CF00
C380
C180
F180
7F80
1F00
0700
0300
4300
FF00
3C00
ENDCHAR
STARTCHAR 00A8
ENCODING 168
SWIDTH 540 0
DWIDTH 12 0
BBX 8 3 2 13
BITMAP
66
E7
66
ENDCHAR
STARTCHAR 00A9
ENCODING 169
SWIDTH 720 0
DWIDTH 16 0
BBX 14 15 1 0
BITMAP
0FC0
1FF0
3838
6018
478C
CFC4
9C44
9804
9C44
CFC4
478C
6018
3838
1FF0
07C0
ENDCHAR
STARTCHAR 00AA
ENCODING 170
SWIDTH 360 0
DWIDTH 8 0
BBX 6 8 1 8
BITMAP
F8
8C
0C
3C
CC
CC
CC
FC
ENDCHAR
STARTCHAR 00AB
ENCODING 171
SWIDTH 450 0
DWIDTH 10 0
BBX 8 8 1 2
BITMAP
12
27
6C
CC
CC
6C
26
13
ENDCHAR
STARTCHAR 00AC
ENCODING 172
SWIDTH 495 0
DWIDTH 11 0
BBX 10 6 1 2
BITMAP
FFC0
FFC0
00C0
00C0
00C0
00C0
ENDCHAR
STARTCHAR 00AD
ENCODING 173
SWIDTH 315 0
DWIDTH 7 0
BBX 5 2 1 5
BITMAP
F8
F8
ENDCHAR
STARTCHAR 00AE
ENCODING 174
SWIDTH 450 0
DWIDTH 10 0
BBX 8 10 1 6
BITMAP
3C
42
B9
A5
B9
A9
A5
C3
7E
3C
ENDCHAR
STARTCHAR 00AF
ENCODING 175
SWIDTH 540 0
DWIDTH 12 0
BBX 6 2 3 13
BITMAP
FC
FC
ENDCHAR
STARTCHAR 00B0
ENCODING 176
SWIDTH 360 0
DWIDTH 8 0
BBX 6 6 1 9
BITMAP
78
F8
8C
8C
F8
78
ENDCHAR
STARTCHAR 00B1
ENCODING 177
SWIDTH 495 0
DWIDTH 11 0
BBX 10 12 1 0
BITMAP
0C00
0C00
0C00
0C00
FFC0
FFC0
0C00
0C00
0C00
0000
FFC0
FFC0
ENDCHAR
STARTCHAR 00B2
ENCODING 178
SWIDTH 360 0
DWIDTH 8 0
BBX 6 9 1 8
BITMAP
78
FC
8C
0C
08
18
30
7C
FC
ENDCHAR
STARTCHAR 00B3
ENCODING 179
SWIDTH 360 0
DWIDTH 8 0
BBX 6 9 1 8
BITMAP
78
CC
0C
0C
38
3C
0C
8C
78
ENDCHAR
STARTCHAR 00B4
ENCODING 180
SWIDTH 540 0
DWIDTH 12 0
BBX 5 5 5 13
BITMAP
10
38
70
E0
C0
ENDCHAR
STARTCHAR 00B5
ENCODING 181
SWIDTH 585 0
DWIDTH 13 0
BBX 10 14 2 -3
BITMAP
C380
C380
C380
C380
C380
C380
C380
C380
E780
FFC0
F9C0
C000
C000
C000
ENDCHAR
STARTCHAR 00B6
ENCODING 182
SWIDTH 585 0
DWIDTH 13 0
BBX 10 16 1 -2
BITMAP
3CC0
7CC0
FCC0
FCC0
FCC0
FCC0
FCC0
7CC0
7CC0
0CC0
00C0
00C0
00C0
00C0
00C0
00C0
ENDCHAR
STARTCHAR 00B7
ENCODING 183
SWIDTH 270 0
DWIDTH 6 0
BBX 4 3 1 6
BITMAP
60
F0
60
ENDCHAR
STARTCHAR 00B8
ENCODING 184
SWIDTH 540 0
DWIDTH 12 0
BBX 4 5 4 -5
BITMAP
60
60
B0
30
E0
ENDCHAR
STARTCHAR 00B9
ENCODING 185
SWIDTH 360 0
DWIDTH 8 0
BBX 4 9 2 8
BITMAP
70
F0
30
30
30
30
30
30
30
ENDCHAR
STARTCHAR 00BA
ENCODING 186
SWIDTH 360 0
DWIDTH 8 0
BBX 7 8 1 8
BITMAP
78
CC
CC
84
86
CC
CC
78
ENDCHAR
STARTCHAR 00BB
ENCODING 187
SWIDTH 450 0
DWIDTH 10 0
BBX 8 8 1 2
BITMAP
48
E4
36
33
33
36
64
C8
ENDCHAR
STARTCHAR 00BC
ENCODING 188
SWIDTH 765 0
DWIDTH 17 0
BBX 16 15 1 0
BITMAP
3010
F030
3020
3060
3040
30C0
318E
318E
331E
0216
0636
0466
0C7F
0806
1806
ENDCHAR
STARTCHAR 00BD
ENCODING 189
SWIDTH 810 0
DWIDTH 18 0
BBX 16 15 1 0
BITMAP
3030
F020
3060
3040
30C0
3080
319E
313F
3323
0203
0602
0C06
080C
181F
103F
ENDCHAR
STARTCHAR 00BE
ENCODING 190
SWIDTH 810 0
DWIDTH 18 0
BBX 16 15 1 0
BITMAP
7818
CC10
0C30
0C20
3860
3C40
0CCE
8C8E
799E
0116
0336
0626
067F
0C06
0806
ENDCHAR
STARTCHAR 00BF
ENCODING 191
SWIDTH 450 0
DWIDTH 10 0
BBX 8 15 1 -4
BITMAP
18
1C
18
00
00
18
18
38
70
60
E0
C0
E2
7F
3C
ENDCHAR
STARTCHAR 00C0
ENCODING 192
SWIDTH 540 0
DWIDTH 12 0
BBX 12 20 0 0
BITMAP
0800
1C00
0E00
0300
0000
0000
0F00
0F00
0F00
1D80
1980
1980
39C0
30C0
3FC0
7FE0
7060
6060
E070
E070
ENDCHAR
STARTCHAR 00C1
ENCODING 193
SWIDTH 540 0
DWIDTH 12 0
BBX 12 20 0 0
BITMAP
0080
0380
0700
0600
0000
0000
0F00
0F00
0F00
1D80
1980
1980
39C0
30C0
3FC0
7FE0
7060
6060
E070
E070
ENDCHAR
STARTCHAR 00C2
ENCODING 194
SWIDTH 540 0
DWIDTH 12 0
BBX 12 19 0 0
BITMAP
0F00
1D80
10C0
0000
0000
0F00
0F00
0F00
1D80
1980
1980
39C0
30C0
3FC0
7FE0
7060
6060
E070
E070
ENDCHAR
STARTCHAR 00C3
ENCODING 195
SWIDTH 540 0
DWIDTH 12 0
BBX 12 20 0 0
BITMAP
0800
1EC0
37C0
3380
0000
0000
0F00
0F00
0F00
1D80
1980
1980
39C0
30C0
3FC0
7FE0
7060
6060
E070
E070
ENDCHAR
STARTCHAR 00C4
ENCODING 196
SWIDTH 540 0
DWIDTH 12 0
BBX 12 19 0 0
BITMAP
1980
39C0
1980
0000
0000
0F00
0F00
0F00
1D80
1980
1980
39C0
30C0
3FC0
7FE0
7060
6060
E070
E070
ENDCHAR
STARTCHAR 00C5
ENCODING 197
SWIDTH 540 0
DWIDTH 12 0
BBX 12 20 0 0
BITMAP
0700
0900
0900
0900
0700
0000
0F00
0F00
0F00
1D80
1980
1980
39C0
30C0
3FC0
7FE0
7060
6060
E070
E070
ENDCHAR
STARTCHAR 00C6
ENCODING 198
SWIDTH 810 0
DWIDTH 18 0
BBX 17 14 0 0
BITMAP
01FF80
03FF80
036000
076000
066000
0E6000
0C7F00
1C7F00
1FE000
3FE000
306000
706000
607F80
E07F80
ENDCHAR
STARTCHAR 00C7
ENCODING 199
SWIDTH 585 0
DWIDTH 13 0
BBX 11 19 1 -5
BITMAP
0F80
3FE0
78C0
7000
E000
E000
E000
E000
E000
E000
7000
7860
3FE0
0F80
0200
0700
0380
0300
0E00
ENDCHAR
STARTCHAR 00C8
ENCODING 200
SWIDTH 540 0
DWIDTH 12 0
BBX 9 20 2 0
BITMAP
2000
7000
3800
0C00
0000
0000
FF80
FF80
C000
C000
C000
C000
FF00
FF00
C000
C000
C000
C000
FF80
FF80
ENDCHAR
STARTCHAR 00C9
ENCODING 201
SWIDTH 540 0
DWIDTH 12 0
BBX 9 20 2 0
BITMAP
0200
0F00
1C00
0800
0000
0000
FF80
FF80
C000
C000
C000
C000
FF00
FF00
C000
C000
C000
C000
FF80
FF80
ENDCHAR
STARTCHAR 00CA
ENCODING 202
SWIDTH 540 0
DWIDTH 12 0
BBX 9 19 2 0
BITMAP
3C00
3600
6300
0000
0000
FF80
FF80
C000
C000
C000
C000
FF00
FF00
C000
C000
C000
C000
FF80
FF80
ENDCHAR
STARTCHAR 00CB
ENCODING 203
SWIDTH 540 0
DWIDTH 12 0
BBX 9 19 2 0
BITMAP
6300
6700
6300
0000
0000
FF80
FF80
C000
C000
C000
C000
FF00
FF00
C000
C000
C000
C000
FF80
FF80
ENDCHAR
STARTCHAR 00CC
ENCODING 204
SWIDTH 270 0
DWIDTH 6 0
BBX 5 20 0 0
BITMAP
40
E0
70
18
00
00
30
30
30
30
30
30
30
30
30
30
30
30
30
30
ENDCHAR
STARTCHAR 00CD
ENCODING 205
SWIDTH 270 0
DWIDTH 6 0
BBX 5 20 2 0
BITMAP
10
70
E8
C0
00
00
C0
C0
C0
C0
C0
C0
C0
C0
C0
C0
C0
C0
C0
C0
ENDCHAR
STARTCHAR 00CE
ENCODING 206
SWIDTH 270 0
DWIDTH 6 0
BBX 7 19 0 0
BITMAP
78
EC
86
00
00
30
30
30
30
30
30
30
30
30
30
30
30
30
30
ENDCHAR
STARTCHAR 00CF
ENCODING 207
SWIDTH 270 0
DWIDTH 6 0
BBX 8 19 -1 0
BITMAP
66
E7
66
00
00
18
18
18
18
18
18
18
18
18
18
18
18
18
18
ENDCHAR
STARTCHAR 00D0
ENCODING 208
SWIDTH 630 0
DWIDTH 14 0
BBX 12 14 1 0
BITMAP
7F00
7FC0
71E0
7070
7070
FE70
FE30
7030
7070
7070
7070
71E0
7FC0
7F00
ENDCHAR
STARTCHAR 00D1
ENCODING 209
SWIDTH 630 0
DWIDTH 14 0
BBX 11 20 2 0
BITMAP
1000
3D80
6F80
6700
0000
0000
E0E0
E0E0
F0E0
F0E0
D8E0
DCE0
CCE0
CEE0
C6E0
C7E0
C3E0
C1E0
C1E0
C0E0
ENDCHAR
STARTCHAR 00D2
ENCODING 210
SWIDTH 675 0
DWIDTH 15 0
BBX 13 20 1 0
BITMAP
0800
1C00
0E00
0300
0000
0000
0F80
3FE0
78F0
7070
E030
E038
E038
E038
E038
E030
7070
78E0
3FE0
0F80
ENDCHAR
STARTCHAR 00D3
ENCODING 211
SWIDTH 675 0
DWIDTH 15 0
BBX 13 20 1 0
BITMAP
0080
01C0
0700
0200
0000
0000
0F80
3FE0
78F0
7070
E030
E038
E038
E038
E038
E030
7070
78E0
3FE0
0F80
ENDCHAR
STARTCHAR 00D4
ENCODING 212
SWIDTH 675 0
DWIDTH 15 0
BBX 13 19 1 0
BITMAP
0700
0D80
18C0
0000
0000
0F80
3FE0
78F0
7070
E030
E038
E038
E038
E038
E030
7070
78E0
3FE0
0F80
ENDCHAR
STARTCHAR 00D5
ENCODING 213
SWIDTH 675 0
DWIDTH 15 0
BBX 13 20 1 0
BITMAP
0C00
1E60
37C0
3180
0000
0000
0F80
3FE0
78F0
7070
E030
E038
E038
E038
E038
E030
7070
78E0
3FE0
0F80
ENDCHAR
STARTCHAR 00D6
ENCODING 214
SWIDTH 675 0
DWIDTH 15 0
BBX 13 19 1 0
BITMAP
18C0
19C0
18C0
0000
0000
0F80
3FE0
78F0
7070
E030
E038
E038
E038
E038
E030
7070
78E0
3FE0
0F80
ENDCHAR
STARTCHAR 00D7
ENCODING 215
SWIDTH 495 0
DWIDTH 11 0
BBX 9 9 1 3
BITMAP
4100
E380
7700
3E00
1C00
3E00
7700
E380
4100
ENDCHAR
STARTCHAR 00D8
ENCODING 216
SWIDTH 675 0
DWIDTH 15 0
BBX 13 16 1 -1
BITMAP
0010
0F98
3FF0
78F0
7070
E0B8
E1B8
E338
E638
EC38
E830
7870
78F0
7FE0
CF80
8000
ENDCHAR
STARTCHAR 00D9
ENCODING 217
SWIDTH 630 0
DWIDTH 14 0
BBX 11 20 2 0
BITMAP
1000
3800
1C00
0600
0000
0000
C0E0
C0E0
C0E0
C0E0
C0E0
C0E0
C0E0
C0E0
C0E0
C0E0
E0C0
71C0
7F80
1F00
ENDCHAR
STARTCHAR 00DA
ENCODING 218
SWIDTH 630 0
DWIDTH 14 0
BBX 11 20 2 0
BITMAP
0100
0780
0E00
0C00
0000
0000
C0E0
C0E0
C0E0
C0E0
C0E0
C0E0
C0E0
C0E0
C0E0
C0E0
E0C0
71C0
7F80
1F00
ENDCHAR
STARTCHAR 00DB
ENCODING 219
SWIDTH 630 0
DWIDTH 14 0
BBX 11 19 2 0
BITMAP
1E00
3B00
2180
0000
0000
C0E0
C0E0
C0E0
C0E0
C0E0
C0E0
C0E0
C0E0
C0E0
C0E0
E0C0
71C0
7F80
1F00
ENDCHAR
STARTCHAR 00DC
ENCODING 220
SWIDTH 630 0
DWIDTH 14 0
BBX 11 19 2 0
BITMAP
3180
3380
3180
0000
0000
C0E0
C0E0
C0E0
C0E0
C0E0
C0E0
C0E0
C0E0
C0E0
C0E0
E0C0
71C0
7F80
1F00
ENDCHAR
STARTCHAR 00DD
ENCODING 221
SWIDTH 495 0
DWIDTH 11 0
BBX 11 20 0 0
BITMAP
0100
0380
0E00
0400
0000
0000
E0E0
60C0
71C0
3180
3980
1B00
1B00
0E00
0E00
0E00
0E00
0E00
0E00
0E00
ENDCHAR
STARTCHAR 00DE
ENCODING 222
SWIDTH 585 0
DWIDTH 13 0
BBX 10 14 2 0
BITMAP
C000
C000
FF00
FF80
C1C0
C0C0
C0C0
C1C0
C1C0
FF80
FE00
C000
C000
C000
ENDCHAR
STARTCHAR 00DF
ENCODING 223
SWIDTH 585 0
DWIDTH 13 0
BBX 11 16 2 0
BITMAP
3E00
7F00
E300
C300
C300
C700
C600
CE00
CE00
C780
C3C0
C0E0
C0E0
C8E0
CFC0
C780
ENDCHAR
STARTCHAR 00E0
ENCODING 224
SWIDTH 495 0
DWIDTH 11 0
BBX 9 18 1 0
BITMAP
2000
7000
3800
1C00
0800
0000
0000
3E00
FF00
4380
0380
1F80
7F80
F380
E380
E780
FF80
7980
ENDCHAR
STARTCHAR 00E1
ENCODING 225
SWIDTH 495 0
DWIDTH 11 0
BBX 9 18 1 0
BITMAP
0200
0300
0780
0E00
0800
0000
0000
3E00
FF00
4380
0380
1F80
7F80
F380
E380
E780
FF80
7980
ENDCHAR
STARTCHAR 00E2
ENCODING 226
SWIDTH 495 0
DWIDTH 11 0
BBX 9 17 1 0
BITMAP
1E00
3E00
3300
6180
0000
0000
3E00
FF00
4380
0380
1F80
7F80
F380
E380
E780
FF80
7980
ENDCHAR
STARTCHAR 00E3
ENCODING 227
SWIDTH 495 0
DWIDTH 11 0
BBX 9 17 1 0
BITMAP
3180
7D80
6F80
6700
0000
0000
3E00
FF00
4380
0380
1F80
7F80
F380
E380
E780
FF80
7980
ENDCHAR
STARTCHAR 00E4
ENCODING 228
SWIDTH 495 0
DWIDTH 11 0
BBX 9 16 1 0
BITMAP
3300
7380
3300
0000
0000
3E00
FF00
4380
0380
1F80
7F80
F380
E380
E780
FF80
7980
ENDCHAR
STARTCHAR 00E5
ENCODING 229
SWIDTH 495 0
DWIDTH 11 0
BBX 9 17 1 0
BITMAP
1E00
3200
3300
3200
1E00
0000
3E00
FF00
4380
0380
1F80
7F80
F380
E380
E780
FF80
7980
ENDCHAR
STARTCHAR 00E6
ENCODING 230
SWIDTH 765 0
DWIDTH 17 0
BBX 15 11 1 0
BITMAP
3E78
7FFC
63C6
0386
0FFE
7FFE
F380
E180
E3C4
7EFE
7C7C
ENDCHAR
STARTCHAR 00E7
ENCODING 231
SWIDTH 450 0
DWIDTH 10 0
BBX 9 16 1 -5
BITMAP
1E00
7F00
7200
E000
E000
E000
E000
E000
7100
7F80
1E00
0C00
0C00
1600
0600
1C00
ENDCHAR
STARTCHAR 00E8
ENCODING 232
SWIDTH 495 0
DWIDTH 11 0
BBX 9 18 1 0
BITMAP
2000
7000
3800
1C00
0800
0000
0000
1E00
7F00
6180
C180
FF80
FF80
C000
E000
7100
7F80
1F00
ENDCHAR
STARTCHAR 00E9
ENCODING 233
SWIDTH 495 0
DWIDTH 11 0
BBX 9 18 1 0
BITMAP
0200
0300
0780
0E00
0800
0000
0000
1E00
7F00
6180
C180
FF80
FF80
C000
E000
7100
7F80
1F00
ENDCHAR
STARTCHAR 00EA
ENCODING 234
SWIDTH 495 0
DWIDTH 11 0
BBX 9 17 1 0
BITMAP
1E00
3E00
3300
6180
0000
0000
1E00
7F00
6180
C180
FF80
FF80
C000
E000
7100
7F80
1F00
ENDCHAR
STARTCHAR 00EB
ENCODING 235
SWIDTH 495 0
DWIDTH 11 0
BBX 9 16 1 0
BITMAP
3300
7300
3300
0000
0000
1E00
7F00
6180
C180
FF80
FF80
C000
E000
7100
7F80
1F00
ENDCHAR
STARTCHAR 00EC
ENCODING 236
SWIDTH 270 0
DWIDTH 6 0
BBX 5 18 -1 0
BITMAP
40
E0
70
38
10
00
00
18
18
18
18
18
18
18
18
18
18
18
ENDCHAR
STARTCHAR 00ED
ENCODING 237
SWIDTH 270 0
DWIDTH 6 0
BBX 5 18 2 0
BITMAP
20
30
78
E0
80
00
00
C0
C0
C0
C0
C0
C0
C0
C0
C0
C0
C0
ENDCHAR
STARTCHAR 00EE
ENCODING 238
SWIDTH 270 0
DWIDTH 6 0
BBX 8 17 -1 0
BITMAP
3C
7C
66
C3
00
00
18
18
18
18
18
18
18
18
18
18
18
ENDCHAR
STARTCHAR 00EF
ENCODING 239
SWIDTH 270 0
DWIDTH 6 0
BBX 7 16 -1 0
BITMAP
66
E6
66
00
00
18
18
18
18
18
18
18
18
18
18
18
ENDCHAR
STARTCHAR 00F0
ENCODING 240
SWIDTH 540 0
DWIDTH 12 0
BBX 10 16 1 0
BITMAP
3080
39C0
1F00
1F00
7300
4380
1D80
7FC0
73C0
E0C0
C0C0
C1C0
E1C0
6180
7F00
1E00
ENDCHAR
STARTCHAR 00F1
ENCODING 241
SWIDTH 540 0
DWIDTH 12 0
BBX 9 17 2 0
BITMAP
3180
7900
6F00
4700
0000
0000
DE00
FF00
E380
C380
C380
C380
C380
C380
C380
C380
C380
ENDCHAR
STARTCHAR 00F2
ENCODING 242
SWIDTH 540 0
DWIDTH 12 0
BBX 10 18 1 0
BITMAP
1000
7000
3800
1C00
0400
0000
0000
1E00
7F80
7380
E1C0
E1C0
E0C0
E0C0
E1C0
7380
7F80
1E00
ENDCHAR
STARTCHAR 00F3
ENCODING 243
SWIDTH 540 0
DWIDTH 12 0
BBX 10 18 1 0
BITMAP
0100
0380
0700
0E00
0C00
0000
0000
1E00
7F80
7380
E1C0
E1C0
E0C0
E0C0
E1C0
7380
7F80
1E00
ENDCHAR
STARTCHAR 00F4
ENCODING 244
SWIDTH 540 0
DWIDTH 12 0
BBX 10 17 1 0
BITMAP
1E00
1F00
3300
6180
0000
0000
1E00
7F80
7380
E1C0
E1C0
E0C0
E0C0
E1C0
7380
7F80
1E00
ENDCHAR
STARTCHAR 00F5
ENCODING 245
SWIDTH 540 0
DWIDTH 12 0
BBX 10 17 1 0
BITMAP
3980
7D80
6F80
6700
0000
0000
1E00
7F80
7380
E1C0
E1C0
E0C0
E0C0
E1C0
7380
7F80
1E00
ENDCHAR
STARTCHAR 00F6
ENCODING 246
SWIDTH 540 0
DWIDTH 12 0
BBX 10 16 1 0
BITMAP
3300
7380
3300
0000
0000
1E00
7F80
7380
E1C0
E1C0
E0C0
E0C0
E1C0
7380
7F80
1E00
ENDCHAR
STARTCHAR 00F7
ENCODING 247
SWIDTH 495 0
DWIDTH 11 0
BBX 10 11 1 2
BITMAP
1C00
1C00
0000
0000
0000
FFC0
FFC0
0000
0000
1C00
1C00
ENDCHAR
STARTCHAR 00F8
ENCODING 248
SWIDTH 540 0
DWIDTH 12 0
BBX 10 11 1 0
BITMAP
1EC0
7F80
7180
E3C0
C6C0
CCC0
D8C0
F1C0
6180
7F80
DE00
ENDCHAR
STARTCHAR 00F9
ENCODING 249
SWIDTH 540 0
DWIDTH 12 0
BBX 10 18 1 0
BITMAP
1000
3000
7800
0C00
0400
0000
0000
E1C0
E1C0
E1C0
E1C0
E1C0
E1C0
E1C0
61C0
63C0
7FC0
3CC0
ENDCHAR
STARTCHAR 00FA
ENCODING 250
SWIDTH 540 0
DWIDTH 12 0
BBX 10 18 1 0
BITMAP
0100
0380
0700
0E00
0400
0000
0000
E1C0
E1C0
E1C0
E1C0
E1C0
E1C0
E1C0
61C0
63C0
7FC0
3CC0
ENDCHAR
STARTCHAR 00FB
ENCODING 251
SWIDTH 540 0
DWIDTH 12 0
BBX 10 17 1 0
BITMAP
1E00
1F00
3300
6180
0000
0000
E1C0
E1C0
E1C0
E1C0
E1C0
E1C0
E1C0
61C0
63C0
7FC0
3CC0
ENDCHAR
STARTCHAR 00FC
ENCODING 252
SWIDTH 540 0
DWIDTH 12 0
BBX 10 16 1 0
BITMAP
3300
3380
3300
0000
0000
E1C0
E1C0
E1C0
E1C0
E1C0
E1C0
E1C0
61C0
63C0
7FC0
3CC0
ENDCHAR
STARTCHAR 00FD
ENCODING 253
SWIDTH 495 0
DWIDTH 11 0
BBX 11 23 0 -5
BITMAP
0100
0380
0700
0600
0C00
0000
0000
E0E0
60C0
71C0
3180
3180
3980
1B00
1B00
1F00
0E00
0E00
0E00
0C00
1C00
7800
7000
ENDCHAR
STARTCHAR 00FE
ENCODING 254
SWIDTH 540 0
DWIDTH 12 0
BBX 9 21 2 -5
BITMAP
C000
C000
C000
C000
C000
DE00
FF00
E380
C180
C180
C180
C180
C380
E380
FF00
DE00
C000
C000
C000
C000
C000
ENDCHAR
STARTCHAR 00FF
ENCODING 255
SWIDTH 495 0
DWIDTH 11 0
BBX 11 21 0 -5
BITMAP
3180
3980
3180
0000
0000
E0E0
60C0
71C0
3180
3180
3980
1B00
1B00
1F00
0E00
0E00
0E00
0C00
1C00
7800
7000
ENDCHAR
STARTCHAR 0100
ENCODING 256
SWIDTH 540 0
DWIDTH 12 0
BBX 12 18 0 0
BITMAP
1F80
1F80
0000
0000
0F00
0F00
0F00
1D80
1980
1980
39C0
30C0
3FC0
7FE0
7060
6060
E070
E070
ENDCHAR
STARTCHAR 0101
ENCODING 257
SWIDTH 495 0
DWIDTH 11 0
BBX 9 15 1 0
BITMAP
3F00
3F00
0000
0000
3E00
FF00
4380
0380
1F80
7F80
F380
E380
E780
FF80
7980
ENDCHAR
STARTCHAR 0102
ENCODING 258
SWIDTH 540 0
DWIDTH 12 0
BBX 12 20 0 0
BITMAP
10C0
1980
1F80
0F00
0000
0000
0F00
0F00
0F00
1D80
1980
1980
39C0
30C0
3FC0
7FE0
7060
6060
E070
E070
ENDCHAR
STARTCHAR 0103
ENCODING 259
SWIDTH 495 0
DWIDTH 11 0
BBX 9 17 1 0
BITMAP
6180
3300
3F00
1E00
0000
0000
3E00
FF00
4380
0380
1F80
7F80
F380
E380
E780
FF80
7980
ENDCHAR
STARTCHAR 0104
ENCODING 260
SWIDTH 540 0
DWIDTH 12 0
BBX 13 19 0 -5
BITMAP
0F00
0F00
0F00
1D80
1980
1980
39C0
30C0
3FC0
7FE0
7060
6060
E070
E070
0020
0060
0060
0078
0070
ENDCHAR
STARTCHAR 0105
ENCODING 261
SWIDTH 495 0
DWIDTH 11 0
BBX 9 16 1 -5
BITMAP
3E00
FF00
4380
0380
1F80
7F80
F380
E380
E780
FF80
7980
0300
0200
0600
0780
0380
ENDCHAR
STARTCHAR 0106
ENCODING 262
SWIDTH 585 0
DWIDTH 13 0
BBX 11 20 1 0
BITMAP
0080
01C0
0700
0200
0000
0000
0F80
3FE0
78C0
7000
E000
E000
E000
E000
E000
E000
7000
7860
3FE0
0F80
ENDCHAR
STARTCHAR 0107
ENCODING 263
SWIDTH 450 0
DWIDTH 10 0
BBX 9 18 1 0
BITMAP
0100
0380
0700
0E00
0400
0000
0000
1E00
7F00
7200
E000
E000
E000
E000
E000
7100
7F80
1E00
ENDCHAR
STARTCHAR 0108
ENCODING 264
SWIDTH 585 0
DWIDTH 13 0
BBX 11 19 1 0
BITMAP
0700
0D80
18C0
0000
0000
0F80
3FE0
78C0
7000
E000
E000
E000
E000
E000
E000
7000
7860
3FE0
0F80
ENDCHAR
STARTCHAR 0109
ENCODING 265
SWIDTH 450 0
DWIDTH 10 0
BBX 9 17 1 0
BITMAP
0E00
1F00
3380
2180
0000
0000
1E00
7F00
7200
E000
E000
E000
E000
E000
7100
7F80
1E00
ENDCHAR
STARTCHAR 010A
ENCODING 266
SWIDTH 585 0
DWIDTH 13 0
BBX 11 19 1 0
BITMAP
0700
0700
0700
0000
0000
0F80
3FE0
78C0
7000
E000
E000
E000
E000
E000
E000
7000
7860
3FE0
0F80
ENDCHAR
STARTCHAR 010B
ENCODING 267
SWIDTH 450 0
DWIDTH 10 0
BBX 9 16 1 0
BITMAP
0C00
0E00
0C00
0000
0000
1E00
7F00
7200
E000
E000
E000
E000
E000
7100
7F80
1E00
ENDCHAR
STARTCHAR 010C
ENCODING 268
SWIDTH 585 0
DWIDTH 13 0
BBX 11 19 1 0
BITMAP
18C0
0D80
0700
0000
0000
0F80
3FE0
78C0
7000
E000
E000
E000
E000
E000
E000
7000
7860
3FE0
0F80
ENDCHAR
STARTCHAR 010D
ENCODING 269
SWIDTH 450 0
DWIDTH 10 0
BBX 9 17 1 0
BITMAP
2180
3380
1F00
0E00
0000
0000
1E00
7F00
7200
E000
E000
E000
E000
E000
7100
7F80
1E00
ENDCHAR
STARTCHAR 010E
ENCODING 270
SWIDTH 630 0
DWIDTH 14 0
BBX 11 19 2 0
BITMAP
2100
7700
1E00
0000
0000
FE00
FF80
C380
C1C0
C0C0
C0E0
C0E0
C0E0
C0E0
C0C0
C1C0
C380
FF80
FE00
ENDCHAR
STARTCHAR 010F
ENCODING 271
SWIDTH 585 0
DWIDTH 13 0
BBX 12 17 1 0
BITMAP
0010
01D0
01D0
01D0
01D0
01C0
1DC0
7FC0
71C0
E1C0
E1C0
E1C0
E1C0
E1C0
73C0
7FC0
3CC0
ENDCHAR
STARTCHAR 0110
ENCODING 272
SWIDTH 630 0
DWIDTH 14 0
BBX 12 14 1 0
BITMAP
7F00
7FC0
71E0
7070
7070
FE70
FE30
7030
7070
7070
7070
71E0
7FC0
7F00
ENDCHAR
STARTCHAR 0111
ENCODING 273
SWIDTH 540 0
DWIDTH 12 0
BBX 11 16 1 0
BITMAP
01C0
01C0
0FE0
0FE0
01C0
01C0
1DC0
7FC0
71C0
E1C0
E1C0
E1C0
E1C0
E3C0
7FC0
3CC0
ENDCHAR
STARTCHAR 0112
ENCODING 274
SWIDTH 540 0
DWIDTH 12 0
BBX 9 18 2 0
BITMAP
7E00
7E00
0000
0000
FF80
FF80
C000
C000
C000
C000
FF00
FF00
C000
C000
C000
C000
FF80
FF80
ENDCHAR
STARTCHAR 0113
ENCODING 275
SWIDTH 495 0
DWIDTH 11 0
BBX 9 15 1 0
BITMAP
3F00
3F00
0000
0000
1E00
7F00
6180
C180
FF80
FF80
C000
E000
7100
7F80
1F00
ENDCHAR
STARTCHAR 0114
ENCODING 276
SWIDTH 540 0
DWIDTH 12 0
BBX 9 20 2 0
BITMAP
4300
6200
3E00
3C00
0000
0000
FF80
FF80
C000
C000
C000
C000
FF00
FF00
C000
C000
C000
C000
FF80
FF80
ENDCHAR
STARTCHAR 0115
ENCODING 277
SWIDTH 495 0
DWIDTH 11 0
BBX 9 17 1 0
BITMAP
6100
7300
3F00
1E00
0000
0000
1E00
7F00
6180
C180
FF80
FF80
C000
E000
7100
7F80
1F00
ENDCHAR
STARTCHAR 0116
ENCODING 278
SWIDTH 540 0
DWIDTH 12 0
BBX 9 19 2 0
BITMAP
1C00
1C00
1C00
0000
0000
FF80
FF80
C000
C000
C000
C000
FF00
FF00
C000
C000
C000
C000
FF80
FF80
ENDCHAR
STARTCHAR 0117
ENCODING 279
SWIDTH 495 0
DWIDTH 11 0
BBX 9 16 1 0
BITMAP
0C00
1C00
0C00
0000
0000
1E00
7F00
6180
C180
FF80
FF80
C000
E000
7100
7F80
1F00
ENDCHAR
STARTCHAR 0118
ENCODING 280
SWIDTH 540 0
DWIDTH 12 0
BBX 9 19 2 -5
BITMAP
FF80
FF80
C000
C000
C000
C000
FF00
FF00
C000
C000
C000
C000
FF80
FF80
0200
0600
0600
0780
0780
ENDCHAR
STARTCHAR 0119
ENCODING 281
SWIDTH 495 0
DWIDTH 11 0
BBX 9 16 1 -5
BITMAP
1E00
7F00
6180
C180
FF80
FF80
C000
E000
7100
7F80
1F00
0200
0600
0600
0780
0700
ENDCHAR
STARTCHAR 011A
ENCODING 282
SWIDTH 540 0
DWIDTH 12 0
BBX 9 19 2 0
BITMAP
6300
3600
3C00
0000
0000
FF80
FF80
C000
C000
C000
C000
FF00
FF00
C000
C000
C000
C000
FF80
FF80
ENDCHAR
STARTCHAR 011B
ENCODING 283
SWIDTH 495 0
DWIDTH 11 0
BBX 9 17 1 0
BITMAP
2100
7380
3E00
1E00
0000
0000
1E00
7F00
6180
C180
FF80
FF80
C000
E000
7100
7F80
1F00
ENDCHAR
STARTCHAR 011C
ENCODING 284
SWIDTH 630 0
DWIDTH 14 0
BBX 11 19 1 0
BITMAP
0780
0DC0
1840
0000
0000
0F80
3FE0
7860
7000
E000
E000
E3E0
E3E0
E060
E060
7060
7860
3FE0
0FC0
ENDCHAR
STARTCHAR 011D
ENCODING 285
SWIDTH 495 0
DWIDTH 11 0
BBX 10 22 1 -5
BITMAP
1E00
1F00
3300
6180
0000
0000
3FC0
7FC0
E300
E380
E380
6300
7F00
7E00
6000
E000
7F80
7FC0
C0C0
C1C0
FF80
7E00
ENDCHAR
STARTCHAR 011E
ENCODING 286
SWIDTH 630 0
DWIDTH 14 0
BBX 11 20 1 0
BITMAP
0840
0CC0
0FC0
0780
0000
0000
0F80
3FE0
7860
7000
E000
E000
E3E0
E3E0
E060
E060
7060
7860
3FE0
0FC0
ENDCHAR
STARTCHAR 011F
ENCODING 287
SWIDTH 495 0
DWIDTH 11 0
BBX 10 22 1 -5
BITMAP
6180
3300
3F00
1E00
0000
0000
3FC0
7FC0
E300
E380
E380
6300
7F00
7E00
6000
E000
7F80
7FC0
C0C0
C1C0
FF80
7E00
ENDCHAR
STARTCHAR 0120
ENCODING 288
SWIDTH 630 0
DWIDTH 14 0
BBX 11 19 1 0
BITMAP
0300
0780
0300
0000
0000
0F80
3FE0
7860
7000
E000
E000
E3E0
E3E0
E060
E060
7060
7860
3FE0
0FC0
ENDCHAR
STARTCHAR 0121
ENCODING 289
SWIDTH 495 0
DWIDTH 11 0
BBX 10 21 1 -5
BITMAP
0C00
0E00
0C00
0000
0000
3FC0
7FC0
E300
E380
E380
6300
7F00
7E00
6000
E000
7F80
7FC0
C0C0
C1C0
FF80
7E00
ENDCHAR
STARTCHAR 0122
ENCODING 290
SWIDTH 630 0
DWIDTH 14 0
BBX 11 19 1 -5
BITMAP
0F80
3FE0
7860
7000
E000
E000
E3E0
E3E0
E060
E060
7060
7860
3FE0
0FC0
0000
0300
0580
0180
0600
ENDCHAR
STARTCHAR 0123
ENCODING 291
SWIDTH 495 0
DWIDTH 11 0
BBX 10 22 1 -5
BITMAP
0E00
1800
1800
0C00
0000
0000
3FC0
7FC0
E300
E380
E380
6300
7F00
7E00
6000
E000
7F80
7FC0
C0C0
C1C0
FF80
7E00
ENDCHAR
STARTCHAR 0124
ENCODING 292
SWIDTH 675 0
DWIDTH 15 0
BBX 11 19 2 0
BITMAP
1E00
1B00
3180
0000
0000
C0E0
C0E0
C0E0
C0E0
C0E0
C0E0
FFE0
FFE0
C0E0
C0E0
C0E0
C0E0
C0E0
C0E0
ENDCHAR
STARTCHAR 0125
ENCODING 293
SWIDTH 540 0
DWIDTH 12 0
BBX 12 20 -1 0
BITMAP
3C00
6E00
C200
0000
1800
1800
1800
1800
1800
19C0
1FE0
1C70
1870
1870
1870
1870
1870
1870
1870
1870
ENDCHAR
STARTCHAR 0126
ENCODING 294
SWIDTH 675 0
DWIDTH 15 0
BBX 14 14 1 0
BITMAP
7030
7030
FFFC
FFFC
7030
7030
7FF0
7FF0
7030
7030
7030
7030
7030
7030
ENDCHAR
STARTCHAR 0127
ENCODING 295
SWIDTH 540 0
DWIDTH 12 0
BBX 11 16 0 0
BITMAP
3000
3000
FF00
3000
3000
3000
37C0
3FC0
38E0
30E0
30E0
30E0
30E0
30E0
30E0
30E0
ENDCHAR
STARTCHAR 0128
ENCODING 296
SWIDTH 270 0
DWIDTH 6 0
BBX 8 20 -1 0
BITMAP
20
7B
DF
CE
00
00
18
18
18
18
18
18
18
18
18
18
18
18
18
18
ENDCHAR
STARTCHAR 0129
ENCODING 297
SWIDTH 270 0
DWIDTH 6 0
BBX 8 17 -1 0
BITMAP
63
FB
DF
CE
00
00
18
18
18
18
18
18
18
18
18
18
18
ENDCHAR
STARTCHAR 012A
ENCODING 298
SWIDTH 270 0
DWIDTH 6 0
BBX 6 18 0 0
BITMAP
FC
FC
00
00
30
30
30
30
30
30
30
30
30
30
30
30
30
30
ENDCHAR
STARTCHAR 012B
ENCODING 299
SWIDTH 270 0
DWIDTH 6 0
BBX 6 15 0 0
BITMAP
FC
FC
00
00
30
30
30
30
30
30
30
30
30
30
30
ENDCHAR
STARTCHAR 012C
ENCODING 300
SWIDTH 270 0
DWIDTH 6 0
BBX 7 20 0 0
BITMAP
86
CC
FC
78
00
00
30
30
30
30
30
30
30
30
30
30
30
30
30
30
ENDCHAR
STARTCHAR 012D
ENCODING 301
SWIDTH 270 0
DWIDTH 6 0
BBX 7 17 -1 0
BITMAP
C2
E6
7E
3C
00
00
18
18
18
18
18
18
18
18
18
18
18
ENDCHAR
STARTCHAR 012E
ENCODING 302
SWIDTH 270 0
DWIDTH 6 0
BBX 4 19 1 -5
BITMAP
60
60
60
60
60
60
60
60
60
60
60
60
60
60
60
C0
C0
F0
70
ENDCHAR
STARTCHAR 012F
ENCODING 303
SWIDTH 270 0
DWIDTH 6 0
BBX 4 21 1 -5
BITMAP
60
E0
60
00
00
60
60
60
60
60
60
60
60
60
60
60
40
C0
C0
F0
70
ENDCHAR
STARTCHAR 0130
ENCODING 304
SWIDTH 270 0
DWIDTH 6 0
BBX 3 19 2 0
BITMAP
C0
E0
C0
00
00
C0
C0
C0
C0
C0
C0
C0
C0
C0
C0
C0
C0
C0
C0
ENDCHAR
STARTCHAR 0131
ENCODING 305
SWIDTH 270 0
DWIDTH 6 0
BBX 2 11 2 0
BITMAP
C0
C0
C0
C0
C0
C0
C0
C0
C0
C0
C0
ENDCHAR
STARTCHAR 0132
ENCODING 306
SWIDTH 540 0
DWIDTH 12 0
BBX 9 18 2 -4
BITMAP
C380
C380
C380
C380
C380
C380
C380
C380
C380
C380
C380
C380
C380
C380
0380
0300
0F00
1E00
ENDCHAR
STARTCHAR 0133
ENCODING 307
SWIDTH 540 0
DWIDTH 12 0
BBX 9 21 1 -5
BITMAP
6180
E380
6380
0000
0000
6380
6380
6380
6380
6380
6380
6380
6380
6380
6380
6380
0380
0380
0380
0F00
0E00
ENDCHAR
STARTCHAR 0134
ENCODING 308
SWIDTH 495 0
DWIDTH 11 0
BBX 10 19 1 0
BITMAP
0780
0DC0
1840
0000
0000
0300
0300
0300
0300
0300
0300
0300
0300
0300
0300
8700
C700
FE00
7C00
ENDCHAR
STARTCHAR 0135
ENCODING 309
SWIDTH 270 0
DWIDTH 6 0
BBX 8 22 -1 -5
BITMAP
3C
7C
66
C3
00
00
18
18
18
18
18
18
18
18
18
18
18
18
18
38
F8
F0
ENDCHAR
STARTCHAR 0136
ENCODING 310
SWIDTH 585 0
DWIDTH 13 0
BBX 11 19 2 -5
BITMAP
C1C0
C380
C300
C700
CE00
DC00
FE00
F600
F700
E300
C380
C1C0
C1C0
C0E0
0000
0C00
0600
0600
1C00
ENDCHAR
STARTCHAR 0137
ENCODING 311
SWIDTH 495 0
DWIDTH 11 0
BBX 9 21 2 -5
BITMAP
C000
C000
C000
C000
C000
C380
C700
CE00
DC00
D800
FC00
FC00
E600
C700
C300
C380
0000
1800
0C00
0C00
3800
ENDCHAR
STARTCHAR 0138
ENCODING 312
SWIDTH 495 0
DWIDTH 11 0
BBX 9 11 2 0
BITMAP
C380
C700
CE00
DC00
D800
FC00
FE00
EE00
C700
C300
C380
ENDCHAR
STARTCHAR 0139
ENCODING 313
SWIDTH 495 0
DWIDTH 11 0
BBX 8 20 2 0
BITMAP
10
70
E8
C0
00
00
C0
C0
C0
C0
C0
C0
C0
C0
C0
C0
C0
C0
FF
FF
ENDCHAR
STARTCHAR 013A
ENCODING 314
SWIDTH 270 0
DWIDTH 6 0
BBX 5 21 1 0
BITMAP
10
38
70
C0
00
60
60
60
60
60
60
60
60
60
60
60
60
60
60
70
70
ENDCHAR
STARTCHAR 013B
ENCODING 315
SWIDTH 495 0
DWIDTH 11 0
BBX 8 19 2 -5
BITMAP
C0
C0
C0
C0
C0
C0
C0
C0
C0
C0
C0
C0
FF
FF
00
1C
0C
0C
38
ENDCHAR
STARTCHAR 013C
ENCODING 316
SWIDTH 270 0
DWIDTH 6 0
BBX 5 21 1 -5
BITMAP
60
60
60
60
60
60
60
60
60
60
60
60
60
60
70
70
00
30
58
18
E0
ENDCHAR
STARTCHAR 013D
ENCODING 317
SWIDTH 495 0
DWIDTH 11 0
BBX 8 16 2 0
BITMAP
06
06
C6
C2
C2
C0
C0
C0
C0
C0
C0
C0
C0
C0
FF
FF
ENDCHAR
STARTCHAR 013E
ENCODING 318
SWIDTH 270 0
DWIDTH 6 0
BBX 5 17 2 0
BITMAP
18
D8
D8
D8
D0
C0
C0
C0
C0
C0
C0
C0
C0
C0
C0
E0
E0
ENDCHAR
STARTCHAR 013F
ENCODING 319
SWIDTH 495 0
DWIDTH 11 0
BBX 8 14 2 0
BITMAP
C0
C0
C0
C0
C0
C7
C7
C7
C0
C0
C0
C0
FF
FF
ENDCHAR
STARTCHAR 0140
ENCODING 320
SWIDTH 405 0
DWIDTH 9 0
BBX 7 16 2 0
BITMAP
C0
C0
C0
C0
C0
C0
C0
CE
CE
CE
C0
C0
C0
C0
E0
E0
ENDCHAR
STARTCHAR 0141
ENCODING 321
SWIDTH 495 0
DWIDTH 11 0
BBX 11 14 0 0
BITMAP
3800
3800
3800
3800
3980
3F80
3E00
7800
F800
B800
3800
3800
3FE0
3FE0
ENDCHAR
STARTCHAR 0142
ENCODING 322
SWIDTH 270 0
DWIDTH 6 0
BBX 6 16 0 0
BITMAP
30
30
30
30
30
34
3C
78
F0
B0
30
30
30
30
38
1C
ENDCHAR
STARTCHAR 0143
ENCODING 323
SWIDTH 630 0
DWIDTH 14 0
BBX 11 20 2 0
BITMAP
0100
0780
0E00
0C00
0000
0000
E0E0
E0E0
F0E0
F0E0
D8E0
DCE0
CCE0
CEE0
C6E0
C7E0
C3E0
C1E0
C1E0
C0E0
ENDCHAR
STARTCHAR 0144
ENCODING 324
SWIDTH 540 0
DWIDTH 12 0
BBX 9 18 2 0
BITMAP
0200
0700
0E00
0C00
1800
0000
0000
DE00
FF00
E380
C380
C380
C380
C380
C380
C380
C380
C380
ENDCHAR
STARTCHAR 0145
ENCODING 325
SWIDTH 630 0
DWIDTH 14 0
BBX 11 19 2 -5
BITMAP
E0E0
E0E0
F0E0
F0E0
D8E0
DCE0
CCE0
CEE0
C6E0
C7E0
C3E0
C1E0
C1E0
C0E0
0000
0E00
0600
0600
1C00
ENDCHAR
STARTCHAR 0146
ENCODING 326
SWIDTH 540 0
DWIDTH 12 0
BBX 9 16 2 -5
BITMAP
DE00
FF00
E380
C380
C380
C380
C380
C380
C380
C380
C380
0000
1800
0C00
0C00
3800
ENDCHAR
STARTCHAR 0147
ENCODING 327
SWIDTH 630 0
DWIDTH 14 0
BBX 11 19 2 0
BITMAP
3100
1B80
1E00
0000
0000
E0E0
E0E0
F0E0
F0E0
D8E0
DCE0
CCE0
CEE0
C6E0
C7E0
C3E0
C1E0
C1E0
C0E0
ENDCHAR
STARTCHAR 0148
ENCODING 328
SWIDTH 540 0
DWIDTH 12 0
BBX 9 17 2 0
BITMAP
4100
7300
3E00
1C00
0000
0000
DE00
FF00
E380
C380
C380
C380
C380
C380
C380
C380
C380
ENDCHAR
STARTCHAR 0149
ENCODING 329
SWIDTH 810 0
DWIDTH 18 0
BBX 15 15 1 0
BITMAP
6000
7000
3000
2000
633C
C3FE
03CE
0386
0386
0386
0386
0386
0386
0386
0386
ENDCHAR
STARTCHAR 014A
ENCODING 330
SWIDTH 630 0
DWIDTH 14 0
BBX 11 14 2 0
BITMAP
CF80
DFC0
F1C0
E0E0
C0E0
C060
C060
C060
C060
C0E0
C0E0
C0E0
C3C0
C780
ENDCHAR
STARTCHAR 014B
ENCODING 331
SWIDTH 540 0
DWIDTH 12 0
BBX 9 15 2 -4
BITMAP
CE00
FF00
E380
C380
C380
C380
C380
C380
C380
C380
C380
0380
0380
0F00
0E00
ENDCHAR
STARTCHAR 014C
ENCODING 332
SWIDTH 675 0
DWIDTH 15 0
BBX 13 18 1 0
BITMAP
1FC0
1FC0
0000
0000
0F80
3FE0
78F0
7070
E030
E038
E038
E038
E038
E030
7070
78E0
3FE0
0F80
ENDCHAR
STARTCHAR 014D
ENCODING 333
SWIDTH 540 0
DWIDTH 12 0
BBX 10 15 1 0
BITMAP
3F00
3F00
0000
0000
1E00
7F80
7380
E1C0
E1C0
E0C0
E0C0
E1C0
7380
7F80
1E00
ENDCHAR
STARTCHAR 014E
ENCODING 334
SWIDTH 675 0
DWIDTH 15 0
BBX 13 20 1 0
BITMAP
18C0
18C0
0F80
0700
0000
0000
0F80
3FE0
78F0
7070
E030
E038
E038
E038
E038
E030
7070
78E0
3FE0
0F80
ENDCHAR
STARTCHAR 014F
ENCODING 335
SWIDTH 540 0
DWIDTH 12 0
BBX 10 17 1 0
BITMAP
6180
3300
3F00
1E00
0000
0000
1E00
7F80
7380
E1C0
E1C0
E0C0
E0C0
E1C0
7380
7F80
1E00
ENDCHAR
STARTCHAR 0150
ENCODING 336
SWIDTH 675 0
DWIDTH 15 0
BBX 13 20 1 0
BITMAP
0260
0760
0CC0
0880
0000
0000
0F80
3FE0
78F0
7070
E030
E038
E038
E038
E038
E030
7070
78E0
3FE0
0F80
ENDCHAR
STARTCHAR 0151
ENCODING 337
SWIDTH 540 0
DWIDTH 12 0
BBX 10 17 1 0
BITMAP
0880
0DC0
1980
1B00
1100
0000
1E00
7F80
7380
E1C0
E1C0
E0C0
E0C0
E1C0
7380
7F80
1E00
ENDCHAR
STARTCHAR 0152
ENCODING 338
SWIDTH 855 0
DWIDTH 19 0
BBX 17 14 1 0
BITMAP
0FFF80
3FFF80
78E000
70E000
E0E000
E0E000
E0FF00
E0FF00
E0E000
E0E000
70E000
78E000
3FFF80
0FFF80
ENDCHAR
STARTCHAR 0153
ENCODING 339
SWIDTH 810 0
DWIDTH 18 0
BBX 16 11 1 0
BITMAP
1E3C
7F7E
73C3
E1C3
E1FF
C1FF
E1C0
E1C0
73E2
7F7F
1E3E
ENDCHAR
STARTCHAR 0154
ENCODING 340
SWIDTH 585 0
DWIDTH 13 0
BBX 11 20 2 0
BITMAP
0200
0700
0E00
1800
0000
0000
FF00
FF80
C1C0
C1C0
C1C0
C1C0
C380
FF00
FE00
C700
C300
C380
C1C0
C1E0
ENDCHAR
STARTCHAR 0155
ENCODING 341
SWIDTH 360 0
DWIDTH 8 0
BBX 7 18 2 0
BITMAP
04
0E
1C
38
10
00
00
DC
FC
E0
C0
C0
C0
C0
C0
C0
C0
C0
ENDCHAR
STARTCHAR 0156
ENCODING 342
SWIDTH 585 0
DWIDTH 13 0
BBX 11 19 2 -5
BITMAP
FF00
FF80
C1C0
C1C0
C1C0
C1C0
C380
FF00
FE00
C700
C300
C380
C1C0
C1C0
0020
0C00
1600
0600
1C00
ENDCHAR
STARTCHAR 0157
ENCODING 343
SWIDTH 360 0
DWIDTH 8 0
BBX 7 16 1 -5
BITMAP
6E
7E
70
60
60
60
60
60
60
60
60
00
60
B0
30
C0
ENDCHAR
STARTCHAR 0158
ENCODING 344
SWIDTH 585 0
DWIDTH 13 0
BBX 11 19 2 0
BITMAP
6300
3600
1C00
0000
0000
FF00
FF80
C1C0
C1C0
C1C0
C1C0
C380
FF00
FE00
C700
C300
C380
C1C0
C1E0
ENDCHAR
STARTCHAR 0159
ENCODING 345
SWIDTH 360 0
DWIDTH 8 0
BBX 8 17 1 0
BITMAP
42
E7
3E
3C
00
00
6E
7E
70
60
60
60
60
60
60
60
60
ENDCHAR
STARTCHAR 015A
ENCODING 346
SWIDTH 540 0
DWIDTH 12 0
BBX 10 20 1 0
BITMAP
0100
0780
0E00
0C00
0000
0000
1F00
7FC0
7180
E000
6000
7800
3F00
0F80
03C0
01C0
80C0
E1C0
FF80
3F00
ENDCHAR
STARTCHAR 015B
ENCODING 347
SWIDTH 405 0
DWIDTH 9 0
BBX 8 18 1 0
BITMAP
04
07
0E
1C
18
00
00
3C
7F
E2
E0
F0
3E
0F
07
C7
FE
7C
ENDCHAR
STARTCHAR 015C
ENCODING 348
SWIDTH 540 0
DWIDTH 12 0
BBX 10 19 1 0
BITMAP
1E00
1B00
3180
0000
0000
1F00
7FC0
7180
E000
6000
7800
3F00
0F80
03C0
01C0
80C0
E1C0
FF80
3F00
ENDCHAR
STARTCHAR 015D
ENCODING 349
SWIDTH 405 0
DWIDTH 9 0
BBX 8 17 1 0
BITMAP
3C
3C
66
C3
00
00
3C
7F
E2
E0
F0
3E
0F
07
C7
FE
7C
ENDCHAR
STARTCHAR 015E
ENCODING 350
SWIDTH 540 0
DWIDTH 12 0
BBX 10 19 1 -5
BITMAP
1F00
7FC0
7180
E000
6000
7800
3F00
0F80
03C0
01C0
80C0
E1C0
FF80
3F00
0C00
0C00
1600
0600
1C00
ENDCHAR
STARTCHAR 015F
ENCODING 351
SWIDTH 405 0
DWIDTH 9 0
BBX 8 16 1 -5
BITMAP
3C
7F
E2
E0
F0
3E
0F
07
C7
FE
7C
18
18
2C
0C
38
ENDCHAR
STARTCHAR 0160
ENCODING 352
SWIDTH 540 0
DWIDTH 12 0
BBX 10 19 1 0
BITMAP
3100
1B80
1E00
0000
0000
1F00
7FC0
7180
E000
6000
7800
3F00
0F80
03C0
01C0
80C0
E1C0
FF80
3F00
ENDCHAR
STARTCHAR 0161
ENCODING 353
SWIDTH 405 0
DWIDTH 9 0
BBX 8 17 1 0
BITMAP
42
E7
3C
3C
00
00
3C
7F
E2
E0
F0
3E
0F
07
C7
FE
7C
ENDCHAR
STARTCHAR 0162
ENCODING 354
SWIDTH 540 0
DWIDTH 12 0
BBX 10 19 1 -5
BITMAP
FFC0
FFC0
0C00
0C00
0C00
0C00
0C00
0C00
0C00
0C00
0C00
0C00
0C00
0C00
0800
0C00
1600
0600
1C00
ENDCHAR
STARTCHAR 0163
ENCODING 355
SWIDTH 360 0
DWIDTH 8 0
BBX 8 19 0 -5
BITMAP
38
38
38
FE
FE
38
38
38
38
38
38
38
3E
1F
0C
0C
16
06
1C
ENDCHAR
STARTCHAR 0164
ENCODING 356
SWIDTH 540 0
DWIDTH 12 0
BBX 10 19 1 0
BITMAP
2100
7F80
1E00
0000
0000
FFC0
FFC0
0C00
0C00
0C00
0C00
0C00
0C00
0C00
0C00
0C00
0C00
0C00
0C00
ENDCHAR
STARTCHAR 0165
ENCODING 357
SWIDTH 360 0
DWIDTH 8 0
BBX 8 17 0 0
BITMAP
02
02
02
3A
3A
38
FE
FE
38
38
38
38
38
38
38
3E
1F
ENDCHAR
STARTCHAR 0166
ENCODING 358
SWIDTH 540 0
DWIDTH 12 0
BBX 10 14 1 0
BITMAP
FFC0
FFC0
0C00
0C00
0C00
0C00
7F80
7F80
0C00
0C00
0C00
0C00
0C00
0C00
ENDCHAR
STARTCHAR 0167
ENCODING 359
SWIDTH 360 0
DWIDTH 8 0
BBX 8 14 0 0
BITMAP
38
38
38
FE
FE
38
38
38
FE
38
38
38
3E
1F
ENDCHAR
STARTCHAR 0168
ENCODING 360
SWIDTH 630 0
DWIDTH 14 0
BBX 11 20 2 0
BITMAP
1000
3D80
6F80
6700
0000
0000
C0E0
C0E0
C0E0
C0E0
C0E0
C0E0
C0E0
C0E0
C0E0
C0E0
E0C0
71C0
7F80
1F00
ENDCHAR
STARTCHAR 0169
ENCODING 361
SWIDTH 540 0
DWIDTH 12 0
BBX 10 17 1 0
BITMAP
3980
3D80
6F80
6700
0000
0000
E1C0
E1C0
E1C0
E1C0
E1C0
E1C0
E1C0
61C0
63C0
7FC0
3CC0
ENDCHAR
STARTCHAR 016A
ENCODING 362
SWIDTH 630 0
DWIDTH 14 0
BBX 11 18 2 0
BITMAP
3F00
3F00
0000
0000
C0E0
C0E0
C0E0
C0E0
C0E0
C0E0
C0E0
C0E0
C0E0
C0E0
E0C0
71C0
7F80
1F00
ENDCHAR
STARTCHAR 016B
ENCODING 363
SWIDTH 540 0
DWIDTH 12 0
BBX 10 15 1 0
BITMAP
3F00
3F00
0000
0000
E1C0
E1C0
E1C0
E1C0
E1C0
E1C0
E1C0
61C0
63C0
7FC0
3CC0
ENDCHAR
STARTCHAR 016C
ENCODING 364
SWIDTH 630 0
DWIDTH 14 0
BBX 11 20 2 0
BITMAP
2180
3300
3F00
1E00
0000
0000
C0E0
C0E0
C0E0
C0E0
C0E0
C0E0
C0E0
C0E0
C0E0
C0E0
E0C0
71C0
7F80
1F00
ENDCHAR
STARTCHAR 016D
ENCODING 365
SWIDTH 540 0
DWIDTH 12 0
BBX 10 17 1 0
BITMAP
2180
3380
3F00
1E00
0000
0000
E1C0
E1C0
E1C0
E1C0
E1C0
E1C0
E1C0
61C0
63C0
7FC0
3CC0
ENDCHAR
STARTCHAR 016E
ENCODING 366
SWIDTH 630 0
DWIDTH 14 0
BBX 11 20 2 0
BITMAP
0E00
1200
1300
1200
0E00
0000
C0E0
C0E0
C0E0
C0E0
C0E0
C0E0
C0E0
C0E0
C0E0
C0E0
E0C0
71C0
7F80
1F00
ENDCHAR
STARTCHAR 016F
ENCODING 367
SWIDTH 540 0
DWIDTH 12 0
BBX 10 17 1 0
BITMAP
1E00
1300
3300
1300
1E00
0000
E1C0
E1C0
E1C0
E1C0
E1C0
E1C0
E1C0
61C0
63C0
7FC0
3CC0
ENDCHAR
STARTCHAR 0170
ENCODING 368
SWIDTH 630 0
DWIDTH 14 0
BBX 11 20 2 0
BITMAP
0C80
0CC0
1980
1300
0000
0000
C0E0
C0E0
C0E0
C0E0
C0E0
C0E0
C0E0
C0E0
C0E0
C0E0
E0C0
71C0
7F80
1F00
ENDCHAR
STARTCHAR 0171
ENCODING 369
SWIDTH 540 0
DWIDTH 12 0
BBX 10 17 1 0
BITMAP
0C80
0DC0
1980
1B00
1100
0000
E1C0
E1C0
E1C0
E1C0
E1C0
E1C0
E1C0
61C0
63C0
7FC0
3CC0
ENDCHAR
STARTCHAR 0172
ENCODING 370
SWIDTH 630 0
DWIDTH 14 0
BBX 11 19 2 -5
BITMAP
C0E0
C0E0
C0E0
C0E0
C0E0
C0E0
C0E0
C0E0
C0E0
C0E0
E0C0
71C0
7F80
1F00
0C00
0800
1800
0F00
0E00
ENDCHAR
STARTCHAR 0173
ENCODING 371
SWIDTH 540 0
DWIDTH 12 0
BBX 10 16 1 -5
BITMAP
E1C0
E1C0
E1C0
E1C0
E1C0
E1C0
E1C0
61C0
63C0
7FC0
3CC0
0180
0300
0300
03C0
01C0
ENDCHAR
STARTCHAR 0174
ENCODING 372
SWIDTH 810 0
DWIDTH 18 0
BBX 17 19 0 0
BITMAP
01E000
037000
061000
000000
000000
E0C180
61C380
61E380
71E380
71E300
336300
337300
333700
333700
3E3600
1E3600
1E1E00
1E1E00
1C1E00
ENDCHAR
STARTCHAR 0175
ENCODING 373
SWIDTH 720 0
DWIDTH 16 0
BBX 15 17 1 0
BITMAP
0380
07C0
0CE0
0840
0000
0000
C38E
C38E
E38C
E78C
66CC
66DC
74D8
7CD8
3C78
3C78
3870
ENDCHAR
STARTCHAR 0176
ENCODING 374
SWIDTH 495 0
DWIDTH 11 0
BBX 11 19 0 0
BITMAP
0E00
1B00
3180
0000
0000
E0E0
60C0
71C0
3180
3980
1B00
1B00
0E00
0E00
0E00
0E00
0E00
0E00
0E00
ENDCHAR
STARTCHAR 0177
ENCODING 375
SWIDTH 495 0
DWIDTH 11 0
BBX 11 22 0 -5
BITMAP
0E00
1F00
3980
2080
0000
0000
E0E0
60C0
71C0
3180
3180
3980
1B00
1B00
1F00
0E00
0E00
0E00
0C00
1C00
7800
7000
ENDCHAR
STARTCHAR 0178
ENCODING 376
SWIDTH 495 0
DWIDTH 11 0
BBX 11 19 0 0
BITMAP
3180
3180
3180
0000
0000
E0E0
60C0
71C0
3180
3980
1B00
1B00
0E00
0E00
0E00
0E00
0E00
0E00
0E00
ENDCHAR
STARTCHAR 0179
ENCODING 377
SWIDTH 540 0
DWIDTH 12 0
BBX 10 20 1 0
BITMAP
0100
0780
0E00
0C00
0000
0000
7FC0
7FC0
0180
0300
0700
0600
0E00
1C00
1800
3800
7000
6000
FFC0
FFC0
ENDCHAR
STARTCHAR 017A
ENCODING 378
SWIDTH 450 0
DWIDTH 10 0
BBX 8 18 1 0
BITMAP
02
07
0E
1C
08
00
00
FF
FF
06
0C
1C
18
38
70
60
FF
FF
ENDCHAR
STARTCHAR 017B
ENCODING 379
SWIDTH 540 0
DWIDTH 12 0
BBX 10 19 1 0
BITMAP
0C00
0E00
0C00
0000
0000
7FC0
7FC0
0180
0300
0700
0600
0E00
1C00
1800
3800
7000
6000
FFC0
FFC0
ENDCHAR
STARTCHAR 017C
ENCODING 380
SWIDTH 450 0
DWIDTH 10 0
BBX 8 16 1 0
BITMAP
18
1C
18
00
00
FF
FF
06
0C
1C
18
38
70
60
FF
FF
ENDCHAR
STARTCHAR 017D
ENCODING 381
SWIDTH 540 0
DWIDTH 12 0
BBX 10 19 1 0
BITMAP
2100
3B80
1E00
0000
0000
7FC0
7FC0
0180
0300
0700
0600
0E00
1C00
1800
3800
7000
6000
FFC0
FFC0
ENDCHAR
STARTCHAR 017E
ENCODING 382
SWIDTH 450 0
DWIDTH 10 0
BBX 8 17 1 0
BITMAP
42
E7
3E
1C
00
00
FF
FF
06
0C
1C
18
38
70
60
FF
FF
ENDCHAR
STARTCHAR 0180
ENCODING 384
SWIDTH 540 0
DWIDTH 12 0
BBX 11 16 0 0
BITMAP
3000
3000
FF00
3000
3000
3780
3FC0
38E0
3060
3060
3060
3060
30E0
38E0
3FC0
3780
ENDCHAR
STARTCHAR 018F
ENCODING 399
SWIDTH 675 0
DWIDTH 15 0
BBX 13 14 1 0
BITMAP
0F80
3FE0
30E0
0070
0030
0038
FFF8
FFF8
E030
6030
6070
70E0
3FE0
0F80
ENDCHAR
STARTCHAR 0192
ENCODING 402
SWIDTH 495 0
DWIDTH 11 0
BBX 10 17 1 -2
BITMAP
03C0
0780
0E00
0C00
0C00
0C00
3F00
3F00
1C00
1C00
1800
1800
1800
1800
3800
F000
E000
ENDCHAR
STARTCHAR 0193
ENCODING 403
SWIDTH 630 0
DWIDTH 14 0
BBX 13 18 1 0
BITMAP
0038
0078
00E0
00E0
0FE0
3FE0
7840
7000
E000
E000
E3E0
E3E0
E060
E060
7060
7860
3FE0
0FC0
ENDCHAR
STARTCHAR 01A0
ENCODING 416
SWIDTH 675 0
DWIDTH 15 0
BBX 13 17 1 0
BITMAP
0018
0018
0018
0FB0
3FE0
78F0
7070
E038
E038
E038
E038
E038
E030
7070
78F0
3FE0
0F80
ENDCHAR
STARTCHAR 01A1
ENCODING 417
SWIDTH 540 0
DWIDTH 12 0
BBX 11 15 1 0
BITMAP
0020
00E0
0060
0060
1FC0
7F80
7380
E1C0
E1C0
E0C0
E0C0
E1C0
7380
7F80
1E00
ENDCHAR
STARTCHAR 01AF
ENCODING 431
SWIDTH 675 0
DWIDTH 15 0
BBX 13 18 2 0
BITMAP
0008
0018
0018
0018
C0F0
C0E0
C0E0
C0E0
C0E0
C0E0
C0E0
C0E0
C0E0
C0E0
E0C0
71C0
7F80
1F00
ENDCHAR
STARTCHAR 01B0
ENCODING 432
SWIDTH 540 0
DWIDTH 12 0
BBX 12 15 1 0
BITMAP
0030
0070
0030
0060
E1C0
E1C0
E1C0
E1C0
E1C0
E1C0
E1C0
61C0
63C0
7FC0
3DC0
ENDCHAR
STARTCHAR 01C2
ENCODING 450
SWIDTH 315 0
DWIDTH 7 0
BBX 7 23 0 -6
BITMAP
10
10
10
10
10
10
10
10
FE
FE
10
10
FE
FE
10
10
10
10
10
10
10
10
10
ENDCHAR
STARTCHAR 01CD
ENCODING 461
SWIDTH 540 0
DWIDTH 12 0
BBX 12 19 0 0
BITMAP
1080
1DC0
0F00
0000
0000
0F00
0F00
0F00
1D80
1980
1980
39C0
30C0
3FC0
7FE0
7060
6060
E070
E070
ENDCHAR
STARTCHAR 01CE
ENCODING 462
SWIDTH 495 0
DWIDTH 11 0
BBX 9 17 1 0
BITMAP
2100
7380
3E00
1E00
0000
0000
3E00
FF00
4380
0380
1F80
7F80
F380
E380
E780
FF80
7980
ENDCHAR
STARTCHAR 01CF
ENCODING 463
SWIDTH 270 0
DWIDTH 6 0
BBX 7 19 0 0
BITMAP
84
EE
78
00
00
30
30
30
30
30
30
30
30
30
30
30
30
30
30
ENDCHAR
STARTCHAR 01D0
ENCODING 464
SWIDTH 270 0
DWIDTH 6 0
BBX 8 17 -1 0
BITMAP
42
E7
7C
3C
00
00
18
18
18
18
18
18
18
18
18
18
18
ENDCHAR
STARTCHAR 01D1
ENCODING 465
SWIDTH 675 0
DWIDTH 15 0
BBX 13 19 1 0
BITMAP
18C0
0D80
0700
0000
0000
0F80
3FE0
78F0
7070
E030
E038
E038
E038
E038
E030
7070
78E0
3FE0
0F80
ENDCHAR
STARTCHAR 01D2
ENCODING 466
SWIDTH 540 0
DWIDTH 12 0
BBX 10 17 1 0
BITMAP
2100
7380
1F00
1E00
0000
0000
1E00
7F80
7380
E1C0
E1C0
E0C0
E0C0
E1C0
7380
7F80
1E00
ENDCHAR
STARTCHAR 01D3
ENCODING 467
SWIDTH 630 0
DWIDTH 14 0
BBX 11 19 2 0
BITMAP
2100
3B80
1E00
0000
0000
C0E0
C0E0
C0E0
C0E0
C0E0
C0E0
C0E0
C0E0
C0E0
C0E0
E0C0
71C0
7F80
1F00
ENDCHAR
STARTCHAR 01D4
ENCODING 468
SWIDTH 540 0
DWIDTH 12 0
BBX 10 17 1 0
BITMAP
2100
7380
1F00
1E00
0000
0000
E1C0
E1C0
E1C0
E1C0
E1C0
E1C0
E1C0
61C0
63C0
7FC0
3CC0
ENDCHAR
STARTCHAR 01D5
ENCODING 469
SWIDTH 630 0
DWIDTH 14 0
BBX 11 20 2 0
BITMAP
3F00
0000
3180
3380
0000
0000
C0E0
C0E0
C0E0
C0E0
C0E0
C0E0
C0E0
C0E0
C0E0
C0E0
E0C0
71C0
7F80
1F00
ENDCHAR
STARTCHAR 01D6
ENCODING 470
SWIDTH 540 0
DWIDTH 12 0
BBX 10 17 1 0
BITMAP
3F00
0000
3300
3380
0000
0000
E1C0
E1C0
E1C0
E1C0
E1C0
E1C0
E1C0
61C0
63C0
7FC0
3CC0
ENDCHAR
STARTCHAR 01D7
ENCODING 471
SWIDTH 630 0
DWIDTH 14 0
BBX 11 22 2 0
BITMAP
0200
0700
0600
0C00
3180
3380
0000
0000
C0E0
C0E0
C0E0
C0E0
C0E0
C0E0
C0E0
C0E0
C0E0
C0E0
E0C0
71C0
7F80
1F00
ENDCHAR
STARTCHAR 01D8
ENCODING 472
SWIDTH 540 0
DWIDTH 12 0
BBX 10 19 1 0
BITMAP
0200
0600
0C00
0000
3300
3380
0000
0000
E1C0
E1C0
E1C0
E1C0
E1C0
E1C0
E1C0
61C0
63C0
7FC0
3CC0
ENDCHAR
STARTCHAR 01D9
ENCODING 473
SWIDTH 630 0
DWIDTH 14 0
BBX 11 22 2 0
BITMAP
3100
1F00
0E00
0000
3180
3380
0000
0000
C0E0
C0E0
C0E0
C0E0
C0E0
C0E0
C0E0
C0E0
C0E0
C0E0
E0C0
71C0
7F80
1F00
ENDCHAR
STARTCHAR 01DA
ENCODING 474
SWIDTH 540 0
DWIDTH 12 0
BBX 10 19 1 0
BITMAP
3100
1F00
0E00
0000
3300
3380
0000
0000
E1C0
E1C0
E1C0
E1C0
E1C0
E1C0
E1C0
61C0
63C0
7FC0
3CC0
ENDCHAR
STARTCHAR 01DB
ENCODING 475
SWIDTH 630 0
DWIDTH 14 0
BBX 11 22 2 0
BITMAP
1000
1800
0C00
0400
3180
3380
0000
0000
C0E0
C0E0
C0E0
C0E0
C0E0
C0E0
C0E0
C0E0
C0E0
C0E0
E0C0
71C0
7F80
1F00
ENDCHAR
STARTCHAR 01DC
ENCODING 476
SWIDTH 540 0
DWIDTH 12 0
BBX 10 19 1 0
BITMAP
0800
1800
0400
0000
3300
3380
0000
0000
E1C0
E1C0
E1C0
E1C0
E1C0
E1C0
E1C0
61C0
63C0
7FC0
3CC0
ENDCHAR
STARTCHAR 01E2
ENCODING 482
SWIDTH 810 0
DWIDTH 18 0
BBX 17 18 0 0
BITMAP
007E00
007E00
000000
000000
01FF80
03FF80
036000
076000
066000
0E6000
0C7F00
1C7F00
1FE000
3FE000
306000
706000
607F80
E07F80
ENDCHAR
STARTCHAR 01E3
ENCODING 483
SWIDTH 765 0
DWIDTH 17 0
BBX 15 15 1 0
BITMAP
07E0
07E0
0000
0000
3E78
7FFC
63C6
0386
0FFE
7FFE
F380
E180
E3C4
7EFE
7C7C
ENDCHAR
STARTCHAR 01E6
ENCODING 486
SWIDTH 630 0
DWIDTH 14 0
BBX 11 19 1 0
BITMAP
0840
1DC0
0780
0000
0000
0F80
3FE0
7860
7000
E000
E000
E3E0
E3E0
E060
E060
7060
7860
3FE0
0FC0
ENDCHAR
STARTCHAR 01E7
ENCODING 487
SWIDTH 495 0
DWIDTH 11 0
BBX 10 22 1 -5
BITMAP
2100
7380
1F00
1E00
0000
0000
3FC0
7FC0
E300
E380
E380
6300
7F00
7E00
6000
E000
7F80
7FC0
C0C0
C1C0
FF80
7E00
ENDCHAR
STARTCHAR 01EA
ENCODING 490
SWIDTH 675 0
DWIDTH 15 0
BBX 13 19 1 -5
BITMAP
0F80
3FE0
78F0
7070
E030
E038
E038
E038
E038
E030
7070
78E0
3FE0
0F80
0200
0600
0600
0780
0780
ENDCHAR
STARTCHAR 01EB
ENCODING 491
SWIDTH 540 0
DWIDTH 12 0
BBX 10 16 1 -5
BITMAP
1E00
7F80
7380
E1C0
E1C0
E0C0
E0C0
E1C0
7380
7F80
1E00
0C00
0800
1800
1E00
0E00
ENDCHAR
STARTCHAR 01F4
ENCODING 500
SWIDTH 630 0
DWIDTH 14 0
BBX 11 20 1 0
BITMAP
0080
01C0
0380
0600
0000
0000
0F80
3FE0
7860
7000
E000
E000
E3E0
E3E0
E060
E060
7060
7860
3FE0
0FC0
ENDCHAR
STARTCHAR 01F5
ENCODING 501
SWIDTH 495 0
DWIDTH 11 0
BBX 10 23 1 -5
BITMAP
0100
0380
0700
0E00
0C00
0000
0000
3FC0
7FC0
E300
E380
E380
6300
7F00
7E00
6000
E000
7F80
7FC0
C0C0
C1C0
FF80
7E00
ENDCHAR
STARTCHAR 01F8
ENCODING 504
SWIDTH 630 0
DWIDTH 14 0
BBX 11 20 2 0
BITMAP
1000
3800
1C00
0600
0000
0000
E0E0
E0E0
F0E0
F0E0
D8E0
DCE0
CCE0
CEE0
C6E0
C7E0
C3E0
C1E0
C1E0
C0E0
ENDCHAR
STARTCHAR 01F9
ENCODING 505
SWIDTH 540 0
DWIDTH 12 0
BBX 9 18 2 0
BITMAP
2000
7000
3800
1C00
0800
0000
0000
DE00
FF00
E380
C380
C380
C380
C380
C380
C380
C380
C380
ENDCHAR
STARTCHAR 01FC
ENCODING 508
SWIDTH 810 0
DWIDTH 18 0
BBX 17 20 0 0
BITMAP
000200
000E00
001C00
001800
000000
000000
01FF80
03FF80
036000
076000
066000
0E6000
0C7F00
1C7F00
1FE000
3FE000
306000
706000
607F80
E07F80
ENDCHAR
STARTCHAR 01FD
ENCODING 509
SWIDTH 765 0
DWIDTH 17 0
BBX 15 18 1 0
BITMAP
0020
0070
00E0
01C0
0180
0000
0000
3E78
7FFC
63C6
0386
0FFE
7FFE
F380
E180
E3C4
7EFE
7C7C
ENDCHAR
STARTCHAR 0218
ENCODING 536
SWIDTH 540 0
DWIDTH 12 0
BBX 10 19 1 -5
BITMAP
1F00
7FC0
7180
E000
6000
7800
3F00
0F80
03C0
01C0
80C0
E1C0
FF80
3F00
0000
0C00
0600
0600
1C00
ENDCHAR
STARTCHAR 0219
ENCODING 537
SWIDTH 405 0
DWIDTH 9 0
BBX 8 16 1 -5
BITMAP
3C
7F
E2
E0
F0
3E
0F
07
C7
FE
7C
00
18
0C
0C
38
ENDCHAR
STARTCHAR 021A
ENCODING 538
SWIDTH 540 0
DWIDTH 12 0
BBX 10 19 1 -5
BITMAP
FFC0
FFC0
0C00
0C00
0C00
0C00
0C00
0C00
0C00
0C00
0C00
0C00
0C00
0C00
0000
0C00
0600
0600
1C00
ENDCHAR
STARTCHAR 021B
ENCODING 539
SWIDTH 360 0
DWIDTH 8 0
BBX 8 19 0 -5
BITMAP
38
38
38
FE
FE
38
38
38
38
38
38
38
3E
1F
00
0C
16
06
1C
ENDCHAR
STARTCHAR 0237
ENCODING 567
SWIDTH 270 0
DWIDTH 6 0
BBX 5 16 -1 -5
BITMAP
18
18
18
18
18
18
18
18
18
18
18
18
18
38
F8
F0
ENDCHAR
STARTCHAR 0243
ENCODING 579
SWIDTH 630 0
DWIDTH 14 0
BBX 12 14 1 0
BITMAP
7F80
7FE0
70E0
70E0
7FC0
7FC0
70E0
7070
FE70
FE70
7070
70E0
7FC0
7F80
ENDCHAR
STARTCHAR 0250
ENCODING 592
SWIDTH 540 0
DWIDTH 12 0
BBX 9 11 1 0
BITMAP
EF00
FF80
F180
E180
E780
FF00
FC00
6000
7180
7F80
1F00
ENDCHAR
STARTCHAR 0251
ENCODING 593
SWIDTH 540 0
DWIDTH 12 0
BBX 10 11 1 0
BITMAP
1EC0
7FC0
71C0
E1C0
E1C0
E1C0
E1C0
E1C0
73C0
7FC0
3CC0
ENDCHAR
STARTCHAR 0252
ENCODING 594
SWIDTH 540 0
DWIDTH 12 0
BBX 9 11 2 0
BITMAP
DE00
FF00
E380
C180
C180
C180
C180
C380
E380
FF00
DE00
ENDCHAR
STARTCHAR 0253
ENCODING 595
SWIDTH 540 0
DWIDTH 12 0
BBX 9 16 2 0
BITMAP
3C00
F800
E000
C000
C000
DE00
FF00
E380
C180
C180
C180
C180
C380
E380
FF00
DE00
ENDCHAR
STARTCHAR 0254
ENCODING 596
SWIDTH 450 0
DWIDTH 10 0
BBX 8 11 1 0
BITMAP
78
FE
8F
07
03
03
03
07
8F
FE
78
ENDCHAR
STARTCHAR 0255
ENCODING 597
SWIDTH 450 0
DWIDTH 10 0
BBX 9 12 1 -1
BITMAP
1E00
7F00
7100
E000
C000
CF00
FF80
F980
7180
7F00
FE00
C000
ENDCHAR
STARTCHAR 0256
ENCODING 598
SWIDTH 540 0
DWIDTH 12 0
BBX 12 20 1 -4
BITMAP
01C0
01C0
01C0
01C0
01C0
1DC0
7FC0
71C0
E1C0
E1C0
E1C0
E1C0
E1C0
73C0
7FC0
3DC0
01C0
01C0
00F0
0070
ENDCHAR
STARTCHAR 0257
ENCODING 599
SWIDTH 540 0
DWIDTH 12 0
BBX 12 16 1 0
BITMAP
0070
00F0
01C0
01C0
01C0
1DC0
7FC0
71C0
E1C0
E1C0
E1C0
E1C0
E1C0
73C0
7FC0
3CC0
ENDCHAR
STARTCHAR 0258
ENCODING 600
SWIDTH 495 0
DWIDTH 11 0
BBX 9 11 1 0
BITMAP
3E00
7F00
E380
C180
FF80
FF80
0180
0380
4780
FF00
3C00
ENDCHAR
STARTCHAR 0259
ENCODING 601
SWIDTH 495 0
DWIDTH 11 0
BBX 9 11 1 0
BITMAP
3E00
FF00
4380
0380
0180
FF80
FF80
C180
E380
7F00
3E00
ENDCHAR
STARTCHAR 025A
ENCODING 602
SWIDTH 675 0
DWIDTH 15 0
BBX 14 11 1 0
BITMAP
3E00
7F20
43F0
07F0
1F9C
7D9C
E180
C180
E380
7F00
3E00
ENDCHAR
STARTCHAR 025B
ENCODING 603
SWIDTH 450 0
DWIDTH 10 0
BBX 8 11 1 0
BITMAP
3E
7F
62
60
3C
7C
E0
E0
E1
7F
3E
ENDCHAR
STARTCHAR 025C
ENCODING 604
SWIDTH 450 0
DWIDTH 10 0
BBX 8 11 1 0
BITMAP
7C
FE
87
06
3E
3E
07
03
87
FF
7C
ENDCHAR
STARTCHAR 025E
ENCODING 606
SWIDTH 540 0
DWIDTH 12 0
BBX 10 11 1 0
BITMAP
3E00
7F80
61C0
61C0
3CC0
7CC0
E0C0
E1C0
E1C0
7F80
3E00
ENDCHAR
STARTCHAR 025F
ENCODING 607
SWIDTH 315 0
DWIDTH 7 0
BBX 7 16 -1 -5
BITMAP
1C
1C
1C
1C
7E
7E
1C
1C
1C
1C
1C
1C
1C
18
78
F0
ENDCHAR
STARTCHAR 0260
ENCODING 608
SWIDTH 585 0
DWIDTH 13 0
BBX 12 19 1 -5
BITMAP
0070
00F0
01C0
1DC0
7FC0
71C0
E1C0
E1C0
E1C0
E1C0
E1C0
71C0
7FC0
3DC0
01C0
01C0
41C0
7F80
3F00
ENDCHAR
STARTCHAR 0261
ENCODING 609
SWIDTH 585 0
DWIDTH 13 0
BBX 10 16 1 -5
BITMAP
1EC0
7FC0
71C0
E1C0
E1C0
E1C0
E1C0
E1C0
71C0
7FC0
3DC0
01C0
01C0
41C0
7F80
3E00
ENDCHAR
STARTCHAR 0262
ENCODING 610
SWIDTH 495 0
DWIDTH 11 0
BBX 9 11 1 0
BITMAP
1F00
7F80
7100
E000
E000
C780
E780
E180
7180
7F80
1F00
ENDCHAR
STARTCHAR 0263
ENCODING 611
SWIDTH 495 0
DWIDTH 11 0
BBX 11 16 0 -5
BITMAP
E0E0
60C0
71C0
3180
3180
3B80
1B00
1B00
1E00
0E00
1F00
1B00
1B00
1B00
1F00
0E00
ENDCHAR
STARTCHAR 0264
ENCODING 612
SWIDTH 540 0
DWIDTH 12 0
BBX 12 11 0 0
BITMAP
F0F0
7FE0
0F00
0F00
1F80
39C0
30C0
30C0
39C0
3F80
0F00
ENDCHAR
STARTCHAR 0265
ENCODING 613
SWIDTH 540 0
DWIDTH 12 0
BBX 10 16 1 -5
BITMAP
E1C0
E1C0
E1C0
E1C0
E1C0
E1C0
E1C0
61C0
63C0
7FC0
3DC0
01C0
01C0
01C0
01C0
01C0
ENDCHAR
STARTCHAR 0266
ENCODING 614
SWIDTH 540 0
DWIDTH 12 0
BBX 9 16 2 0
BITMAP
3C00
F800
E000
C000
C000
CE00
FF00
E380
C380
C380
C380
C380
C380
C380
C380
C380
ENDCHAR
STARTCHAR 0267
ENCODING 615
SWIDTH 540 0
DWIDTH 12 0
BBX 9 20 2 -4
BITMAP
3C00
F800
E000
C000
C000
CE00
FF00
E380
C380
C380
C380
C380
C380
C380
C380
C380
0380
0380
0F00
0E00
ENDCHAR
STARTCHAR 0268
ENCODING 616
SWIDTH 315 0
DWIDTH 7 0
BBX 6 16 0 0
BITMAP
30
38
30
00
00
38
38
38
38
FC
FC
38
38
38
38
38
ENDCHAR
STARTCHAR 026A
ENCODING 618
SWIDTH 360 0
DWIDTH 8 0
BBX 6 11 1 0
BITMAP
FC
FC
30
30
30
30
30
30
30
FC
FC
ENDCHAR
STARTCHAR 026C
ENCODING 620
SWIDTH 315 0
DWIDTH 7 0
BBX 7 16 0 0
BITMAP
1C
1C
1C
1C
1C
5C
FC
9C
7E
1C
1C
1C
1C
1C
1E
0E
ENDCHAR
STARTCHAR 026D
ENCODING 621
SWIDTH 270 0
DWIDTH 6 0
BBX 4 20 2 -4
BITMAP
C0
C0
C0
C0
C0
C0
C0
C0
C0
C0
C0
C0
C0
C0
C0
C0
C0
C0
F0
70
ENDCHAR
STARTCHAR 026E
ENCODING 622
SWIDTH 585 0
DWIDTH 13 0
BBX 11 21 2 -5
BITMAP
C000
C000
C000
C000
C000
FFC0
FFC0
C1C0
C380
C300
C700
CE00
CFC0
CFC0
C0E0
C0E0
00E0
00E0
31C0
3FC0
0F00
ENDCHAR
STARTCHAR 026F
ENCODING 623
SWIDTH 855 0
DWIDTH 19 0
BBX 15 11 2 0
BITMAP
C38E
C38E
C38E
C38E
C38E
C38E
C38E
C38E
E79E
FDF6
79E6
ENDCHAR
STARTCHAR 0270
ENCODING 624
SWIDTH 855 0
DWIDTH 19 0
BBX 15 16 2 -5
BITMAP
C38E
C38E
C38E
C38E
C38E
C38E
C38E
C38E
E79E
FDF6
79E6
000E
000E
000E
000E
000E
ENDCHAR
STARTCHAR 0271
ENCODING 625
SWIDTH 855 0
DWIDTH 19 0
BBX 15 15 2 -4
BITMAP
DE3C
FF7E
E3CE
C38E
C386
C386
C386
C386
C386
C386
C386
0006
000E
003E
003C
ENDCHAR
STARTCHAR 0272
ENCODING 626
SWIDTH 540 0
DWIDTH 12 0
BBX 12 15 -1 -4
BITMAP
19C0
1FE0
1C70
1870
1870
1870
1870
1870
1870
1870
1870
1800
3800
7800
F000
ENDCHAR
STARTCHAR 0273
ENCODING 627
SWIDTH 540 0
DWIDTH 12 0
BBX 11 15 2 -4
BITMAP
CE00
FF00
E380
C380
C380
C380
C380
C380
C380
C380
C380
0380
0380
01E0
00E0
ENDCHAR
STARTCHAR 0274
ENCODING 628
SWIDTH 540 0
DWIDTH 12 0
BBX 9 11 2 0
BITMAP
C380
E380
E380
F380
FB80
DB80
CF80
CF80
C780
C780
C380
ENDCHAR
STARTCHAR 0275
ENCODING 629
SWIDTH 540 0
DWIDTH 12 0
BBX 10 11 1 0
BITMAP
1E00
7F80
6180
E0C0
FFC0
FFC0
C0C0
E1C0
6180
7F80
1E00
ENDCHAR
STARTCHAR 0276
ENCODING 630
SWIDTH 720 0
DWIDTH 16 0
BBX 14 11 1 0
BITMAP
1FFC
7FFC
7180
E180
E1F8
E1F8
E180
E180
7180
7FFC
1FFC
ENDCHAR
STARTCHAR 0278
ENCODING 632
SWIDTH 720 0
DWIDTH 16 0
BBX 14 21 1 -5
BITMAP
0300
0300
0300
0300
0300
1FC0
3FF0
7338
E318
E31C
E31C
E31C
E318
7338
3FF0
1FC0
0300
0300
0300
0300
0300
ENDCHAR
STARTCHAR 0279
ENCODING 633
SWIDTH 360 0
DWIDTH 8 0
BBX 7 11 0 0
BITMAP
0E
0E
0E
0E
0E
0E
0E
0E
1E
FE
EE
ENDCHAR
STARTCHAR 027A
ENCODING 634
SWIDTH 360 0
DWIDTH 8 0
BBX 7 16 0 0
BITMAP
0E
0E
0E
0E
0E
0E
0E
0E
0E
0E
0E
0E
0E
1E
FE
EE
ENDCHAR
STARTCHAR 027B
ENCODING 635
SWIDTH 360 0
DWIDTH 8 0
BBX 9 15 0 -4
BITMAP
0E00
0E00
0E00
0E00
0E00
0E00
0E00
0E00
1E00
FE00
EE00
0E00
0E00
0780
0780
ENDCHAR
STARTCHAR 027D
ENCODING 637
SWIDTH 360 0
DWIDTH 8 0
BBX 6 15 2 -4
BITMAP
DC
FC
E0
C0
C0
C0
C0
C0
C0
C0
C0
C0
C0
F0
70
ENDCHAR
STARTCHAR 027E
ENCODING 638
SWIDTH 360 0
DWIDTH 8 0
BBX 6 11 2 0
BITMAP
3C
FC
E0
C0
C0
C0
C0
C0
C0
C0
C0
ENDCHAR
STARTCHAR 0280
ENCODING 640
SWIDTH 495 0
DWIDTH 11 0
BBX 9 11 2 0
BITMAP
FC00
CF00
C700
C700
C700
FE00
FC00
CE00
C600
C700
C380
ENDCHAR
STARTCHAR 0281
ENCODING 641
SWIDTH 495 0
DWIDTH 11 0
BBX 10 11 0 0
BITMAP
F1C0
71C0
39C0
19C0
1FC0
3FC0
71C0
71C0
71C0
3FC0
1FC0
ENDCHAR
STARTCHAR 0282
ENCODING 642
SWIDTH 405 0
DWIDTH 9 0
BBX 8 15 1 -4
BITMAP
3C
7F
E2
E0
F0
3E
0F
07
C7
FE
FC
C0
C0
F0
70
ENDCHAR
STARTCHAR 0283
ENCODING 643
SWIDTH 270 0
DWIDTH 6 0
BBX 8 21 -1 -5
BITMAP
0F
1F
1C
18
18
18
18
18
18
18
18
18
18
18
18
18
18
18
38
F8
F0
ENDCHAR
STARTCHAR 0284
ENCODING 644
SWIDTH 315 0
DWIDTH 7 0
BBX 8 21 -1 -5
BITMAP
07
0F
1C
1C
1C
1C
1C
1C
1C
1C
7E
1C
1C
1C
1C
1C
1C
1C
18
78
F0
ENDCHAR
STARTCHAR 0288
ENCODING 648
SWIDTH 360 0
DWIDTH 8 0
BBX 8 18 0 -4
BITMAP
38
38
38
FE
FE
38
38
38
38
38
38
38
38
38
38
38
1E
1F
ENDCHAR
STARTCHAR 0289
ENCODING 649
SWIDTH 585 0
DWIDTH 13 0
BBX 13 11 0 0
BITMAP
3860
3860
3860
3860
FFF8
3860
3860
38E0
38E0
1F60
1E60
ENDCHAR
STARTCHAR 028A
ENCODING 650
SWIDTH 540 0
DWIDTH 12 0
BBX 10 11 1 0
BITMAP
F3C0
F3C0
7380
6180
E1C0
E0C0
E0C0
E1C0
71C0
7F80
1E00
ENDCHAR
STARTCHAR 028B
ENCODING 651
SWIDTH 540 0
DWIDTH 12 0
BBX 10 11 1 0
BITMAP
E700
E780
E1C0
E1C0
E1C0
E1C0
61C0
61C0
7380
7F00
1E00
ENDCHAR
STARTCHAR 028C
ENCODING 652
SWIDTH 495 0
DWIDTH 11 0
BBX 11 11 0 0
BITMAP
0E00
1E00
1B00
1B00
3B00
3380
3180
7180
61C0
60C0
E0E0
ENDCHAR
STARTCHAR 028D
ENCODING 653
SWIDTH 720 0
DWIDTH 16 0
BBX 15 11 1 0
BITMAP
3870
3C70
3C58
7CD8
6CD8
66D8
669C
E78C
C78C
C38E
C30E
ENDCHAR
STARTCHAR 028E
ENCODING 654
SWIDTH 495 0
DWIDTH 11 0
BBX 11 16 0 0
BITMAP
01C0
03C0
0700
0600
0E00
0C00
0E00
1E00
1B00
3B00
3300
3380
7180
61C0
60C0
E0E0
ENDCHAR
STARTCHAR 028F
ENCODING 655
SWIDTH 450 0
DWIDTH 10 0
BBX 10 11 0 0
BITMAP
E1C0
6180
7380
3300
3700
1E00
1E00
0C00
0C00
0C00
0C00
ENDCHAR
STARTCHAR 0290
ENCODING 656
SWIDTH 450 0
DWIDTH 10 0
BBX 10 15 1 -4
BITMAP
FF00
FF00
0600
0E00
1C00
1800
3800
7000
6000
FF00
FF00
0700
0300
03C0
01C0
ENDCHAR
STARTCHAR 0291
ENCODING 657
SWIDTH 495 0
DWIDTH 11 0
BBX 10 13 1 -2
BITMAP
FF00
FF00
0600
0C00
1C00
1800
3380
76C0
64C0
FF80
FF00
0800
1800
ENDCHAR
STARTCHAR 0292
ENCODING 658
SWIDTH 450 0
DWIDTH 10 0
BBX 9 16 0 -5
BITMAP
7F80
7F80
0700
0600
0C00
1C00
1C00
3F00
2780
0380
0180
0180
0380
4380
FF00
3E00
ENDCHAR
STARTCHAR 0294
ENCODING 660
SWIDTH 450 0
DWIDTH 10 0
BBX 9 16 0 0
BITMAP
3E00
FF00
C380
8380
0180
0380
0380
0700
0E00
1C00
1C00
1C00
1C00
1C00
1C00
1C00
ENDCHAR
STARTCHAR 0295
ENCODING 661
SWIDTH 450 0
DWIDTH 10 0
BBX 9 16 1 0
BITMAP
3E00
7F80
E180
C100
C000
E000
E000
7000
3800
1C00
1C00
1C00
1C00
1C00
1C00
1C00
ENDCHAR
STARTCHAR 0298
ENCODING 664
SWIDTH 540 0
DWIDTH 12 0
BBX 10 16 1 0
BITMAP
1E00
3F00
7380
6180
6180
E1C0
E1C0
EDC0
EDC0
E1C0
E1C0
6180
6180
7380
3F00
1E00
ENDCHAR
STARTCHAR 0299
ENCODING 665
SWIDTH 495 0
DWIDTH 11 0
BBX 9 11 2 0
BITMAP
FE00
FF00
C300
C300
FE00
FF00
C300
C380
C380
FF00
FE00
ENDCHAR
STARTCHAR 029C
ENCODING 668
SWIDTH 585 0
DWIDTH 13 0
BBX 9 11 2 0
BITMAP
C380
C380
C380
C380
FF80
FF80
C380
C380
C380
C380
C380
ENDCHAR
STARTCHAR 029D
ENCODING 669
SWIDTH 315 0
DWIDTH 7 0
BBX 9 22 -1 -6
BITMAP
0C00
0E00
0C00
0000
0000
0E00
0E00
0E00
0E00
0E00
0E00
0E00
0E00
0E00
0E00
7E00
FC00
CE00
DE00
FF00
7B80
0100
ENDCHAR
STARTCHAR 029F
ENCODING 671
SWIDTH 405 0
DWIDTH 9 0
BBX 7 11 2 0
BITMAP
C0
C0
C0
C0
C0
C0
C0
C0
C0
FE
FE
ENDCHAR
STARTCHAR 02A1
ENCODING 673
SWIDTH 450 0
DWIDTH 10 0
BBX 10 16 0 0
BITMAP
3E00
7F00
E380
4180
0180
0180
0380
0700
0E00
FFC0
FFC0
1C00
1C00
1C00
1C00
1C00
ENDCHAR
STARTCHAR 02A2
ENCODING 674
SWIDTH 450 0
DWIDTH 10 0
BBX 10 16 0 0
BITMAP
1F00
3F80
71C0
6080
6000
6000
7000
3800
1C00
FFC0
FFC0
0E00
0E00
0E00
0E00
0E00
ENDCHAR
STARTCHAR 02B0
ENCODING 688
SWIDTH 360 0
DWIDTH 8 0
BBX 6 11 1 8
BITMAP
C0
C0
C0
FC
FC
CC
CC
CC
CC
CC
CC
ENDCHAR
STARTCHAR 02B2
ENCODING 690
SWIDTH 180 0
DWIDTH 4 0
BBX 4 14 -1 5
BITMAP
30
30
00
30
30
30
30
30
30
30
30
30
30
E0
ENDCHAR
STARTCHAR 02B3
ENCODING 691
SWIDTH 270 0
DWIDTH 6 0
BBX 5 8 1 8
BITMAP
D8
F0
C0
C0
C0
C0
C0
C0
ENDCHAR
STARTCHAR 02B7
ENCODING 695
SWIDTH 495 0
DWIDTH 11 0
BBX 11 8 0 8
BITMAP
C460
4E40
6A40
6AC0
6AC0
2BC0
3B80
3180
ENDCHAR
STARTCHAR 02B8
ENCODING 696
SWIDTH 315 0
DWIDTH 7 0
BBX 7 10 0 6
BITMAP
C6
66
64
2C
3C
38
18
18
30
60
ENDCHAR
STARTCHAR 02B9
ENCODING 697
SWIDTH 270 0
DWIDTH 6 0
BBX 3 6 2 9
BITMAP
E0
E0
C0
C0
C0
C0
ENDCHAR
STARTCHAR 02BB
ENCODING 699
SWIDTH 270 0
DWIDTH 6 0
BBX 4 6 1 9
BITMAP
20
70
40
C0
E0
60
ENDCHAR
STARTCHAR 02BC
ENCODING 700
SWIDTH 270 0
DWIDTH 6 0
BBX 4 6 1 9
BITMAP
60
70
30
20
60
C0
ENDCHAR
STARTCHAR 02BE
ENCODING 702
SWIDTH 180 0
DWIDTH 4 0
BBX 2 5 1 12
BITMAP
C0
40
40
C0
C0
ENDCHAR
STARTCHAR 02BF
ENCODING 703
SWIDTH 180 0
DWIDTH 4 0
BBX 3 5 0 12
BITMAP
60
C0
C0
E0
60
ENDCHAR
STARTCHAR 02C1
ENCODING 705
SWIDTH 315 0
DWIDTH 7 0
BBX 6 11 1 8
BITMAP
78
FC
C8
80
C0
E0
70
30
30
30
30
ENDCHAR
STARTCHAR 02C6
ENCODING 710
SWIDTH 540 0
DWIDTH 12 0
BBX 8 4 2 13
BITMAP
3C
3E
66
C3
ENDCHAR
STARTCHAR 02C7
ENCODING 711
SWIDTH 540 0
DWIDTH 12 0
BBX 8 4 2 13
BITMAP
42
E7
3E
3C
ENDCHAR
STARTCHAR 02C8
ENCODING 712
SWIDTH 135 0
DWIDTH 3 0
BBX 2 4 0 12
BITMAP
C0
C0
C0
40
ENDCHAR
STARTCHAR 02C9
ENCODING 713
SWIDTH 270 0
DWIDTH 6 0
BBX 6 2 0 13
BITMAP
FC
FC
ENDCHAR
STARTCHAR 02CA
ENCODING 714
SWIDTH 225 0
DWIDTH 5 0
BBX 5 5 1 13
BITMAP
10
38
70
E0
40
ENDCHAR
STARTCHAR 02CB
ENCODING 715
SWIDTH 225 0
DWIDTH 5 0
BBX 5 5 -1 13
BITMAP
40
E0
70
38
10
ENDCHAR
STARTCHAR 02CC
ENCODING 716
SWIDTH 135 0
DWIDTH 3 0
BBX 2 4 0 -6
BITMAP
40
C0
C0
C0
ENDCHAR
STARTCHAR 02D0
ENCODING 720
SWIDTH 270 0
DWIDTH 6 0
BBX 4 11 1 0
BITMAP
F0
60
60
40
00
00
00
40
60
60
F0
ENDCHAR
STARTCHAR 02D1
ENCODING 721
SWIDTH 270 0
DWIDTH 6 0
BBX 4 4 1 6
BITMAP
F0
60
60
40
ENDCHAR
STARTCHAR 02D8
ENCODING 728
SWIDTH 540 0
DWIDTH 12 0
BBX 8 4 2 13
BITMAP
C3
66
7E
3C
ENDCHAR
STARTCHAR 02D9
ENCODING 729
SWIDTH 540 0
DWIDTH 12 0
BBX 3 3 5 13
BITMAP
C0
E0
C0
ENDCHAR
STARTCHAR 02DA
ENCODING 730
SWIDTH 540 0
DWIDTH 12 0
BBX 6 5 3 12
BITMAP
78
4C
CC
4C
78
ENDCHAR
STARTCHAR 02DB
ENCODING 731
SWIDTH 540 0
DWIDTH 12 0
BBX 5 5 4 -5
BITMAP
60
40
C0
F0
78
ENDCHAR
STARTCHAR 02DC
ENCODING 732
SWIDTH 540 0
DWIDTH 12 0
BBX 8 4 2 13
BITMAP
73
FB
DF
CE
ENDCHAR
STARTCHAR 02DD
ENCODING 733
SWIDTH 540 0
DWIDTH 12 0
BBX 7 5 4 12
BITMAP
44
6E
CC
D8
88
ENDCHAR
STARTCHAR 02DE
ENCODING 734
SWIDTH 180 0
DWIDTH 4 0
BBX 6 5 -2 5
BITMAP
20
F0
F0
9C
1C
ENDCHAR
STARTCHAR 02E0
ENCODING 736
SWIDTH 315 0
DWIDTH 7 0
BBX 7 11 0 5
BITMAP
C6
46
64
6C
2C
38
18
38
2C
2C
38
ENDCHAR
STARTCHAR 02E1
ENCODING 737
SWIDTH 180 0
DWIDTH 4 0
BBX 3 11 1 8
BITMAP
C0
C0
C0
C0
C0
C0
C0
C0
C0
C0
E0
ENDCHAR
STARTCHAR 02E2
ENCODING 738
SWIDTH 270 0
DWIDTH 6 0
BBX 6 8 0 8
BITMAP
3C
68
60
70
1C
0C
4C
F8
ENDCHAR
STARTCHAR 02E3
ENCODING 739
SWIDTH 315 0
DWIDTH 7 0
BBX 7 8 0 8
BITMAP
E6
6C
3C
38
38
2C
6C
C6
ENDCHAR
STARTCHAR 0300
ENCODING 768
SWIDTH 0 0
DWIDTH 0 0
BBX 5 5 -4 13
BITMAP
40
E0
70
38
18
ENDCHAR
STARTCHAR 0301
ENCODING 769
SWIDTH 0 0
DWIDTH 0 0
BBX 5 5 -1 13
BITMAP
20
38
70
E0
C0
ENDCHAR
STARTCHAR 0302
ENCODING 770
SWIDTH 0 0
DWIDTH 0 0
BBX 8 4 -4 13
BITMAP
3C
3C
66
C3
ENDCHAR
STARTCHAR 0303
ENCODING 771
SWIDTH 0 0
DWIDTH 0 0
BBX 8 4 -4 13
BITMAP
73
FB
DF
CE
ENDCHAR
STARTCHAR 0304
ENCODING 772
SWIDTH 0 0
DWIDTH 0 0
BBX 6 2 -3 13
BITMAP
FC
FC
ENDCHAR
STARTCHAR 0305
ENCODING 773
SWIDTH 0 0
DWIDTH 0 0
BBX 6 2 -3 13
BITMAP
FC
FC
ENDCHAR
STARTCHAR 0306
ENCODING 774
SWIDTH 0 0
DWIDTH 0 0
BBX 8 4 -4 13
BITMAP
C3
66
7E
3C
ENDCHAR
STARTCHAR 0307
ENCODING 775
SWIDTH 0 0
DWIDTH 0 0
BBX 4 3 -2 13
BITMAP
60
F0
60
ENDCHAR
STARTCHAR 0308
ENCODING 776
SWIDTH 0 0
DWIDTH 0 0
BBX 8 3 -4 13
BITMAP
66
E7
66
ENDCHAR
STARTCHAR 0309
ENCODING 777
SWIDTH 0 0
DWIDTH 0 0
BBX 4 5 -2 13
BITMAP
E0
F0
30
30
60
ENDCHAR
STARTCHAR 030A
ENCODING 778
SWIDTH 0 0
DWIDTH 0 0
BBX 6 5 -3 12
BITMAP
78
48
CC
48
78
ENDCHAR
STARTCHAR 030B
ENCODING 779
SWIDTH 0 0
DWIDTH 0 0
BBX 7 5 -2 12
BITMAP
44
6E
CC
D8
88
ENDCHAR
STARTCHAR 030C
ENCODING 780
SWIDTH 0 0
DWIDTH 0 0
BBX 8 4 -4 13
BITMAP
42
E7
3C
3C
ENDCHAR
STARTCHAR 030F
ENCODING 783
SWIDTH 0 0
DWIDTH 0 0
BBX 7 5 -5 12
BITMAP
44
EC
66
26
32
ENDCHAR
STARTCHAR 0311
ENCODING 785
SWIDTH 0 0
DWIDTH 0 0
BBX 8 4 -4 12
BITMAP
3C
7E
66
C3
ENDCHAR
STARTCHAR 0312
ENCODING 786
SWIDTH 0 0
DWIDTH 0 0
BBX 2 4 -1 13
BITMAP
C0
80
C0
C0
ENDCHAR
STARTCHAR 0313
ENCODING 787
SWIDTH 0 0
DWIDTH 0 0
BBX 2 4 -1 13
BITMAP
C0
C0
40
C0
ENDCHAR
STARTCHAR 0318
ENCODING 792
SWIDTH 0 0
DWIDTH 0 0
BBX 4 6 -2 -6
BITMAP
10
10
F0
F0
10
10
ENDCHAR
STARTCHAR 0319
ENCODING 793
SWIDTH 0 0
DWIDTH 0 0
BBX 4 6 -2 -6
BITMAP
80
80
F0
F0
80
80
ENDCHAR
STARTCHAR 031A
ENCODING 794
SWIDTH 0 0
DWIDTH 0 0
BBX 4 4 -2 12
BITMAP
F0
F0
10
10
ENDCHAR
STARTCHAR 031B
ENCODING 795
SWIDTH 0 0
DWIDTH 0 0
BBX 4 5 0 10
BITMAP
20
70
70
60
C0
ENDCHAR
STARTCHAR 031C
ENCODING 796
SWIDTH 0 0
DWIDTH 0 0
BBX 3 5 -2 -6
BITMAP
60
40
C0
60
60
ENDCHAR
STARTCHAR 031D
ENCODING 797
SWIDTH 0 0
DWIDTH 0 0
BBX 4 4 -2 -5
BITMAP
60
60
F0
F0
ENDCHAR
STARTCHAR 031E
ENCODING 798
SWIDTH 0 0
DWIDTH 0 0
BBX 4 4 -2 -6
BITMAP
F0
F0
60
60
ENDCHAR
STARTCHAR 031F
ENCODING 799
SWIDTH 0 0
DWIDTH 0 0
BBX 4 6 -2 -6
BITMAP
60
60
F0
F0
60
60
ENDCHAR
STARTCHAR 0320
ENCODING 800
SWIDTH 0 0
DWIDTH 0 0
BBX 4 2 -2 -4
BITMAP
F0
F0
ENDCHAR
STARTCHAR 0323
ENCODING 803
SWIDTH 0 0
DWIDTH 0 0
BBX 4 3 -2 -4
BITMAP
60
F0
60
ENDCHAR
STARTCHAR 0324
ENCODING 804
SWIDTH 0 0
DWIDTH 0 0
BBX 8 3 -4 -4
BITMAP
66
E7
66
ENDCHAR
STARTCHAR 0325
ENCODING 805
SWIDTH 0 0
DWIDTH 0 0
BBX 6 5 -3 -6
BITMAP
78
48
CC
48
78
ENDCHAR
STARTCHAR 0326
ENCODING 806
SWIDTH 0 0
DWIDTH 0 0
BBX 4 4 -2 -5
BITMAP
60
30
30
E0
ENDCHAR
STARTCHAR 0327
ENCODING 807
SWIDTH 0 0
DWIDTH 0 0
BBX 4 5 -2 -5
BITMAP
60
60
B0
30
E0
ENDCHAR
STARTCHAR 0328
ENCODING 808
SWIDTH 0 0
DWIDTH 0 0
BBX 4 5 -2 -5
BITMAP
60
40
C0
F0
70
ENDCHAR
STARTCHAR 0329
ENCODING 809
SWIDTH 0 0
DWIDTH 0 0
BBX 2 4 -1 -6
BITMAP
C0
C0
C0
C0
ENDCHAR
STARTCHAR 032A
ENCODING 810
SWIDTH 0 0
DWIDTH 0 0
BBX 6 4 -3 -5
BITMAP
FC
FC
CC
CC
ENDCHAR
STARTCHAR 032C
ENCODING 812
SWIDTH 0 0
DWIDTH 0 0
BBX 8 4 -4 -5
BITMAP
42
E7
3C
3C
ENDCHAR
STARTCHAR 032E
ENCODING 814
SWIDTH 0 0
DWIDTH 0 0
BBX 8 4 -4 -5
BITMAP
C3
66
7E
3C
ENDCHAR
STARTCHAR 032F
ENCODING 815
SWIDTH 0 0
DWIDTH 0 0
BBX 8 4 -4 -6
BITMAP
3C
7E
66
C3
ENDCHAR
STARTCHAR 0330
ENCODING 816
SWIDTH 0 0
DWIDTH 0 0
BBX 8 4 -4 -5
BITMAP
73
FB
DF
CE
ENDCHAR
STARTCHAR 0331
ENCODING 817
SWIDTH 0 0
DWIDTH 0 0
BBX 6 2 -3 -4
BITMAP
FC
FC
ENDCHAR
STARTCHAR 0334
ENCODING 820
SWIDTH 0 0
DWIDTH 0 0
BBX 8 4 -4 4
BITMAP
73
FB
DF
CE
ENDCHAR
STARTCHAR 0339
ENCODING 825
SWIDTH 0 0
DWIDTH 0 0
BBX 3 5 -1 -6
BITMAP
C0
40
60
C0
C0
ENDCHAR
STARTCHAR 033A
ENCODING 826
SWIDTH 0 0
DWIDTH 0 0
BBX 6 4 -3 -5
BITMAP
CC
CC
FC
FC
ENDCHAR
STARTCHAR 033B
ENCODING 827
SWIDTH 0 0
DWIDTH 0 0
BBX 6 5 -3 -6
BITMAP
FC
FC
CC
FC
FC
ENDCHAR
STARTCHAR 033C
ENCODING 828
SWIDTH 0 0
DWIDTH 0 0
BBX 8 3 -4 -5
BITMAP
7E
FF
DB
ENDCHAR
STARTCHAR 033D
ENCODING 829
SWIDTH 0 0
DWIDTH 0 0
BBX 4 4 -2 12
BITMAP
90
60
60
90
ENDCHAR
STARTCHAR 0342
ENCODING 834
SWIDTH 0 0
DWIDTH 0 0
BBX 8 4 -4 13
BITMAP
73
FB
DF
CE
ENDCHAR
STARTCHAR 0345
ENCODING 837
SWIDTH 0 0
DWIDTH 0 0
BBX 3 3 -1 -5
BITMAP
C0
C0
60
ENDCHAR
STARTCHAR 0361
ENCODING 865
SWIDTH 0 0
DWIDTH 0 0
BBX 20 4 -10 12
BITMAP
03FC00
1FFF80
7801E0
C00030
ENDCHAR
STARTCHAR 0374
ENCODING 884
SWIDTH 270 0
DWIDTH 6 0
BBX 3 6 2 9
BITMAP
E0
E0
C0
C0
C0
C0
ENDCHAR
STARTCHAR 0375
ENCODING 885
SWIDTH 270 0
DWIDTH 6 0
BBX 3 6 1 0
BITMAP
60
60
60
60
60
E0
ENDCHAR
STARTCHAR 037A
ENCODING 890
SWIDTH 540 0
DWIDTH 12 0
BBX 3 3 5 -5
BITMAP
C0
C0
60
ENDCHAR
STARTCHAR 037E
ENCODING 894
SWIDTH 270 0
DWIDTH 6 0
BBX 4 15 1 -4
BITMAP
60
F0
60
00
00
00
00
00
60
F0
70
30
30
E0
C0
ENDCHAR
STARTCHAR 0384
ENCODING 900
SWIDTH 540 0
DWIDTH 12 0
BBX 3 5 5 12
BITMAP
60
60
E0
C0
C0
ENDCHAR
STARTCHAR 0385
ENCODING 901
SWIDTH 540 0
DWIDTH 12 0
BBX 8 5 2 12
BITMAP
0C
08
CB
DB
10
ENDCHAR
STARTCHAR 0386
ENCODING 902
SWIDTH 585 0
DWIDTH 13 0
BBX 13 14 0 0
BITMAP
6780
E780
C780
CDC0
CCC0
0CC0
1CE0
1860
1FE0
3FF0
3070
3030
7038
6038
ENDCHAR
STARTCHAR 0387
ENCODING 903
SWIDTH 270 0
DWIDTH 6 0
BBX 4 3 1 8
BITMAP
60
F0
60
ENDCHAR
STARTCHAR 0388
ENCODING 904
SWIDTH 630 0
DWIDTH 14 0
BBX 13 14 0 0
BITMAP
EFF8
CFF8
CC00
CC00
8C00
0C00
0FF0
0FF0
0C00
0C00
0C00
0C00
0FF8
0FF8
ENDCHAR
STARTCHAR 0389
ENCODING 905
SWIDTH 765 0
DWIDTH 17 0
BBX 15 14 0 0
BITMAP
EC0E
CC0E
CC0E
CC0E
8C0E
0C0E
0FFE
0FFE
0C0E
0C0E
0C0E
0C0E
0C0E
0C0E
ENDCHAR
STARTCHAR 038A
ENCODING 906
SWIDTH 360 0
DWIDTH 8 0
BBX 6 14 0 0
BITMAP
EC
CC
CC
CC
8C
0C
0C
0C
0C
0C
0C
0C
0C
0C
ENDCHAR
STARTCHAR 038C
ENCODING 908
SWIDTH 720 0
DWIDTH 16 0
BBX 15 14 0 0
BITMAP
E3F0
C7F8
CE1C
DC0E
9C0E
1806
1806
1806
1806
1C0E
1C0E
0E1C
07F8
03F0
ENDCHAR
STARTCHAR 038E
ENCODING 910
SWIDTH 630 0
DWIDTH 14 0
BBX 14 14 0 0
BITMAP
FC0C
CE1C
CE18
C738
8730
0370
03E0
01E0
01C0
00C0
00C0
00C0
00C0
00C0
ENDCHAR
STARTCHAR 038F
ENCODING 911
SWIDTH 765 0
DWIDTH 17 0
BBX 16 14 0 0
BITMAP
C1F0
C7F8
CE1C
DC0E
9C06
1C06
1807
1C06
1C06
1C0E
0E0C
061C
1F3F
1F3F
ENDCHAR
STARTCHAR 0390
ENCODING 912
SWIDTH 270 0
DWIDTH 6 0
BBX 8 17 -1 0
BITMAP
0C
18
DB
DF
10
00
18
18
18
18
18
18
18
18
18
1E
1E
ENDCHAR
STARTCHAR 0391
ENCODING 913
SWIDTH 540 0
DWIDTH 12 0
BBX 12 14 0 0
BITMAP
0F00
0F00
0F00
1D80
1980
1980
39C0
30C0
3FC0
7FE0
7060
6060
E070
E070
ENDCHAR
STARTCHAR 0392
ENCODING 914
SWIDTH 585 0
DWIDTH 13 0
BBX 10 14 2 0
BITMAP
FF00
FF80
C380
C1C0
C180
C380
FF00
FF80
C1C0
C0C0
C0C0
C1C0
FF80
FF00
ENDCHAR
STARTCHAR 0393
ENCODING 915
SWIDTH 495 0
DWIDTH 11 0
BBX 9 14 2 0
BITMAP
FF80
FF80
C000
C000
C000
C000
C000
C000
C000
C000
C000
C000
C000
C000
ENDCHAR
STARTCHAR 0394
ENCODING 916
SWIDTH 630 0
DWIDTH 14 0
BBX 12 14 1 0
BITMAP
0E00
0F00
1F00
1B80
1980
3980
31C0
30C0
70C0
60E0
E060
E060
FFF0
FFF0
ENDCHAR
STARTCHAR 0395
ENCODING 917
SWIDTH 540 0
DWIDTH 12 0
BBX 9 14 2 0
BITMAP
FF80
FF80
C000
C000
C000
C000
FF00
FF00
C000
C000
C000
C000
FF80
FF80
ENDCHAR
STARTCHAR 0396
ENCODING 918
SWIDTH 540 0
DWIDTH 12 0
BBX 10 14 1 0
BITMAP
7FC0
7FC0
0180
0300
0700
0600
0E00
1C00
1800
3800
7000
6000
FFC0
FFC0
ENDCHAR
STARTCHAR 0397
ENCODING 919
SWIDTH 675 0
DWIDTH 15 0
BBX 11 14 2 0
BITMAP
C0E0
C0E0
C0E0
C0E0
C0E0
C0E0
FFE0
FFE0
C0E0
C0E0
C0E0
C0E0
C0E0
C0E0
ENDCHAR
STARTCHAR 0398
ENCODING 920
SWIDTH 675 0
DWIDTH 15 0
BBX 13 14 1 0
BITMAP
0F80
3FE0
78F0
7070
E030
E038
EFB8
EFB8
E038
E030
7070
78E0
3FE0
0F80
ENDCHAR
STARTCHAR 0399
ENCODING 921
SWIDTH 270 0
DWIDTH 6 0
BBX 2 14 2 0
BITMAP
C0
C0
C0
C0
C0
C0
C0
C0
C0
C0
C0
C0
C0
C0
ENDCHAR
STARTCHAR 039A
ENCODING 922
SWIDTH 585 0
DWIDTH 13 0
BBX 11 14 2 0
BITMAP
C1C0
C380
C300
C700
CE00
DC00
FE00
F600
F700
E300
C380
C1C0
C1C0
C0E0
ENDCHAR
STARTCHAR 039B
ENCODING 923
SWIDTH 540 0
DWIDTH 12 0
BBX 12 14 0 0
BITMAP
0F00
0F00
0F00
1B80
1B80
1980
3980
31C0
30C0
70C0
70E0
60E0
E060
E070
ENDCHAR
STARTCHAR 039C
ENCODING 924
SWIDTH 720 0
DWIDTH 16 0
BBX 13 14 2 0
BITMAP
E078
E078
F078
F0F8
F0F8
D8F8
D9B8
DDB8
CD38
CF38
C738
C638
C638
C038
ENDCHAR
STARTCHAR 039D
ENCODING 925
SWIDTH 630 0
DWIDTH 14 0
BBX 11 14 2 0
BITMAP
E0E0
E0E0
F0E0
F0E0
D8E0
DCE0
CCE0
CEE0
C6E0
C7E0
C3E0
C1E0
C1E0
C0E0
ENDCHAR
STARTCHAR 039E
ENCODING 926
SWIDTH 540 0
DWIDTH 12 0
BBX 10 14 1 0
BITMAP
FFC0
FFC0
0000
0000
0000
0000
3F00
3F00
0000
0000
0000
0000
FFC0
FFC0
ENDCHAR
STARTCHAR 039F
ENCODING 927
SWIDTH 675 0
DWIDTH 15 0
BBX 13 14 1 0
BITMAP
0F80
3FE0
78F0
7070
E030
E038
E038
E038
E038
E030
7070
78E0
3FE0
0F80
ENDCHAR
STARTCHAR 03A0
ENCODING 928
SWIDTH 630 0
DWIDTH 14 0
BBX 11 14 2 0
BITMAP
FFE0
FFE0
C0E0
C0E0
C0E0
C0E0
C0E0
C0E0
C0E0
C0E0
C0E0
C0E0
C0E0
C0E0
ENDCHAR
STARTCHAR 03A1
ENCODING 929
SWIDTH 585 0
DWIDTH 13 0
BBX 10 14 2 0
BITMAP
FE00
FF80
C1C0
C1C0
C1C0
C1C0
C380
FF80
FE00
C000
C000
C000
C000
C000
ENDCHAR
STARTCHAR 03A3
ENCODING 931
SWIDTH 540 0
DWIDTH 12 0
BBX 10 14 1 0
BITMAP
FFC0
FFC0
7000
3000
1800
1C00
0E00
0E00
1C00
3800
3000
7000
FFC0
FFC0
ENDCHAR
STARTCHAR 03A4
ENCODING 932
SWIDTH 540 0
DWIDTH 12 0
BBX 10 14 1 0
BITMAP
FFC0
FFC0
0C00
0C00
0C00
0C00
0C00
0C00
0C00
0C00
0C00
0C00
0C00
0C00
ENDCHAR
STARTCHAR 03A5
ENCODING 933
SWIDTH 495 0
DWIDTH 11 0
BBX 11 14 0 0
BITMAP
E0E0
60C0
71C0
3180
3980
1B00
1B00
0E00
0E00
0E00
0E00
0E00
0E00
0E00
ENDCHAR
STARTCHAR 03A6
ENCODING 934
SWIDTH 720 0
DWIDTH 16 0
BBX 14 15 1 0
BITMAP
0300
0300
0FE0
3FF0
7338
E31C
E30C
E30C
E30C
E30C
631C
7338
3FF0
0FE0
0300
ENDCHAR
STARTCHAR 03A7
ENCODING 935
SWIDTH 540 0
DWIDTH 12 0
BBX 12 14 0 0
BITMAP
70E0
70E0
39C0
1980
1F80
0F00
0F00
0F00
1F00
1B80
39C0
31C0
70E0
E070
ENDCHAR
STARTCHAR 03A8
ENCODING 936
SWIDTH 720 0
DWIDTH 16 0
BBX 14 14 1 0
BITMAP
E31C
E31C
E31C
E31C
E31C
6318
7338
3FF0
1FE0
0300
0300
0300
0300
0300
ENDCHAR
STARTCHAR 03A9
ENCODING 937
SWIDTH 675 0
DWIDTH 15 0
BBX 13 14 1 0
BITMAP
0F80
3FE0
78F0
7030
6038
E038
E038
E038
6038
6030
7070
38E0
F8F8
F8F8
ENDCHAR
STARTCHAR 03AA
ENCODING 938
SWIDTH 270 0
DWIDTH 6 0
BBX 8 19 -1 0
BITMAP
66
E7
66
00
00
18
18
18
18
18
18
18
18
18
18
18
18
18
18
ENDCHAR
STARTCHAR 03AB
ENCODING 939
SWIDTH 495 0
DWIDTH 11 0
BBX 11 19 0 0
BITMAP
3180
3180
3180
0000
0000
E0E0
60C0
71C0
3180
3980
1B00
1B00
0E00
0E00
0E00
0E00
0E00
0E00
0E00
ENDCHAR
STARTCHAR 03AC
ENCODING 940
SWIDTH 585 0
DWIDTH 13 0
BBX 12 17 1 0
BITMAP
0700
0600
0600
0600
0C00
0000
1CE0
7EC0
73C0
E1C0
E1C0
E1C0
E1C0
E180
E3C0
7FE0
3CF0
ENDCHAR
STARTCHAR 03AD
ENCODING 941
SWIDTH 450 0
DWIDTH 10 0
BBX 9 17 1 0
BITMAP
0E00
0E00
0C00
0C00
0C00
0000
3E00
7F00
E100
6000
7C00
7C00
E000
C000
E100
7F80
3E00
ENDCHAR
STARTCHAR 03AE
ENCODING 942
SWIDTH 540 0
DWIDTH 12 0
BBX 10 20 1 -3
BITMAP
0700
0700
0600
0600
0600
0000
E700
6F80
71C0
71C0
61C0
61C0
61C0
61C0
61C0
61C0
61C0
01C0
01C0
01C0
ENDCHAR
STARTCHAR 03AF
ENCODING 943
SWIDTH 270 0
DWIDTH 6 0
BBX 4 17 2 0
BITMAP
60
E0
E0
C0
C0
00
C0
C0
C0
C0
C0
C0
C0
C0
C0
F0
F0
ENDCHAR
STARTCHAR 03B0
ENCODING 944
SWIDTH 495 0
DWIDTH 11 0
BBX 9 17 1 0
BITMAP
0C00
0C00
6F00
6B00
0800
0000
E380
E380
E180
E180
E180
E180
E180
E180
6380
7F00
3E00
ENDCHAR
STARTCHAR 03B1
ENCODING 945
SWIDTH 585 0
DWIDTH 13 0
BBX 12 11 1 0
BITMAP
1CE0
7EC0
73C0
E1C0
E1C0
E1C0
E1C0
E180
E3C0
7FE0
3CF0
ENDCHAR
STARTCHAR 03B2
ENCODING 946
SWIDTH 585 0
DWIDTH 13 0
BBX 10 19 2 -3
BITMAP
3E00
7F00
E380
C380
C380
C300
C700
CF00
CF80
C1C0
C1C0
C1C0
C1C0
E1C0
FF80
DF00
C000
C000
C000
ENDCHAR
STARTCHAR 03B3
ENCODING 947
SWIDTH 495 0
DWIDTH 11 0
BBX 11 14 0 -3
BITMAP
E0E0
70C0
30C0
38C0
19C0
1980
1F80
0F00
0F00
0E00
0E00
0E00
0E00
0E00
ENDCHAR
STARTCHAR 03B4
ENCODING 948
SWIDTH 540 0
DWIDTH 12 0
BBX 10 16 1 0
BITMAP
3F00
7FC0
7080
7000
3800
1C00
1F00
3F80
6380
E1C0
C1C0
C1C0
E1C0
6180
7F80
1E00
ENDCHAR
STARTCHAR 03B5
ENCODING 949
SWIDTH 450 0
DWIDTH 10 0
BBX 9 11 1 0
BITMAP
3E00
7F00
E100
6000
7C00
7C00
E000
C000
E100
7F80
3E00
ENDCHAR
STARTCHAR 03B6
ENCODING 950
SWIDTH 450 0
DWIDTH 10 0
BBX 9 20 1 -4
BITMAP
7F00
7F00
0700
0C00
1C00
3800
7000
6000
E000
E000
E000
E000
E000
F000
7E00
3F00
0380
0300
0300
0700
ENDCHAR
STARTCHAR 03B7
ENCODING 951
SWIDTH 540 0
DWIDTH 12 0
BBX 10 14 1 -3
BITMAP
E700
6F80
71C0
71C0
61C0
61C0
61C0
61C0
61C0
61C0
61C0
01C0
01C0
01C0
ENDCHAR
STARTCHAR 03B8
ENCODING 952
SWIDTH 540 0
DWIDTH 12 0
BBX 10 16 1 0
BITMAP
1E00
3F00
7380
6180
E180
E180
E1C0
FFC0
FFC0
E1C0
E180
6180
6180
7380
3F00
1E00
ENDCHAR
STARTCHAR 03B9
ENCODING 953
SWIDTH 270 0
DWIDTH 6 0
BBX 4 11 2 0
BITMAP
C0
C0
C0
C0
C0
C0
C0
C0
C0
F0
F0
ENDCHAR
STARTCHAR 03BA
ENCODING 954
SWIDTH 495 0
DWIDTH 11 0
BBX 11 11 1 0
BITMAP
E080
63C0
6780
6600
6C00
7E00
7600
7700
6380
6180
61E0
ENDCHAR
STARTCHAR 03BB
ENCODING 955
SWIDTH 540 0
DWIDTH 12 0
BBX 11 16 0 0
BITMAP
7800
7C00
0E00
0600
0600
0700
0F00
0F00
1F80
1980
1980
39C0
30C0
70E0
70E0
E060
ENDCHAR
STARTCHAR 03BC
ENCODING 956
SWIDTH 585 0
DWIDTH 13 0
BBX 10 14 2 -3
BITMAP
C380
C380
C380
C380
C380
C380
C380
C380
E780
FFC0
F9C0
C000
C000
C000
ENDCHAR
STARTCHAR 03BD
ENCODING 957
SWIDTH 495 0
DWIDTH 11 0
BBX 11 11 0 0
BITMAP
E0E0
60C0
70C0
31C0
39C0
1980
1980
1F00
0F00
0E00
0E00
ENDCHAR
STARTCHAR 03BE
ENCODING 958
SWIDTH 450 0
DWIDTH 10 0
BBX 10 20 0 -4
BITMAP
FF80
FF80
1800
3800
3800
3800
1C00
0F00
1F00
3800
7000
7000
7000
7800
3F00
1F80
01C0
01C0
0180
0380
ENDCHAR
STARTCHAR 03BF
ENCODING 959
SWIDTH 540 0
DWIDTH 12 0
BBX 10 11 1 0
BITMAP
1E00
7F80
7380
E1C0
E1C0
E1C0
E1C0
E1C0
7380
7F80
1E00
ENDCHAR
STARTCHAR 03C0
ENCODING 960
SWIDTH 585 0
DWIDTH 13 0
BBX 13 11 0 0
BITMAP
FFF8
FFF8
18E0
18E0
18E0
18E0
18E0
18E0
38E0
3878
3878
ENDCHAR
STARTCHAR 03C1
ENCODING 961
SWIDTH 540 0
DWIDTH 12 0
BBX 9 14 2 -3
BITMAP
3E00
7F00
E380
C380
C180
C180
C180
C380
E380
FF00
DE00
C000
C000
C000
ENDCHAR
STARTCHAR 03C2
ENCODING 962
SWIDTH 450 0
DWIDTH 10 0
BBX 8 15 1 -4
BITMAP
1E
7F
72
E0
E0
E0
E0
E0
70
7C
1E
07
07
06
0E
ENDCHAR
STARTCHAR 03C3
ENCODING 963
SWIDTH 540 0
DWIDTH 12 0
BBX 11 11 1 0
BITMAP
1FE0
7FE0
7300
E180
E1C0
E1C0
E1C0
E1C0
7380
7F00
1E00
ENDCHAR
STARTCHAR 03C4
ENCODING 964
SWIDTH 450 0
DWIDTH 10 0
BBX 9 11 1 0
BITMAP
FF80
FF80
1800
1800
1800
1800
1800
1800
1800
1E00
0F00
ENDCHAR
STARTCHAR 03C5
ENCODING 965
SWIDTH 495 0
DWIDTH 11 0
BBX 9 11 1 0
BITMAP
E380
E380
E180
E180
E180
E180
E180
E180
6380
7F00
3E00
ENDCHAR
STARTCHAR 03C6
ENCODING 966
SWIDTH 720 0
DWIDTH 16 0
BBX 14 17 1 -3
BITMAP
0300
0300
0300
1FC0
3FF0
7338
E318
E31C
E31C
E31C
E318
7338
3FF0
1FC0
0300
0300
0300
ENDCHAR
STARTCHAR 03C7
ENCODING 967
SWIDTH 495 0
DWIDTH 11 0
BBX 11 15 0 -4
BITMAP
E0E0
71C0
3180
3B80
1B00
1F00
0E00
0E00
1F00
1B00
3B80
31C0
70C0
60E0
8040
ENDCHAR
STARTCHAR 03C8
ENCODING 968
SWIDTH 720 0
DWIDTH 16 0
BBX 14 17 1 -3
BITMAP
0300
0300
0300
E338
E318
E31C
E31C
E31C
E31C
E31C
6318
7338
3FF0
1FE0
0300
0300
0300
ENDCHAR
STARTCHAR 03C9
ENCODING 969
SWIDTH 720 0
DWIDTH 16 0
BBX 14 11 1 0
BITMAP
2010
7038
6018
E01C
E31C
C31C
C31C
E31C
E798
7FF8
3CF0
ENDCHAR
STARTCHAR 03CA
ENCODING 970
SWIDTH 270 0
DWIDTH 6 0
BBX 7 16 -1 0
BITMAP
66
E6
66
00
00
18
18
18
18
18
18
18
18
18
1E
1E
ENDCHAR
STARTCHAR 03CB
ENCODING 971
SWIDTH 495 0
DWIDTH 11 0
BBX 9 16 1 0
BITMAP
6300
7700
6300
0000
0000
E380
E380
E180
E180
E180
E180
E180
E180
6380
7F00
3E00
ENDCHAR
STARTCHAR 03CC
ENCODING 972
SWIDTH 540 0
DWIDTH 12 0
BBX 10 17 1 0
BITMAP
0600
0600
0E00
0C00
0C00
0000
1E00
7F80
7380
E1C0
E1C0
E1C0
E1C0
E1C0
7380
7F80
1E00
ENDCHAR
STARTCHAR 03CD
ENCODING 973
SWIDTH 495 0
DWIDTH 11 0
BBX 9 17 1 0
BITMAP
0E00
0E00
0C00
0C00
0800
0000
E380
E380
E180
E180
E180
E180
E180
E180
6380
7F00
3E00
ENDCHAR
STARTCHAR 03CE
ENCODING 974
SWIDTH 720 0
DWIDTH 16 0
BBX 14 17 1 0
BITMAP
0180
0180
0380
0300
0300
0000
2010
7038
6018
E01C
E31C
C31C
C31C
E31C
E798
7FF8
3CF0
ENDCHAR
STARTCHAR 03D0
ENCODING 976
SWIDTH 585 0
DWIDTH 13 0
BBX 10 16 2 0
BITMAP
3E00
7F00
E300
C380
C380
C700
DE00
FE00
FF80
C180
C1C0
C1C0
C1C0
E380
7F80
3E00
ENDCHAR
STARTCHAR 03D1
ENCODING 977
SWIDTH 540 0
DWIDTH 12 0
BBX 10 16 1 0
BITMAP
3E00
7F00
6380
E180
E180
E180
79C0
3FC0
0FC0
61C0
6180
6180
6180
7380
7F00
3E00
ENDCHAR
STARTCHAR 03D5
ENCODING 981
SWIDTH 720 0
DWIDTH 16 0
BBX 14 14 1 -3
BITMAP
21E0
73F8
6338
E31C
E31C
C31C
E31C
E318
7338
3FF0
1FC0
0300
0300
0300
ENDCHAR
STARTCHAR 03D7
ENCODING 983
SWIDTH 495 0
DWIDTH 11 0
BBX 11 15 1 -4
BITMAP
E080
63C0
6780
6E00
6C00
7E00
7600
7700
6380
6380
61C0
01E0
01C0
0380
0700
ENDCHAR
STARTCHAR 03D9
ENCODING 985
SWIDTH 540 0
DWIDTH 12 0
BBX 10 14 1 -3
BITMAP
1E00
7F80
7380
E1C0
E1C0
E1C0
E1C0
E1C0
7380
7F80
3E00
0C00
0C00
0C00
ENDCHAR
STARTCHAR 03DB
ENCODING 987
SWIDTH 495 0
DWIDTH 11 0
BBX 9 15 1 -4
BITMAP
1F80
7F80
7000
E000
E000
E000
E000
E000
7000
7E00
1F00
0300
0300
0300
0600
ENDCHAR
STARTCHAR 03DD
ENCODING 989
SWIDTH 405 0
DWIDTH 9 0
BBX 7 14 2 -3
BITMAP
FE
FE
C0
C0
C0
C0
FC
FC
C0
C0
C0
C0
C0
C0
ENDCHAR
STARTCHAR 03E1
ENCODING 993
SWIDTH 495 0
DWIDTH 11 0
BBX 11 19 0 -4
BITMAP
3000
3800
1C00
0E00
0700
0380
0780
1FC0
7DC0
F0C0
41E0
07E0
1FE0
3CE0
10E0
00E0
00E0
00E0
00E0
ENDCHAR
STARTCHAR 0400
ENCODING 1024
SWIDTH 540 0
DWIDTH 12 0
BBX 9 20 2 0
BITMAP
2000
7000
3800
0C00
0000
0000
FF80
FF80
C000
C000
C000
C000
FF00
FF00
C000
C000
C000
C000
FF80
FF80
ENDCHAR
STARTCHAR 0401
ENCODING 1025
SWIDTH 540 0
DWIDTH 12 0
BBX 9 19 2 0
BITMAP
6300
6700
6300
0000
0000
FF80
FF80
C000
C000
C000
C000
FF00
FF00
C000
C000
C000
C000
FF80
FF80
ENDCHAR
STARTCHAR 0402
ENCODING 1026
SWIDTH 675 0
DWIDTH 15 0
BBX 13 14 1 0
BITMAP
FFE0
FFE0
1C00
1C00
1C00
1FE0
1FF0
1C38
1C18
1C18
1C18
1C38
1CF8
1CE0
ENDCHAR
STARTCHAR 0403
ENCODING 1027
SWIDTH 495 0
DWIDTH 11 0
BBX 9 20 2 0
BITMAP
0200
0700
1C00
0800
0000
0000
FF80
FF80
C000
C000
C000
C000
C000
C000
C000
C000
C000
C000
C000
C000
ENDCHAR
STARTCHAR 0404
ENCODING 1028
SWIDTH 585 0
DWIDTH 13 0
BBX 11 14 1 0
BITMAP
0F80
3FE0
78C0
7000
E000
E000
FF00
FF00
E000
E000
6000
7060
3FE0
0F80
ENDCHAR
STARTCHAR 0405
ENCODING 1029
SWIDTH 540 0
DWIDTH 12 0
BBX 10 14 1 0
BITMAP
1F00
7FC0
7180
E000
6000
7800
3F00
0F80
03C0
01C0
80C0
E1C0
FF80
3F00
ENDCHAR
STARTCHAR 0406
ENCODING 1030
SWIDTH 270 0
DWIDTH 6 0
BBX 2 14 2 0
BITMAP
C0
C0
C0
C0
C0
C0
C0
C0
C0
C0
C0
C0
C0
C0
ENDCHAR
STARTCHAR 0407
ENCODING 1031
SWIDTH 270 0
DWIDTH 6 0
BBX 8 19 -1 0
BITMAP
66
E7
66
00
00
18
18
18
18
18
18
18
18
18
18
18
18
18
18
ENDCHAR
STARTCHAR 0408
ENCODING 1032
SWIDTH 495 0
DWIDTH 11 0
BBX 8 14 1 0
BITMAP
03
03
03
03
03
03
03
03
03
03
87
C7
FE
7C
ENDCHAR
STARTCHAR 0409
ENCODING 1033
SWIDTH 900 0
DWIDTH 20 0
BBX 19 14 0 0
BITMAP
07F000
0FF000
0E3000
0C3000
0C3000
0C3F80
0C3FC0
1C30E0
1C3060
183060
1830E0
3830E0
F03FC0
E03F80
ENDCHAR
STARTCHAR 040A
ENCODING 1034
SWIDTH 900 0
DWIDTH 20 0
BBX 18 14 2 0
BITMAP
C0E000
C0E000
C0E000
C0E000
C0E000
C0E000
FFFE00
FFFF80
C0E380
C0E1C0
C0E1C0
C0E380
C0FF80
C0FE00
ENDCHAR
STARTCHAR 040B
ENCODING 1035
SWIDTH 720 0
DWIDTH 16 0
BBX 13 14 1 0
BITMAP
FFE0
FFE0
1C00
1C00
1C00
1FE0
1FF0
1C38
1C38
1C18
1C18
1C18
1C18
1C18
ENDCHAR
STARTCHAR 040C
ENCODING 1036
SWIDTH 585 0
DWIDTH 13 0
BBX 11 20 2 0
BITMAP
0100
0780
0E00
0400
0000
0000
C0E0
C1E0
C380
C300
C700
C600
FE00
FE00
C700
C700
C380
C1C0
C1C0
C0E0
ENDCHAR
STARTCHAR 040D
ENCODING 1037
SWIDTH 675 0
DWIDTH 15 0
BBX 11 20 2 0
BITMAP
1000
3800
1C00
0600
0000
0000
C0E0
C1E0
C1E0
C360
C360
C6E0
CEE0
CCE0
DCE0
D8E0
F8E0
F0E0
E0E0
E0E0
ENDCHAR
STARTCHAR 040E
ENCODING 1038
SWIDTH 540 0
DWIDTH 12 0
BBX 12 19 0 0
BITMAP
39C0
1980
0F00
0000
0000
E070
6060
70E0
30C0
39C0
19C0
1D80
0F80
0F00
0700
0600
0E00
3C00
3800
ENDCHAR
STARTCHAR 040F
ENCODING 1039
SWIDTH 630 0
DWIDTH 14 0
BBX 11 18 2 -4
BITMAP
C0E0
C0E0
C0E0
C0E0
C0E0
C0E0
C0E0
C0E0
C0E0
C0E0
C0E0
C0E0
FFE0
FFE0
0E00
0C00
0C00
0C00
ENDCHAR
STARTCHAR 0410
ENCODING 1040
SWIDTH 540 0
DWIDTH 12 0
BBX 12 14 0 0
BITMAP
0F00
0F00
0F00
1D80
1980
1980
39C0
30C0
3FC0
7FE0
7060
6060
E070
E070
ENDCHAR
STARTCHAR 0411
ENCODING 1041
SWIDTH 585 0
DWIDTH 13 0
BBX 10 14 2 0
BITMAP
FF80
FF80
C000
C000
C000
C000
FF80
FFC0
C1C0
C0C0
C0C0
C1C0
FF80
FF00
ENDCHAR
STARTCHAR 0412
ENCODING 1042
SWIDTH 585 0
DWIDTH 13 0
BBX 10 14 2 0
BITMAP
FF00
FF80
C380
C1C0
C180
C380
FF00
FF80
C1C0
C0C0
C0C0
C1C0
FF80
FF00
ENDCHAR
STARTCHAR 0413
ENCODING 1043
SWIDTH 495 0
DWIDTH 11 0
BBX 9 14 2 0
BITMAP
FF80
FF80
C000
C000
C000
C000
C000
C000
C000
C000
C000
C000
C000
C000
ENDCHAR
STARTCHAR 0414
ENCODING 1044
SWIDTH 630 0
DWIDTH 14 0
BBX 14 18 0 -4
BITMAP
0FF0
0FF0
0C30
0C30
0C30
1C30
1C30
1830
1830
1830
3830
3030
FFFC
FFFC
E01C
601C
601C
601C
ENDCHAR
STARTCHAR 0415
ENCODING 1045
SWIDTH 540 0
DWIDTH 12 0
BBX 9 14 2 0
BITMAP
FF80
FF80
C000
C000
C000
C000
FF00
FF00
C000
C000
C000
C000
FF80
FF80
ENDCHAR
STARTCHAR 0416
ENCODING 1046
SWIDTH 810 0
DWIDTH 18 0
BBX 18 14 0 0
BITMAP
E0C1C0
70C3C0
38C300
18C600
1CC600
0CCE00
0FFC00
0FFC00
1CCE00
18C700
38C300
30C380
70C180
E0C1C0
ENDCHAR
STARTCHAR 0417
ENCODING 1047
SWIDTH 540 0
DWIDTH 12 0
BBX 11 14 1 0
BITMAP
3F00
FF80
61C0
01C0
01C0
0180
1F00
1F80
01C0
00C0
80E0
E1C0
FFC0
3F00
ENDCHAR
STARTCHAR 0418
ENCODING 1048
SWIDTH 675 0
DWIDTH 15 0
BBX 11 14 2 0
BITMAP
C0E0
C1E0
C1E0
C360
C360
C6E0
CEE0
CCE0
DCE0
D8E0
F8E0
F0E0
E0E0
E0E0
ENDCHAR
STARTCHAR 0419
ENCODING 1049
SWIDTH 675 0
DWIDTH 15 0
BBX 11 19 2 0
BITMAP
3180
3380
1F00
0000
0000
C0E0
C1E0
C1E0
C360
C360
C6E0
CEE0
CCE0
DCE0
D8E0
F8E0
F0E0
E0E0
E0E0
ENDCHAR
STARTCHAR 041A
ENCODING 1050
SWIDTH 585 0
DWIDTH 13 0
BBX 11 14 2 0
BITMAP
C0E0
C1E0
C380
C300
C700
C600
FE00
FE00
C700
C700
C380
C1C0
C1C0
C0E0
ENDCHAR
STARTCHAR 041B
ENCODING 1051
SWIDTH 630 0
DWIDTH 14 0
BBX 12 14 0 0
BITMAP
0FF0
0FF0
0C30
0C30
0C30
0C30
1C30
1830
1830
1830
3830
3030
F030
E030
ENDCHAR
STARTCHAR 041C
ENCODING 1052
SWIDTH 720 0
DWIDTH 16 0
BBX 13 14 2 0
BITMAP
E078
E078
F078
F0F8
F0F8
D8F8
D9B8
DDB8
CD38
CF38
C738
C638
C638
C038
ENDCHAR
STARTCHAR 041D
ENCODING 1053
SWIDTH 675 0
DWIDTH 15 0
BBX 11 14 2 0
BITMAP
C0E0
C0E0
C0E0
C0E0
C0E0
C0E0
FFE0
FFE0
C0E0
C0E0
C0E0
C0E0
C0E0
C0E0
ENDCHAR
STARTCHAR 041E
ENCODING 1054
SWIDTH 675 0
DWIDTH 15 0
BBX 13 14 1 0
BITMAP
0F80
3FE0
78F0
7070
E030
E038
E038
E038
E038
E030
7070
78E0
3FE0
0F80
ENDCHAR
STARTCHAR 041F
ENCODING 1055
SWIDTH 630 0
DWIDTH 14 0
BBX 11 14 2 0
BITMAP
FFE0
FFE0
C0E0
C0E0
C0E0
C0E0
C0E0
C0E0
C0E0
C0E0
C0E0
C0E0
C0E0
C0E0
ENDCHAR
STARTCHAR 0420
ENCODING 1056
SWIDTH 585 0
DWIDTH 13 0
BBX 10 14 2 0
BITMAP
FE00
FF80
C1C0
C1C0
C1C0
C1C0
C380
FF80
FE00
C000
C000
C000
C000
C000
ENDCHAR
STARTCHAR 0421
ENCODING 1057
SWIDTH 585 0
DWIDTH 13 0
BBX 11 14 1 0
BITMAP
0F80
3FE0
78C0
7000
E000
E000
E000
E000
E000
E000
7000
7860
3FE0
0F80
ENDCHAR
STARTCHAR 0422
ENCODING 1058
SWIDTH 540 0
DWIDTH 12 0
BBX 10 14 1 0
BITMAP
FFC0
FFC0
0C00
0C00
0C00
0C00
0C00
0C00
0C00
0C00
0C00
0C00
0C00
0C00
ENDCHAR
STARTCHAR 0423
ENCODING 1059
SWIDTH 540 0
DWIDTH 12 0
BBX 12 14 0 0
BITMAP
E070
6060
70E0
30C0
39C0
19C0
1D80
0F80
0F00
0700
0600
0E00
3C00
3800
ENDCHAR
STARTCHAR 0424
ENCODING 1060
SWIDTH 720 0
DWIDTH 16 0
BBX 14 14 1 0
BITMAP
0300
1FE0
3FF8
733C
E30C
C30C
C30C
E30C
E30C
733C
3FF8
1FE0
0300
0300
ENDCHAR
STARTCHAR 0425
ENCODING 1061
SWIDTH 540 0
DWIDTH 12 0
BBX 12 14 0 0
BITMAP
70E0
70E0
39C0
1980
1F80
0F00
0F00
0F00
1F00
1B80
39C0
31C0
70E0
E070
ENDCHAR
STARTCHAR 0426
ENCODING 1062
SWIDTH 630 0
DWIDTH 14 0
BBX 12 18 2 -4
BITMAP
C0C0
C0C0
C0C0
C0C0
C0C0
C0C0
C0C0
C0C0
C0C0
C0C0
C0C0
C0C0
FFF0
FFF0
0070
0070
0070
0070
ENDCHAR
STARTCHAR 0427
ENCODING 1063
SWIDTH 630 0
DWIDTH 14 0
BBX 11 14 1 0
BITMAP
E0E0
E0E0
E0E0
E0E0
60E0
70E0
7FE0
1FE0
00E0
00E0
00E0
00E0
00E0
00E0
ENDCHAR
STARTCHAR 0428
ENCODING 1064
SWIDTH 900 0
DWIDTH 20 0
BBX 16 14 2 0
BITMAP
C187
C187
C187
C187
C187
C187
C187
C187
C187
C187
C187
C187
FFFF
FFFF
ENDCHAR
STARTCHAR 0429
ENCODING 1065
SWIDTH 900 0
DWIDTH 20 0
BBX 17 18 2 -4
BITMAP
C18700
C18700
C18700
C18700
C18700
C18700
C18700
C18700
C18700
C18700
C18700
C18700
FFFF80
FFFF80
000180
000180
000180
000180
ENDCHAR
STARTCHAR 042A
ENCODING 1066
SWIDTH 720 0
DWIDTH 16 0
BBX 14 14 1 0
BITMAP
FE00
FE00
0E00
0E00
0E00
0FE0
0FF8
0E1C
0E1C
0E0C
0E1C
0E1C
0FF8
0FF0
ENDCHAR
STARTCHAR 042B
ENCODING 1067
SWIDTH 810 0
DWIDTH 18 0
BBX 14 14 2 0
BITMAP
C00C
C00C
C00C
C00C
C00C
FE0C
FF8C
C38C
C1CC
C1CC
C1CC
C38C
FF8C
FE0C
ENDCHAR
STARTCHAR 042C
ENCODING 1068
SWIDTH 585 0
DWIDTH 13 0
BBX 10 14 2 0
BITMAP
C000
C000
C000
C000
C000
FF00
FF80
C1C0
C1C0
C0C0
C1C0
C1C0
FF80
FF00
ENDCHAR
STARTCHAR 042D
ENCODING 1069
SWIDTH 585 0
DWIDTH 13 0
BBX 11 14 1 0
BITMAP
3E00
FF80
4380
01C0
00C0
00E0
1FE0
1FE0
00E0
00C0
01C0
C380
FF80
3E00
ENDCHAR
STARTCHAR 042E
ENCODING 1070
SWIDTH 900 0
DWIDTH 20 0
BBX 17 14 2 0
BITMAP
C07C00
C1FE00
C38700
C38380
C30380
C70180
FF0180
FF0180
C70180
C70380
C38380
C3C700
C1FE00
C07C00
ENDCHAR
STARTCHAR 042F
ENCODING 1071
SWIDTH 585 0
DWIDTH 13 0
BBX 11 14 0 0
BITMAP
1FE0
3FE0
7060
7060
7060
7860
3FE0
0FE0
0C60
1C60
1860
3860
7060
F060
ENDCHAR
STARTCHAR 0430
ENCODING 1072
SWIDTH 495 0
DWIDTH 11 0
BBX 9 11 1 0
BITMAP
3E00
FF00
4380
0380
1F80
7F80
F380
E380
E780
FF80
7980
ENDCHAR
STARTCHAR 0431
ENCODING 1073
SWIDTH 540 0
DWIDTH 12 0
BBX 10 16 1 0
BITMAP
0080
0FC0
3FC0
7800
6000
6000
EF00
FF80
F1C0
E1C0
C0C0
E0C0
E1C0
71C0
3F80
1E00
ENDCHAR
STARTCHAR 0432
ENCODING 1074
SWIDTH 495 0
DWIDTH 11 0
BBX 9 11 2 0
BITMAP
FE00
FF00
C300
C300
FE00
FF00
C300
C380
C380
FF00
FE00
ENDCHAR
STARTCHAR 0433
ENCODING 1075
SWIDTH 405 0
DWIDTH 9 0
BBX 7 11 2 0
BITMAP
FE
FE
C0
C0
C0
C0
C0
C0
C0
C0
C0
ENDCHAR
STARTCHAR 0434
ENCODING 1076
SWIDTH 540 0
DWIDTH 12 0
BBX 12 14 0 -3
BITMAP
1FC0
1FC0
18C0
38C0
38C0
30C0
30C0
30C0
70C0
FFF0
FFF0
E070
E070
6070
ENDCHAR
STARTCHAR 0435
ENCODING 1077
SWIDTH 495 0
DWIDTH 11 0
BBX 9 11 1 0
BITMAP
1E00
7F00
6180
C180
FF80
FF80
C000
E000
7100
7F80
1F00
ENDCHAR
STARTCHAR 0436
ENCODING 1078
SWIDTH 720 0
DWIDTH 16 0
BBX 16 11 0 0
BITMAP
6186
718E
3998
1998
1FF0
1FF8
1998
399C
318C
718E
E187
ENDCHAR
STARTCHAR 0437
ENCODING 1079
SWIDTH 450 0
DWIDTH 10 0
BBX 8 11 1 0
BITMAP
7C
FF
87
07
3E
3F
03
03
C7
FF
7C
ENDCHAR
STARTCHAR 0438
ENCODING 1080
SWIDTH 585 0
DWIDTH 13 0
BBX 9 11 2 0
BITMAP
C380
C380
C780
CF80
CD80
D980
D980
F180
F180
E180
C180
ENDCHAR
STARTCHAR 0439
ENCODING 1081
SWIDTH 585 0
DWIDTH 13 0
BBX 9 16 2 0
BITMAP
6300
6300
3E00
0000
0000
C380
C380
C780
CF80
CD80
D980
D980
F180
F180
E180
C180
ENDCHAR
STARTCHAR 043A
ENCODING 1082
SWIDTH 495 0
DWIDTH 11 0
BBX 9 11 2 0
BITMAP
C380
C700
CE00
CC00
FC00
FC00
CE00
C600
C700
C300
C380
ENDCHAR
STARTCHAR 043B
ENCODING 1083
SWIDTH 540 0
DWIDTH 12 0
BBX 11 11 0 0
BITMAP
1FE0
1FE0
18E0
18E0
18E0
18E0
38E0
38E0
30E0
F0E0
E0E0
ENDCHAR
STARTCHAR 043C
ENCODING 1084
SWIDTH 630 0
DWIDTH 14 0
BBX 11 11 2 0
BITMAP
E0E0
E1E0
E1E0
F360
F3E0
DBE0
DEE0
DEE0
CCE0
CCE0
C0E0
ENDCHAR
STARTCHAR 043D
ENCODING 1085
SWIDTH 585 0
DWIDTH 13 0
BBX 9 11 2 0
BITMAP
C380
C380
C380
C380
FF80
FF80
C380
C380
C380
C380
C380
ENDCHAR
STARTCHAR 043E
ENCODING 1086
SWIDTH 540 0
DWIDTH 12 0
BBX 10 11 1 0
BITMAP
1E00
7F80
7380
E1C0
E1C0
E0C0
E0C0
E1C0
7380
7F80
1E00
ENDCHAR
STARTCHAR 043F
ENCODING 1087
SWIDTH 540 0
DWIDTH 12 0
BBX 9 11 2 0
BITMAP
FF80
FF80
C380
C380
C380
C380
C380
C380
C380
C380
C380
ENDCHAR
STARTCHAR 0440
ENCODING 1088
SWIDTH 540 0
DWIDTH 12 0
BBX 9 16 2 -5
BITMAP
DE00
FF00
E380
C180
C180
C180
C180
C380
E380
FF00
DE00
C000
C000
C000
C000
C000
ENDCHAR
STARTCHAR 0441
ENCODING 1089
SWIDTH 450 0
DWIDTH 10 0
BBX 9 11 1 0
BITMAP
1E00
7F00
7200
E000
E000
E000
E000
E000
7100
7F80
1E00
ENDCHAR
STARTCHAR 0442
ENCODING 1090
SWIDTH 450 0
DWIDTH 10 0
BBX 9 11 1 0
BITMAP
FF80
FF80
1C00
1C00
1C00
1C00
1C00
1C00
1C00
1C00
1C00
ENDCHAR
STARTCHAR 0443
ENCODING 1091
SWIDTH 495 0
DWIDTH 11 0
BBX 11 16 0 -5
BITMAP
E0E0
60C0
71C0
3180
3180
3980
1B00
1B00
1F00
0E00
0E00
0E00
0C00
1C00
7800
7000
ENDCHAR
STARTCHAR 0444
ENCODING 1092
SWIDTH 765 0
DWIDTH 17 0
BBX 15 21 1 -5
BITMAP
0380
0380
0380
0380
0380
3F78
7FFC
639C
E30E
E30E
E30E
E30E
E30C
E39C
7FF8
3F70
0380
0380
0380
0380
0380
ENDCHAR
STARTCHAR 0445
ENCODING 1093
SWIDTH 495 0
DWIDTH 11 0
BBX 10 11 0 0
BITMAP
71C0
7180
3B80
1B00
1E00
0E00
1E00
3F00
3380
7180
E1C0
ENDCHAR
STARTCHAR 0446
ENCODING 1094
SWIDTH 585 0
DWIDTH 13 0
BBX 10 14 2 -3
BITMAP
C380
C380
C380
C380
C380
C380
C380
C380
C380
FFC0
FFC0
00C0
00C0
00C0
ENDCHAR
STARTCHAR 0447
ENCODING 1095
SWIDTH 540 0
DWIDTH 12 0
BBX 9 11 1 0
BITMAP
E180
E180
E180
E180
E180
7F80
3F80
0180
0180
0180
0180
ENDCHAR
STARTCHAR 0448
ENCODING 1096
SWIDTH 765 0
DWIDTH 17 0
BBX 13 11 2 0
BITMAP
C718
C718
C718
C718
C718
C718
C718
C718
C718
FFF8
FFF8
ENDCHAR
STARTCHAR 0449
ENCODING 1097
SWIDTH 765 0
DWIDTH 17 0
BBX 15 14 2 -3
BITMAP
C718
C718
C718
C718
C718
C718
C718
C718
C718
FFFE
FFFE
0006
0006
0006
ENDCHAR
STARTCHAR 044A
ENCODING 1098
SWIDTH 585 0
DWIDTH 13 0
BBX 12 11 1 0
BITMAP
FC00
FC00
1C00
1C00
1FC0
1FE0
1C60
1C70
1C60
1FE0
1FC0
ENDCHAR
STARTCHAR 044B
ENCODING 1099
SWIDTH 720 0
DWIDTH 16 0
BBX 12 11 2 0
BITMAP
C070
C070
C070
C070
FC70
FE70
C770
C770
C770
FE70
FC70
ENDCHAR
STARTCHAR 044C
ENCODING 1100
SWIDTH 495 0
DWIDTH 11 0
BBX 8 11 2 0
BITMAP
C0
C0
C0
C0
FC
FF
C7
C3
C7
FF
FC
ENDCHAR
STARTCHAR 044D
ENCODING 1101
SWIDTH 450 0
DWIDTH 10 0
BBX 9 11 0 0
BITMAP
3E00
7F00
4380
0180
1F80
1F80
0180
0380
4380
7F00
BE00
ENDCHAR
STARTCHAR 044E
ENCODING 1102
SWIDTH 765 0
DWIDTH 17 0
BBX 14 11 2 0
BITMAP
C1E0
C7F0
C638
CE18
FC1C
FC1C
CC1C
CE18
C638
C3F0
C1E0
ENDCHAR
STARTCHAR 044F
ENCODING 1103
SWIDTH 540 0
DWIDTH 12 0
BBX 10 11 0 0
BITMAP
1FC0
3FC0
31C0
71C0
31C0
3FC0
0FC0
1DC0
39C0
31C0
F1C0
ENDCHAR
STARTCHAR 0450
ENCODING 1104
SWIDTH 495 0
DWIDTH 11 0
BBX 9 18 1 0
BITMAP
2000
7000
3800
1C00
0800
0000
0000
1E00
7F00
6180
C180
FF80
FF80
C000
E000
7100
7F80
1F00
ENDCHAR
STARTCHAR 0451
ENCODING 1105
SWIDTH 495 0
DWIDTH 11 0
BBX 9 16 1 0
BITMAP
3300
7300
3300
0000
0000
1E00
7F00
6180
C180
FF80
FF80
C000
E000
7100
7F80
1F00
ENDCHAR
STARTCHAR 0452
ENCODING 1106
SWIDTH 540 0
DWIDTH 12 0
BBX 11 21 0 -5
BITMAP
3000
3000
FF00
3000
3000
3380
3FC0
38E0
30E0
3060
3060
3060
3060
3060
3060
3060
00E0
00E0
01C0
07C0
0780
ENDCHAR
STARTCHAR 0453
ENCODING 1107
SWIDTH 405 0
DWIDTH 9 0
BBX 7 18 2 0
BITMAP
04
0E
1C
38
10
00
00
FE
FE
C0
C0
C0
C0
C0
C0
C0
C0
C0
ENDCHAR
STARTCHAR 0454
ENCODING 1108
SWIDTH 450 0
DWIDTH 10 0
BBX 9 11 1 0
BITMAP
1E00
7F00
6100
E000
FE00
FE00
C000
E000
7100
7F80
1E00
ENDCHAR
STARTCHAR 0455
ENCODING 1109
SWIDTH 405 0
DWIDTH 9 0
BBX 8 11 1 0
BITMAP
3C
7F
E2
E0
F0
3E
0F
07
C7
FE
7C
ENDCHAR
STARTCHAR 0456
ENCODING 1110
SWIDTH 270 0
DWIDTH 6 0
BBX 3 16 1 0
BITMAP
60
E0
60
00
00
60
60
60
60
60
60
60
60
60
60
60
ENDCHAR
STARTCHAR 0457
ENCODING 1111
SWIDTH 270 0
DWIDTH 6 0
BBX 7 16 -1 0
BITMAP
66
E6
66
00
00
18
18
18
18
18
18
18
18
18
18
18
ENDCHAR
STARTCHAR 0458
ENCODING 1112
SWIDTH 270 0
DWIDTH 6 0
BBX 5 21 -1 -5
BITMAP
18
38
18
00
00
18
18
18
18
18
18
18
18
18
18
18
18
18
38
F8
F0
ENDCHAR
STARTCHAR 0459
ENCODING 1113
SWIDTH 765 0
DWIDTH 17 0
BBX 16 11 0 0
BITMAP
1FC0
1FC0
18C0
18C0
18FC
18FE
18C7
38C7
30C7
70FE
E0FC
ENDCHAR
STARTCHAR 045A
ENCODING 1114
SWIDTH 765 0
DWIDTH 17 0
BBX 14 11 2 0
BITMAP
C380
C380
C380
C380
FFF0
FFFC
C39C
C38C
C39C
C3FC
C3F0
ENDCHAR
STARTCHAR 045B
ENCODING 1115
SWIDTH 540 0
DWIDTH 12 0
BBX 11 16 0 0
BITMAP
3000
3000
FF00
3000
3000
3000
37C0
3FC0
38E0
30E0
30E0
30E0
30E0
30E0
30E0
30E0
ENDCHAR
STARTCHAR 045C
ENCODING 1116
SWIDTH 495 0
DWIDTH 11 0
BBX 9 18 2 0
BITMAP
0200
0700
0E00
1C00
0800
0000
0000
C380
C700
CE00
CC00
FC00
FC00
CE00
C600
C700
C300
C380
ENDCHAR
STARTCHAR 045D
ENCODING 1117
SWIDTH 585 0
DWIDTH 13 0
BBX 9 18 2 0
BITMAP
2000
7000
3800
1800
0C00
0000
0000
C380
C380
C780
CF80
CD80
D980
D980
F180
F180
E180
C180
ENDCHAR
STARTCHAR 045E
ENCODING 1118
SWIDTH 495 0
DWIDTH 11 0
BBX 11 21 0 -5
BITMAP
3180
3180
1F00
0000
0000
E0E0
60C0
71C0
3180
3180
3980
1B00
1B00
1F00
0E00
0E00
0E00
0C00
1C00
7800
7000
ENDCHAR
STARTCHAR 045F
ENCODING 1119
SWIDTH 585 0
DWIDTH 13 0
BBX 9 14 2 -3
BITMAP
C380
C380
C380
C380
C380
C380
C380
C380
C380
FF80
FF80
1C00
1800
1800
ENDCHAR
STARTCHAR 0462
ENCODING 1122
SWIDTH 630 0
DWIDTH 14 0
BBX 12 15 1 0
BITMAP
3800
3800
FFC0
FFC0
3800
3800
3800
3F80
3FE0
3870
3870
3870
38E0
3FE0
3F80
ENDCHAR
STARTCHAR 0463
ENCODING 1123
SWIDTH 585 0
DWIDTH 13 0
BBX 11 14 1 0
BITMAP
1800
1800
FF80
FF80
1800
1800
1800
1F80
1FE0
18E0
1860
18E0
1FE0
1F80
ENDCHAR
STARTCHAR 0472
ENCODING 1138
SWIDTH 675 0
DWIDTH 15 0
BBX 13 14 1 0
BITMAP
0F80
3FE0
78F0
7070
E030
E038
FFF8
FFF8
E038
E030
6070
70F0
3FE0
0F80
ENDCHAR
STARTCHAR 0473
ENCODING 1139
SWIDTH 540 0
DWIDTH 12 0
BBX 10 11 1 0
BITMAP
1E00
7F80
6180
E0C0
FFC0
FFC0
C0C0
E1C0
6180
7F80
1E00
ENDCHAR
STARTCHAR 0474
ENCODING 1140
SWIDTH 540 0
DWIDTH 12 0
BBX 13 14 0 0
BITMAP
E038
E078
60E0
70E0
70C0
30C0
31C0
3980
1980
1980
1F80
0F00
0F00
0F00
ENDCHAR
STARTCHAR 0475
ENCODING 1141
SWIDTH 495 0
DWIDTH 11 0
BBX 12 11 0 0
BITMAP
E070
60E0
71C0
7180
3180
3380
3B00
1B00
1B00
0F00
0E00
ENDCHAR
STARTCHAR 0490
ENCODING 1168
SWIDTH 495 0
DWIDTH 11 0
BBX 9 19 2 0
BITMAP
0180
0380
0380
0380
0380
FF80
FF80
C000
C000
C000
C000
C000
C000
C000
C000
C000
C000
C000
C000
ENDCHAR
STARTCHAR 0491
ENCODING 1169
SWIDTH 405 0
DWIDTH 9 0
BBX 7 15 2 0
BITMAP
06
06
06
06
FE
FE
C0
C0
C0
C0
C0
C0
C0
C0
C0
ENDCHAR
STARTCHAR 0492
ENCODING 1170
SWIDTH 540 0
DWIDTH 12 0
BBX 10 14 1 0
BITMAP
7FC0
7FC0
7000
7000
7000
7000
FE00
FE00
7000
7000
7000
7000
7000
7000
ENDCHAR
STARTCHAR 0493
ENCODING 1171
SWIDTH 450 0
DWIDTH 10 0
BBX 8 11 1 0
BITMAP
7F
7F
70
70
70
FC
FC
70
70
70
70
ENDCHAR
STARTCHAR 0496
ENCODING 1174
SWIDTH 855 0
DWIDTH 19 0
BBX 19 18 0 -4
BITMAP
E0C1C0
70C3C0
38C300
18C600
1CC600
0CCE00
0FFC00
0FFC00
1CCE00
18C700
38C300
30C380
70C1E0
E0C1E0
0000E0
0000E0
0000E0
0000E0
ENDCHAR
STARTCHAR 0497
ENCODING 1175
SWIDTH 765 0
DWIDTH 17 0
BBX 16 14 0 -3
BITMAP
6186
718E
3998
1998
1FF0
1FF8
1998
399C
318C
718F
E187
0003
0003
0003
ENDCHAR
STARTCHAR 0498
ENCODING 1176
SWIDTH 540 0
DWIDTH 12 0
BBX 11 18 1 -4
BITMAP
3F00
FF80
61C0
01C0
01C0
0180
1F00
1F80
01C0
00C0
80E0
E1C0
FFC0
3F00
0C00
0C00
0C00
0C00
ENDCHAR
STARTCHAR 0499
ENCODING 1177
SWIDTH 450 0
DWIDTH 10 0
BBX 8 14 1 -3
BITMAP
7C
FF
87
07
3E
3E
03
03
C7
FF
7E
18
18
18
ENDCHAR
STARTCHAR 049A
ENCODING 1178
SWIDTH 630 0
DWIDTH 14 0
BBX 12 18 2 -4
BITMAP
C0E0
C1E0
C380
C300
C700
C600
FE00
FE00
C700
C700
C380
C1C0
C1F0
C0F0
0070
0070
0070
0070
ENDCHAR
STARTCHAR 049B
ENCODING 1179
SWIDTH 540 0
DWIDTH 12 0
BBX 10 15 2 -4
BITMAP
C380
C700
CE00
CC00
FC00
FC00
CC00
C600
C700
C3C0
C3C0
00C0
00C0
00C0
00C0
ENDCHAR
STARTCHAR 04A0
ENCODING 1184
SWIDTH 720 0
DWIDTH 16 0
BBX 15 14 1 0
BITMAP
FC0E
FC1C
0C38
0C30
0C70
0C60
0FC0
0FE0
0C60
0C70
0C38
0C18
0C1C
0C0E
ENDCHAR
STARTCHAR 04A1
ENCODING 1185
SWIDTH 630 0
DWIDTH 14 0
BBX 13 11 1 0
BITMAP
FC70
FC70
1CC0
1DC0
1F80
1F80
1CC0
1CE0
1C60
1C70
1C38
ENDCHAR
STARTCHAR 04A2
ENCODING 1186
SWIDTH 675 0
DWIDTH 15 0
BBX 12 18 2 -4
BITMAP
C0E0
C0E0
C0E0
C0E0
C0E0
C0E0
FFE0
FFE0
C0E0
C0E0
C0E0
C0E0
C0F0
C0F0
0030
0030
0030
0030
ENDCHAR
STARTCHAR 04A3
ENCODING 1187
SWIDTH 585 0
DWIDTH 13 0
BBX 11 14 2 -3
BITMAP
C380
C380
C380
C380
FF80
FF80
C380
C380
C380
C3E0
C3E0
00E0
00C0
00C0
ENDCHAR
STARTCHAR 04AA
ENCODING 1194
SWIDTH 585 0
DWIDTH 13 0
BBX 11 18 1 -4
BITMAP
0F80
3FE0
78C0
7000
E000
E000
E000
E000
E000
E000
7000
7860
3FE0
0F80
0700
0700
0700
0700
ENDCHAR
STARTCHAR 04AB
ENCODING 1195
SWIDTH 450 0
DWIDTH 10 0
BBX 9 14 1 -3
BITMAP
1E00
3F00
7200
E000
E000
E000
E000
E000
7100
7F00
3F80
0C00
0C00
0C00
ENDCHAR
STARTCHAR 04AE
ENCODING 1198
SWIDTH 495 0
DWIDTH 11 0
BBX 11 14 0 0
BITMAP
E0E0
60C0
71C0
3180
3980
1B00
1B00
0E00
0E00
0E00
0E00
0E00
0E00
0E00
ENDCHAR
STARTCHAR 04AF
ENCODING 1199
SWIDTH 495 0
DWIDTH 11 0
BBX 11 16 0 -5
BITMAP
E0E0
60C0
71C0
3180
3180
3180
1B00
1B00
1B00
0E00
0E00
0E00
0E00
0E00
0E00
0E00
ENDCHAR
STARTCHAR 04B0
ENCODING 1200
SWIDTH 495 0
DWIDTH 11 0
BBX 11 14 0 0
BITMAP
E0E0
60C0
71C0
3180
3980
1B00
1B00
0F00
7FC0
7FC0
0E00
0E00
0E00
0E00
ENDCHAR
STARTCHAR 04B1
ENCODING 1201
SWIDTH 495 0
DWIDTH 11 0
BBX 11 16 0 -5
BITMAP
E0E0
60C0
71C0
3180
3180
3180
1B00
1B00
1B00
0E00
7FC0
0E00
0E00
0E00
0E00
0E00
ENDCHAR
STARTCHAR 04B2
ENCODING 1202
SWIDTH 585 0
DWIDTH 13 0
BBX 12 18 0 -4
BITMAP
70E0
70E0
39C0
1980
1F80
0F00
0F00
0F00
1F00
1B80
39C0
31C0
70F0
6070
8030
0030
0030
0030
ENDCHAR
STARTCHAR 04B3
ENCODING 1203
SWIDTH 495 0
DWIDTH 11 0
BBX 11 14 0 -3
BITMAP
71C0
7180
3B80
1B00
1E00
0E00
1E00
3F00
3380
71E0
61E0
8060
0060
0060
ENDCHAR
STARTCHAR 04B6
ENCODING 1206
SWIDTH 630 0
DWIDTH 14 0
BBX 12 18 1 -4
BITMAP
E0E0
E0E0
E0E0
E0E0
60E0
70E0
7FE0
1FE0
00E0
00E0
00E0
00E0
00F0
00F0
0030
0030
0030
0030
ENDCHAR
STARTCHAR 04B7
ENCODING 1207
SWIDTH 540 0
DWIDTH 12 0
BBX 11 15 1 -4
BITMAP
E180
E180
E180
E180
E180
7F80
3F80
0180
0180
01E0
01E0
00E0
00E0
00E0
00E0
ENDCHAR
STARTCHAR 04BA
ENCODING 1210
SWIDTH 630 0
DWIDTH 14 0
BBX 10 14 2 0
BITMAP
C000
C000
C000
C000
C000
FF00
FF80
C1C0
C1C0
C0C0
C0C0
C0C0
C0C0
C0C0
ENDCHAR
STARTCHAR 04BB
ENCODING 1211
SWIDTH 540 0
DWIDTH 12 0
BBX 9 16 2 0
BITMAP
C000
C000
C000
C000
C000
CE00
FF00
E380
C380
C380
C380
C380
C380
C380
C380
C380
ENDCHAR
STARTCHAR 04C0
ENCODING 1216
SWIDTH 270 0
DWIDTH 6 0
BBX 2 14 2 0
BITMAP
C0
C0
C0
C0
C0
C0
C0
C0
C0
C0
C0
C0
C0
C0
ENDCHAR
STARTCHAR 04C1
ENCODING 1217
SWIDTH 810 0
DWIDTH 18 0
BBX 18 19 0 0
BITMAP
031800
033000
01E000
000000
000000
E0C1C0
70C3C0
38C300
18C600
1CC600
0CCE00
0FFC00
0FFC00
1CCE00
18C700
38C300
30C380
70C180
E0C1C0
ENDCHAR
STARTCHAR 04C2
ENCODING 1218
SWIDTH 720 0
DWIDTH 16 0
BBX 16 16 0 0
BITMAP
0C70
0660
03C0
0000
0000
6186
718E
3998
1998
1FF0
1FF8
1998
399C
318C
718E
E187
ENDCHAR
STARTCHAR 04CF
ENCODING 1231
SWIDTH 270 0
DWIDTH 6 0
BBX 3 16 2 0
BITMAP
C0
C0
C0
C0
C0
C0
C0
C0
C0
C0
C0
C0
C0
C0
E0
E0
ENDCHAR
STARTCHAR 04D0
ENCODING 1232
SWIDTH 540 0
DWIDTH 12 0
BBX 12 19 0 0
BITMAP
18C0
1980
0F00
0000
0000
0F00
0F00
0F00
1D80
1980
1980
39C0
30C0
3FC0
7FE0
7060
6060
E070
E070
ENDCHAR
STARTCHAR 04D1
ENCODING 1233
SWIDTH 495 0
DWIDTH 11 0
BBX 9 16 1 0
BITMAP
6380
3300
1E00
0000
0000
3E00
FF00
4380
0380
1F80
7F80
F380
E380
E780
FF80
7980
ENDCHAR
STARTCHAR 04D4
ENCODING 1236
SWIDTH 810 0
DWIDTH 18 0
BBX 17 14 0 0
BITMAP
01FF80
03FF80
036000
076000
066000
0E6000
0C7F00
1C7F00
1FE000
3FE000
306000
706000
607F80
E07F80
ENDCHAR
STARTCHAR 04D5
ENCODING 1237
SWIDTH 765 0
DWIDTH 17 0
BBX 15 11 1 0
BITMAP
3E78
7FFC
63C6
0386
0FFE
7FFE
F380
E180
E3C4
7EFE
7C7C
ENDCHAR
STARTCHAR 04D6
ENCODING 1238
SWIDTH 540 0
DWIDTH 12 0
BBX 9 19 2 0
BITMAP
6300
6700
3E00
0000
0000
FF80
FF80
C000
C000
C000
C000
FF00
FF00
C000
C000
C000
C000
FF80
FF80
ENDCHAR
STARTCHAR 04D7
ENCODING 1239
SWIDTH 495 0
DWIDTH 11 0
BBX 9 16 1 0
BITMAP
6300
3300
1E00
0000
0000
1E00
7F00
6180
C180
FF80
FF80
C000
E000
7100
7F80
1F00
ENDCHAR
STARTCHAR 04D8
ENCODING 1240
SWIDTH 675 0
DWIDTH 15 0
BBX 13 14 1 0
BITMAP
0F80
3FE0
30E0
0070
0030
0038
FFF8
FFF8
E030
6030
6070
70E0
3FE0
0F80
ENDCHAR
STARTCHAR 04D9
ENCODING 1241
SWIDTH 495 0
DWIDTH 11 0
BBX 9 11 1 0
BITMAP
3E00
FF00
4380
0380
0180
FF80
FF80
C180
E380
7F00
3E00
ENDCHAR
STARTCHAR 04E2
ENCODING 1250
SWIDTH 675 0
DWIDTH 15 0
BBX 11 18 2 0
BITMAP
3F80
3F80
0000
0000
C0E0
C1E0
C1E0
C360
C360
C6E0
CEE0
CCE0
DCE0
D8E0
F8E0
F0E0
E0E0
E0E0
ENDCHAR
STARTCHAR 04E3
ENCODING 1251
SWIDTH 585 0
DWIDTH 13 0
BBX 9 15 2 0
BITMAP
7E00
7E00
0000
0000
C380
C380
C780
CF80
CD80
D980
D980
F180
F180
E180
C180
ENDCHAR
STARTCHAR 04E6
ENCODING 1254
SWIDTH 675 0
DWIDTH 15 0
BBX 13 19 1 0
BITMAP
18C0
19C0
18C0
0000
0000
0F80
3FE0
78F0
7070
E030
E038
E038
E038
E038
E030
7070
78E0
3FE0
0F80
ENDCHAR
STARTCHAR 04E7
ENCODING 1255
SWIDTH 540 0
DWIDTH 12 0
BBX 10 16 1 0
BITMAP
3300
7380
3300
0000
0000
1E00
7F80
7380
E1C0
E1C0
E0C0
E0C0
E1C0
7380
7F80
1E00
ENDCHAR
STARTCHAR 04E8
ENCODING 1256
SWIDTH 675 0
DWIDTH 15 0
BBX 13 14 1 0
BITMAP
0F80
3FE0
78F0
7070
E030
E038
FFF8
FFF8
E038
E030
6070
70F0
3FE0
0F80
ENDCHAR
STARTCHAR 04E9
ENCODING 1257
SWIDTH 540 0
DWIDTH 12 0
BBX 10 11 1 0
BITMAP
1E00
7F80
6180
E0C0
FFC0
FFC0
C0C0
E1C0
6180
7F80
1E00
ENDCHAR
STARTCHAR 04EE
ENCODING 1262
SWIDTH 540 0
DWIDTH 12 0
BBX 12 18 0 0
BITMAP
1F80
1F80
0000
0000
E070
6060
70E0
30C0
39C0
19C0
1D80
0F80
0F00
0700
0600
0E00
3C00
3800
ENDCHAR
STARTCHAR 04EF
ENCODING 1263
SWIDTH 495 0
DWIDTH 11 0
BBX 11 20 0 -5
BITMAP
1F80
1F80
0000
0000
E0E0
60C0
71C0
3180
3180
3980
1B00
1B00
1F00
0E00
0E00
0E00
0C00
1C00
7800
7000
ENDCHAR
STARTCHAR 04F2
ENCODING 1266
SWIDTH 540 0
DWIDTH 12 0
BBX 12 20 0 0
BITMAP
0440
0EE0
0CC0
1980
0000
0000
E070
6060
70E0
30C0
39C0
19C0
1D80
0F80
0F00
0700
0600
0E00
3C00
3800
ENDCHAR
STARTCHAR 04F3
ENCODING 1267
SWIDTH 495 0
DWIDTH 11 0
BBX 11 22 0 -5
BITMAP
04C0
0EC0
0D80
1980
1900
0000
E0E0
60C0
71C0
3180
3180
3980
1B00
1B00
1F00
0E00
0E00
0E00
0C00
1C00
7800
7000
ENDCHAR
STARTCHAR 1D43
ENCODING 7491
SWIDTH 360 0
DWIDTH 8 0
BBX 6 8 1 8
BITMAP
F8
8C
0C
3C
CC
CC
CC
FC
ENDCHAR
STARTCHAR 1D47
ENCODING 7495
SWIDTH 360 0
DWIDTH 8 0
BBX 7 11 1 8
BITMAP
C0
C0
C0
F8
FC
CE
C6
C6
C4
CC
F8
ENDCHAR
STARTCHAR 1D48
ENCODING 7496
SWIDTH 360 0
DWIDTH 8 0
BBX 6 11 1 8
BITMAP
0C
0C
04
7C
CC
CC
CC
CC
CC
CC
74
ENDCHAR
STARTCHAR 1D49
ENCODING 7497
SWIDTH 360 0
DWIDTH 8 0
BBX 6 8 1 8
BITMAP
78
CC
8C
FC
80
C0
C8
7C
ENDCHAR
STARTCHAR 1D4D
ENCODING 7501
SWIDTH 360 0
DWIDTH 8 0
BBX 7 11 1 5
BITMAP
7C
C8
88
C8
70
80
C0
FC
84
8E
F8
ENDCHAR
STARTCHAR 1D4F
ENCODING 7503
SWIDTH 360 0
DWIDTH 8 0
BBX 7 11 1 8
BITMAP
C0
C0
C0
CC
D8
D8
F0
F8
D8
CC
CE
ENDCHAR
STARTCHAR 1D50
ENCODING 7504
SWIDTH 585 0
DWIDTH 13 0
BBX 11 8 1 8
BITMAP
D9C0
FFC0
CE60
CC60
CC60
CC60
CC60
CC60
ENDCHAR
STARTCHAR 1D52
ENCODING 7506
SWIDTH 360 0
DWIDTH 8 0
BBX 7 8 1 8
BITMAP
78
CC
CC
84
86
CC
CC
78
ENDCHAR
STARTCHAR 1D56
ENCODING 7510
SWIDTH 360 0
DWIDTH 8 0
BBX 7 10 1 6
BITMAP
F8
FC
CE
C6
C6
C4
CC
F8
C0
C0
ENDCHAR
STARTCHAR 1D57
ENCODING 7511
SWIDTH 225 0
DWIDTH 5 0
BBX 5 10 0 8
BITMAP
20
60
F8
60
60
60
60
60
20
38
ENDCHAR
STARTCHAR 1D58
ENCODING 7512
SWIDTH 360 0
DWIDTH 8 0
BBX 6 8 1 8
BITMAP
CC
CC
CC
CC
CC
CC
FC
74
ENDCHAR
STARTCHAR 1D5B
ENCODING 7515
SWIDTH 315 0
DWIDTH 7 0
BBX 7 8 0 8
BITMAP
C6
46
64
64
2C
2C
38
18
ENDCHAR
STARTCHAR 1D9C
ENCODING 7580
SWIDTH 315 0
DWIDTH 7 0
BBX 5 8 1 8
BITMAP
78
C0
C0
80
80
C0
C8
78
ENDCHAR
STARTCHAR 1DA0
ENCODING 7584
SWIDTH 225 0
DWIDTH 5 0
BBX 5 11 0 8
BITMAP
38
20
60
F8
60
60
60
60
60
60
60
ENDCHAR
STARTCHAR 1DBB
ENCODING 7611
SWIDTH 315 0
DWIDTH 7 0
BBX 6 8 0 8
BITMAP
7C
0C
18
38
30
70
60
FC
ENDCHAR
STARTCHAR 1E06
ENCODING 7686
SWIDTH 585 0
DWIDTH 13 0
BBX 10 18 2 -4
BITMAP
FF00
FF80
C380
C1C0
C180
C380
FF00
FF80
C1C0
C0C0
C0C0
C1C0
FF80
FF00
0000
0000
3F00
3F00
ENDCHAR
STARTCHAR 1E07
ENCODING 7687
SWIDTH 540 0
DWIDTH 12 0
BBX 9 20 2 -4
BITMAP
C000
C000
C000
C000
C000
DE00
FF00
E380
C180
C180
C180
C180
C380
E380
FF00
DE00
0000
0000
7E00
7E00
ENDCHAR
STARTCHAR 1E0C
ENCODING 7692
SWIDTH 630 0
DWIDTH 14 0
BBX 11 18 2 -4
BITMAP
FE00
FF80
C380
C1C0
C0C0
C0E0
C0E0
C0E0
C0E0
C0C0
C1C0
C380
FF80
FE00
0000
0C00
1C00
0C00
ENDCHAR
STARTCHAR 1E0D
ENCODING 7693
SWIDTH 540 0
DWIDTH 12 0
BBX 10 20 1 -4
BITMAP
01C0
01C0
01C0
01C0
01C0
1DC0
7FC0
71C0
E1C0
E1C0
E1C0
E1C0
E1C0
73C0
7FC0
3CC0
0000
0600
0E00
0600
ENDCHAR
STARTCHAR 1E0E
ENCODING 7694
SWIDTH 630 0
DWIDTH 14 0
BBX 11 18 2 -4
BITMAP
FE00
FF80
C380
C1C0
C0C0
C0E0
C0E0
C0E0
C0E0
C0C0
C1C0
C380
FF80
FE00
0000
0000
3F00
3F00
ENDCHAR
STARTCHAR 1E0F
ENCODING 7695
SWIDTH 540 0
DWIDTH 12 0
BBX 10 20 1 -4
BITMAP
01C0
01C0
01C0
01C0
01C0
1DC0
7FC0
71C0
E1C0
E1C0
E1C0
E1C0
E1C0
73C0
7FC0
3CC0
0000
0000
1F80
1F80
ENDCHAR
STARTCHAR 1E16
ENCODING 7702
SWIDTH 990 0
DWIDTH 22 0
BBX 13 14 5 -1
BITMAP
0F00
3C00
7C00
7800
F800
F800
F800
F800
FC00
FE00
7F88
7FF0
3FE0
0F80
ENDCHAR
STARTCHAR 1E17
ENCODING 7703
SWIDTH 495 0
DWIDTH 11 0
BBX 9 19 1 0
BITMAP
0200
0E00
1800
0000
3F00
3F00
0000
0000
1E00
7F00
6180
C180
FF80
FF80
C000
E000
7100
7F80
1F00
ENDCHAR
STARTCHAR 1E20
ENCODING 7712
SWIDTH 630 0
DWIDTH 14 0
BBX 11 18 1 0
BITMAP
0FC0
0FC0
0000
0000
0F80
3FE0
7860
7000
E000
E000
E3E0
E3E0
E060
E060
7060
7860
3FE0
0FC0
ENDCHAR
STARTCHAR 1E21
ENCODING 7713
SWIDTH 495 0
DWIDTH 11 0
BBX 10 20 1 -5
BITMAP
3F00
3F00
0000
0000
3FC0
7FC0
E300
E380
E380
6300
7F00
7E00
6000
E000
7F80
7FC0
C0C0
C1C0
FF80
7E00
ENDCHAR
STARTCHAR 1E24
ENCODING 7716
SWIDTH 675 0
DWIDTH 15 0
BBX 11 18 2 -4
BITMAP
C0E0
C0E0
C0E0
C0E0
C0E0
C0E0
FFE0
FFE0
C0E0
C0E0
C0E0
C0E0
C0E0
C0E0
0000
0C00
0E00
0C00
ENDCHAR
STARTCHAR 1E25
ENCODING 7717
SWIDTH 540 0
DWIDTH 12 0
BBX 9 20 2 -4
BITMAP
C000
C000
C000
C000
C000
CE00
FF00
E380
C380
C380
C380
C380
C380
C380
C380
C380
0000
1C00
1C00
1C00
ENDCHAR
STARTCHAR 1E2A
ENCODING 7722
SWIDTH 675 0
DWIDTH 15 0
BBX 11 19 2 -5
BITMAP
C0E0
C0E0
C0E0
C0E0
C0E0
C0E0
FFE0
FFE0
C0E0
C0E0
C0E0
C0E0
C0E0
C0E0
0000
2180
3180
3F00
1E00
ENDCHAR
STARTCHAR 1E2B
ENCODING 7723
SWIDTH 540 0
DWIDTH 12 0
BBX 9 21 2 -5
BITMAP
C000
C000
C000
C000
C000
CE00
FF00
E380
C380
C380
C380
C380
C380
C380
C380
C380
0000
4300
6300
7E00
3C00
ENDCHAR
STARTCHAR 1E32
ENCODING 7730
SWIDTH 585 0
DWIDTH 13 0
BBX 11 18 2 -4
BITMAP
C1C0
C380
C300
C700
CE00
DC00
FE00
F600
F700
E300
C380
C1C0
C1C0
C0E0
0000
0C00
0E00
0C00
ENDCHAR
STARTCHAR 1E33
ENCODING 7731
SWIDTH 495 0
DWIDTH 11 0
BBX 9 20 2 -4
BITMAP
C000
C000
C000
C000
C000
C380
C700
CE00
DC00
D800
FC00
FC00
E600
C700
C300
C380
0000
1800
1C00
1800
ENDCHAR
STARTCHAR 1E34
ENCODING 7732
SWIDTH 585 0
DWIDTH 13 0
BBX 11 18 2 -4
BITMAP
C1C0
C380
C300
C700
CE00
DC00
FE00
F600
F700
E300
C380
C1C0
C1C0
C0E0
0000
0000
3F00
3F00
ENDCHAR
STARTCHAR 1E35
ENCODING 7733
SWIDTH 495 0
DWIDTH 11 0
BBX 9 20 2 -4
BITMAP
C000
C000
C000
C000
C000
C380
C700
CE00
DC00
D800
FC00
FC00
E600
C700
C300
C380
0000
0000
7E00
7E00
ENDCHAR
STARTCHAR 1E36
ENCODING 7734
SWIDTH 495 0
DWIDTH 11 0
BBX 8 18 2 -4
BITMAP
C0
C0
C0
C0
C0
C0
C0
C0
C0
C0
C0
C0
FF
FF
00
1C
1C
1C
ENDCHAR
STARTCHAR 1E37
ENCODING 7735
SWIDTH 270 0
DWIDTH 6 0
BBX 3 20 2 -4
BITMAP
C0
C0
C0
C0
C0
C0
C0
C0
C0
C0
C0
C0
C0
C0
E0
E0
00
60
E0
60
ENDCHAR
STARTCHAR 1E38
ENCODING 7736
SWIDTH 495 0
DWIDTH 11 0
BBX 10 22 0 -4
BITMAP
FC00
FC00
0000
0000
3000
3000
3000
3000
3000
3000
3000
3000
3000
3000
3000
3000
3FC0
3FC0
0000
0700
0700
0700
ENDCHAR
STARTCHAR 1E39
ENCODING 7737
SWIDTH 270 0
DWIDTH 6 0
BBX 6 24 0 -4
BITMAP
FC
FC
00
00
30
30
30
30
30
30
30
30
30
30
30
30
30
30
38
38
00
18
38
18
ENDCHAR
STARTCHAR 1E3A
ENCODING 7738
SWIDTH 495 0
DWIDTH 11 0
BBX 8 18 2 -4
BITMAP
C0
C0
C0
C0
C0
C0
C0
C0
C0
C0
C0
C0
FF
FF
00
00
7E
7E
ENDCHAR
STARTCHAR 1E3B
ENCODING 7739
SWIDTH 270 0
DWIDTH 6 0
BBX 6 20 1 -4
BITMAP
60
60
60
60
60
60
60
60
60
60
60
60
60
60
70
70
00
00
FC
FC
ENDCHAR
STARTCHAR 1E3E
ENCODING 7742
SWIDTH 720 0
DWIDTH 16 0
BBX 13 20 2 0
BITMAP
0080
03C0
0700
0600
0000
0000
E078
E078
F078
F0F8
F0F8
D8F8
D9B8
DDB8
CD38
CF38
C738
C638
C638
C038
ENDCHAR
STARTCHAR 1E3F
ENCODING 7743
SWIDTH 855 0
DWIDTH 19 0
BBX 15 18 2 0
BITMAP
0040
00E0
01C0
0380
0100
0000
0000
DE3C
FFFE
E3CE
C38E
C386
C386
C386
C386
C386
C386
C386
ENDCHAR
STARTCHAR 1E40
ENCODING 7744
SWIDTH 720 0
DWIDTH 16 0
BBX 13 19 2 0
BITMAP
0600
0700
0600
0000
0000
E078
E078
F078
F0F8
F0F8
D8F8
D9B8
DDB8
CD38
CF38
C738
C638
C638
C038
ENDCHAR
STARTCHAR 1E41
ENCODING 7745
SWIDTH 855 0
DWIDTH 19 0
BBX 15 16 2 0
BITMAP
0380
0380
0380
0000
0000
DE3C
FFFE
E3CE
C38E
C386
C386
C386
C386
C386
C386
C386
ENDCHAR
STARTCHAR 1E42
ENCODING 7746
SWIDTH 720 0
DWIDTH 16 0
BBX 13 18 2 -4
BITMAP
E078
E078
F078
F0F8
F0F8
D8F8
D9B8
DDB8
CD38
CF38
C738
C638
C638
C038
0000
0600
0700
0600
ENDCHAR
STARTCHAR 1E43
ENCODING 7747
SWIDTH 855 0
DWIDTH 19 0
BBX 15 15 2 -4
BITMAP
DE3C
FFFE
E3CE
C38E
C386
C386
C386
C386
C386
C386
C386
0000
0380
0380
0380
ENDCHAR
STARTCHAR 1E44
ENCODING 7748
SWIDTH 630 0
DWIDTH 14 0
BBX 11 19 2 0
BITMAP
0C00
0E00
0C00
0000
0000
E0E0
E0E0
F0E0
F0E0
D8E0
DCE0
CCE0
CEE0
C6E0
C7E0
C3E0
C1E0
C1E0
C0E0
ENDCHAR
STARTCHAR 1E45
ENCODING 7749
SWIDTH 540 0
DWIDTH 12 0
BBX 9 16 2 0
BITMAP
1C00
1C00
1C00
0000
0000
DE00
FF00
E380
C380
C380
C380
C380
C380
C380
C380
C380
ENDCHAR
STARTCHAR 1E46
ENCODING 7750
SWIDTH 630 0
DWIDTH 14 0
BBX 11 18 2 -4
BITMAP
E0E0
E0E0
F0E0
F0E0
D8E0
DCE0
CCE0
CEE0
C6E0
C7E0
C3E0
C1E0
C1E0
C0E0
0000
0E00
0E00
0E00
ENDCHAR
STARTCHAR 1E47
ENCODING 7751
SWIDTH 540 0
DWIDTH 12 0
BBX 9 15 2 -4
BITMAP
DE00
FF00
E380
C380
C380
C380
C380
C380
C380
C380
C380
0000
1800
1C00
1800
ENDCHAR
STARTCHAR 1E48
ENCODING 7752
SWIDTH 630 0
DWIDTH 14 0
BBX 11 18 2 -4
BITMAP
E0E0
E0E0
F0E0
F0E0
D8E0
DCE0
CCE0
CEE0
C6E0
C7E0
C3E0
C1E0
C1E0
C0E0
0000
0000
3F00
3F00
ENDCHAR
STARTCHAR 1E49
ENCODING 7753
SWIDTH 540 0
DWIDTH 12 0
BBX 9 15 2 -4
BITMAP
DE00
FF00
E380
C380
C380
C380
C380
C380
C380
C380
C380
0000
0000
7E00
7E00
ENDCHAR
STARTCHAR 1E52
ENCODING 7762
SWIDTH 675 0
DWIDTH 15 0
BBX 13 22 1 0
BITMAP
0100
0380
0600
0000
1FC0
1FC0
0000
0000
0F80
3FE0
78F0
7070
E030
E038
E038
E038
E038
E030
7070
78E0
3FE0
0F80
ENDCHAR
STARTCHAR 1E53
ENCODING 7763
SWIDTH 540 0
DWIDTH 12 0
BBX 10 19 1 0
BITMAP
0200
0F00
1800
0000
3F00
3F00
0000
0000
1E00
7F80
7380
E1C0
E1C0
E0C0
E0C0
E1C0
7380
7F80
1E00
ENDCHAR
STARTCHAR 1E58
ENCODING 7768
SWIDTH 585 0
DWIDTH 13 0
BBX 11 19 2 0
BITMAP
1C00
1C00
1C00
0000
0000
FF00
FF80
C1C0
C1C0
C1C0
C1C0
C380
FF00
FE00
C700
C300
C380
C1C0
C1E0
ENDCHAR
STARTCHAR 1E59
ENCODING 7769
SWIDTH 360 0
DWIDTH 8 0
BBX 6 16 2 0
BITMAP
30
38
30
00
00
DC
FC
E0
C0
C0
C0
C0
C0
C0
C0
C0
ENDCHAR
STARTCHAR 1E5A
ENCODING 7770
SWIDTH 585 0
DWIDTH 13 0
BBX 11 18 2 -4
BITMAP
FF00
FF80
C1C0
C1C0
C1C0
C1C0
C380
FF00
FE00
C700
C300
C380
C1C0
C1C0
0020
0C00
1C00
0C00
ENDCHAR
STARTCHAR 1E5B
ENCODING 7771
SWIDTH 360 0
DWIDTH 8 0
BBX 7 15 1 -4
BITMAP
6E
7E
70
60
60
60
60
60
60
60
60
00
60
E0
60
ENDCHAR
STARTCHAR 1E5C
ENCODING 7772
SWIDTH 585 0
DWIDTH 13 0
BBX 11 22 2 -4
BITMAP
7F00
7F00
0000
0000
FF00
FF80
C1C0
C1C0
C1C0
C1C0
C380
FF00
FE00
C700
C300
C380
C1C0
C1C0
0020
0C00
1C00
0C00
ENDCHAR
STARTCHAR 1E5D
ENCODING 7773
SWIDTH 360 0
DWIDTH 8 0
BBX 7 19 1 -4
BITMAP
7E
7E
00
00
6E
7E
70
60
60
60
60
60
60
60
60
00
60
E0
60
ENDCHAR
STARTCHAR 1E5E
ENCODING 7774
SWIDTH 585 0
DWIDTH 13 0
BBX 11 18 2 -4
BITMAP
FF00
FF80
C1C0
C1C0
C1C0
C1C0
C380
FF00
FE00
C700
C300
C380
C1C0
C1C0
0020
0000
3F00
3F00
ENDCHAR
STARTCHAR 1E5F
ENCODING 7775
SWIDTH 360 0
DWIDTH 8 0
BBX 8 15 0 -4
BITMAP
37
3F
38
30
30
30
30
30
30
30
30
00
00
FC
FC
ENDCHAR
STARTCHAR 1E60
ENCODING 7776
SWIDTH 540 0
DWIDTH 12 0
BBX 10 19 1 0
BITMAP
0C00
0E00
0C00
0000
0000
1F00
7FC0
7180
E000
6000
7800
3F00
0F80
03C0
01C0
80C0
E1C0
FF80
3F00
ENDCHAR
STARTCHAR 1E61
ENCODING 7777
SWIDTH 405 0
DWIDTH 9 0
BBX 8 16 1 0
BITMAP
18
3C
18
00
00
3C
7F
E2
E0
F0
3E
0F
07
C7
FE
7C
ENDCHAR
STARTCHAR 1E62
ENCODING 7778
SWIDTH 540 0
DWIDTH 12 0
BBX 10 18 1 -4
BITMAP
1F00
7FC0
7180
E000
6000
7800
3F00
0F80
03C0
01C0
80C0
E1C0
FF80
3F00
0000
0C00
0E00
0C00
ENDCHAR
STARTCHAR 1E63
ENCODING 7779
SWIDTH 405 0
DWIDTH 9 0
BBX 8 15 1 -4
BITMAP
3C
7F
E2
E0
F0
3E
0F
07
C7
FE
7C
00
18
3C
18
ENDCHAR
STARTCHAR 1E6C
ENCODING 7788
SWIDTH 540 0
DWIDTH 12 0
BBX 10 18 1 -4
BITMAP
FFC0
FFC0
0C00
0C00
0C00
0C00
0C00
0C00
0C00
0C00
0C00
0C00
0C00
0C00
0000
0C00
1E00
0C00
ENDCHAR
STARTCHAR 1E6D
ENCODING 7789
SWIDTH 360 0
DWIDTH 8 0
BBX 8 18 0 -4
BITMAP
38
38
38
FE
FE
38
38
38
38
38
38
38
3E
1F
00
0C
1C
0C
ENDCHAR
STARTCHAR 1E6E
ENCODING 7790
SWIDTH 540 0
DWIDTH 12 0
BBX 10 18 1 -4
BITMAP
FFC0
FFC0
0C00
0C00
0C00
0C00
0C00
0C00
0C00
0C00
0C00
0C00
0C00
0C00
0000
0000
3F00
3F00
ENDCHAR
STARTCHAR 1E6F
ENCODING 7791
SWIDTH 360 0
DWIDTH 8 0
BBX 8 18 0 -4
BITMAP
38
38
38
FE
FE
38
38
38
38
38
38
38
3E
1F
00
00
3F
3F
ENDCHAR
STARTCHAR 1E80
ENCODING 7808
SWIDTH 810 0
DWIDTH 18 0
BBX 17 20 0 0
BITMAP
020000
078000
01C000
00C000
000000
000000
E0C180
61C380
61E380
71E380
71E300
336300
337300
333700
333700
3E3600
1E3600
1E1E00
1E1E00
1C1E00
ENDCHAR
STARTCHAR 1E81
ENCODING 7809
SWIDTH 720 0
DWIDTH 16 0
BBX 15 18 1 0
BITMAP
0400
0E00
0600
0300
0180
0000
0000
C38E
C38E
E38C
E78C
66CC
66DC
74D8
7CD8
3C78
3C78
3870
ENDCHAR
STARTCHAR 1E82
ENCODING 7810
SWIDTH 810 0
DWIDTH 18 0
BBX 17 20 0 0
BITMAP
002000
007000
00E000
018000
000000
000000
E0C180
61C380
61E380
71E380
71E300
336300
337300
333700
333700
3E3600
1E3600
1E1E00
1E1E00
1C1E00
ENDCHAR
STARTCHAR 1E83
ENCODING 7811
SWIDTH 720 0
DWIDTH 16 0
BBX 15 18 1 0
BITMAP
0040
00E0
01C0
0380
0100
0000
0000
C38E
C38E
E38C
E78C
66CC
66DC
74D8
7CD8
3C78
3C78
3870
ENDCHAR
STARTCHAR 1E84
ENCODING 7812
SWIDTH 810 0
DWIDTH 18 0
BBX 17 19 0 0
BITMAP
063000
073000
063000
000000
000000
E0C180
61C380
61E380
71E380
71E300
336300
337300
333700
333700
3E3600
1E3600
1E1E00
1E1E00
1C1E00
ENDCHAR
STARTCHAR 1E85
ENCODING 7813
SWIDTH 720 0
DWIDTH 16 0
BBX 15 16 1 0
BITMAP
0CE0
0CE0
0CE0
0000
0000
C38E
C38E
E38C
E78C
66CC
66DC
74D8
7CD8
3C78
3C78
3870
ENDCHAR
STARTCHAR 1E8E
ENCODING 7822
SWIDTH 495 0
DWIDTH 11 0
BBX 11 19 0 0
BITMAP
0E00
0E00
0E00
0000
0000
E0E0
60C0
71C0
3180
3980
1B00
1B00
0E00
0E00
0E00
0E00
0E00
0E00
0E00
ENDCHAR
STARTCHAR 1E8F
ENCODING 7823
SWIDTH 495 0
DWIDTH 11 0
BBX 11 21 0 -5
BITMAP
0E00
0E00
0E00
0000
0000
E0E0
60C0
71C0
3180
3180
3980
1B00
1B00
1F00
0E00
0E00
0E00
0C00
1C00
7800
7000
ENDCHAR
STARTCHAR 1E92
ENCODING 7826
SWIDTH 540 0
DWIDTH 12 0
BBX 10 18 1 -4
BITMAP
7FC0
7FC0
0180
0300
0700
0600
0E00
1C00
1800
3800
7000
6000
FFC0
FFC0
0000
0C00
0E00
0C00
ENDCHAR
STARTCHAR 1E93
ENCODING 7827
SWIDTH 450 0
DWIDTH 10 0
BBX 8 15 1 -4
BITMAP
FF
FF
06
0C
1C
18
38
70
60
FF
FF
00
18
1C
18
ENDCHAR
STARTCHAR 1E94
ENCODING 7828
SWIDTH 540 0
DWIDTH 12 0
BBX 10 18 1 -4
BITMAP
7FC0
7FC0
0180
0300
0700
0600
0E00
1C00
1800
3800
7000
6000
FFC0
FFC0
0000
0000
3F00
3F00
ENDCHAR
STARTCHAR 1E95
ENCODING 7829
SWIDTH 450 0
DWIDTH 10 0
BBX 8 15 1 -4
BITMAP
FF
FF
06
0C
1C
18
38
70
60
FF
FF
00
00
7E
7E
ENDCHAR
STARTCHAR 1E96
ENCODING 7830
SWIDTH 540 0
DWIDTH 12 0
BBX 9 20 2 -4
BITMAP
C000
C000
C000
C000
C000
CE00
FF00
E380
C380
C380
C380
C380
C380
C380
C380
C380
0000
0000
7E00
7E00
ENDCHAR
STARTCHAR 1E97
ENCODING 7831
SWIDTH 360 0
DWIDTH 8 0
BBX 8 19 0 0
BITMAP
C6
CE
C6
00
00
38
38
38
FE
FE
38
38
38
38
38
38
38
3E
1F
ENDCHAR
STARTCHAR 1E9E
ENCODING 7838
SWIDTH 675 0
DWIDTH 15 0
BBX 12 14 2 0
BITMAP
1F00
7FC0
71E0
E0E0
E1C0
C380
C3C0
C3E0
C0F0
C070
C030
C470
CFE0
C7C0
ENDCHAR
STARTCHAR 1EA0
ENCODING 7840
SWIDTH 540 0
DWIDTH 12 0
BBX 12 18 0 -4
BITMAP
0F00
0F00
0F00
1D80
1980
1980
39C0
30C0
3FC0
7FE0
7060
6060
E070
E070
0000
0600
0700
0600
ENDCHAR
STARTCHAR 1EA1
ENCODING 7841
SWIDTH 495 0
DWIDTH 11 0
BBX 9 15 1 -4
BITMAP
3E00
FF00
4380
0380
1F80
7F80
F380
E380
E780
FF80
7980
0000
1C00
1C00
1C00
ENDCHAR
STARTCHAR 1EA2
ENCODING 7842
SWIDTH 540 0
DWIDTH 12 0
BBX 12 20 0 0
BITMAP
0E00
0300
0300
0600
0000
0000
0F00
0F00
0F00
1D80
1980
1980
39C0
30C0
3FC0
7FE0
7060
6060
E070
E070
ENDCHAR
STARTCHAR 1EA3
ENCODING 7843
SWIDTH 495 0
DWIDTH 11 0
BBX 9 18 1 0
BITMAP
1C00
1E00
0600
0600
0C00
0000
0000
3E00
FF00
4380
0380
1F80
7F80
F380
E380
E780
FF80
7980
ENDCHAR
STARTCHAR 1EA4
ENCODING 7844
SWIDTH 540 0
DWIDTH 12 0
BBX 12 21 0 0
BITMAP
0020
0060
07C0
0D80
1880
0000
0000
0F00
0F00
0F00
1D80
1980
1980
39C0
30C0
3FC0
7FE0
7060
6060
E070
E070
ENDCHAR
STARTCHAR 1EA5
ENCODING 7845
SWIDTH 495 0
DWIDTH 11 0
BBX 11 18 1 0
BITMAP
0040
00E0
0080
1D80
3300
2100
0000
3E00
FF00
4380
0380
1F80
7F80
F380
E380
E780
FF80
7980
ENDCHAR
STARTCHAR 1EA6
ENCODING 7846
SWIDTH 540 0
DWIDTH 12 0
BBX 12 21 0 0
BITMAP
4000
6000
1700
0D80
1880
0000
0000
0F00
0F00
0F00
1D80
1980
1980
39C0
30C0
3FC0
7FE0
7060
6060
E070
E070
ENDCHAR
STARTCHAR 1EA7
ENCODING 7847
SWIDTH 495 0
DWIDTH 11 0
BBX 10 18 0 0
BITMAP
4000
C000
6000
3E00
1980
1080
0000
1F00
7F80
21C0
01C0
0FC0
3FC0
79C0
71C0
73C0
7FC0
3CC0
ENDCHAR
STARTCHAR 1EA8
ENCODING 7848
SWIDTH 540 0
DWIDTH 12 0
BBX 12 20 0 0
BITMAP
00E0
0760
0DE0
1880
0000
0000
0F00
0F00
0F00
1D80
1980
1980
39C0
30C0
3FC0
7FE0
7060
6060
E070
E070
ENDCHAR
STARTCHAR 1EA9
ENCODING 7849
SWIDTH 495 0
DWIDTH 11 0
BBX 10 18 1 0
BITMAP
0180
00C0
00C0
1C80
3300
2100
0000
3E00
FF00
4380
0380
1F80
7F80
F380
E380
E780
FF80
7980
ENDCHAR
STARTCHAR 1EAA
ENCODING 7850
SWIDTH 540 0
DWIDTH 12 0
BBX 12 21 0 0
BITMAP
0D00
1780
0000
0F00
1980
0000
0000
0F00
0F00
0F00
1D80
1980
1980
39C0
30C0
3FC0
7FE0
7060
6060
E070
E070
ENDCHAR
STARTCHAR 1EAB
ENCODING 7851
SWIDTH 495 0
DWIDTH 11 0
BBX 9 17 1 0
BITMAP
3F00
0000
1C00
3300
2100
0000
3E00
FF00
4380
0380
1F80
7F80
F380
E380
E780
FF80
7980
ENDCHAR
STARTCHAR 1EAC
ENCODING 7852
SWIDTH 540 0
DWIDTH 12 0
BBX 12 23 0 -4
BITMAP
0F00
1D80
10C0
0000
0000
0F00
0F00
0F00
1D80
1980
1980
39C0
30C0
3FC0
7FE0
7060
6060
E070
E070
0000
0600
0700
0600
ENDCHAR
STARTCHAR 1EAD
ENCODING 7853
SWIDTH 495 0
DWIDTH 11 0
BBX 9 21 1 -4
BITMAP
1E00
3E00
3300
6180
0000
0000
3E00
FF00
4380
0380
1F80
7F80
F380
E380
E780
FF80
7980
0000
1C00
1C00
1C00
ENDCHAR
STARTCHAR 1EAE
ENCODING 7854
SWIDTH 540 0
DWIDTH 12 0
BBX 12 22 0 0
BITMAP
0100
0380
0700
12C0
1980
0F00
0000
0000
0F00
0F00
0F00
1D80
1980
1980
39C0
30C0
3FC0
7FE0
7060
6060
E070
E070
ENDCHAR
STARTCHAR 1EAF
ENCODING 7855
SWIDTH 495 0
DWIDTH 11 0
BBX 9 19 1 0
BITMAP
0400
0600
0C00
6980
3300
3F00
1E00
0000
3E00
FF00
4380
0380
1F80
7F80
F380
E380
E780
FF80
7980
ENDCHAR
STARTCHAR 1EB0
ENCODING 7856
SWIDTH 540 0
DWIDTH 12 0
BBX 12 22 0 0
BITMAP
0800
1C00
0600
16C0
1980
0F00
0000
0000
0F00
0F00
0F00
1D80
1980
1980
39C0
30C0
3FC0
7FE0
7060
6060
E070
E070
ENDCHAR
STARTCHAR 1EB1
ENCODING 7857
SWIDTH 495 0
DWIDTH 11 0
BBX 9 19 1 0
BITMAP
1000
3800
0C00
6D80
3300
3F00
1E00
0000
3E00
FF00
4380
0380
1F80
7F80
F380
E380
E780
FF80
7980
ENDCHAR
STARTCHAR 1EB2
ENCODING 7858
SWIDTH 540 0
DWIDTH 12 0
BBX 12 22 0 0
BITMAP
0600
0300
0300
16C0
1980
0F00
0000
0000
0F00
0F00
0F00
1D80
1980
1980
39C0
30C0
3FC0
7FE0
7060
6060
E070
E070
ENDCHAR
STARTCHAR 1EB3
ENCODING 7859
SWIDTH 495 0
DWIDTH 11 0
BBX 9 19 1 0
BITMAP
1C00
0600
0600
6D80
3300
3F00
1E00
0000
3E00
FF00
4380
0380
1F80
7F80
F380
E380
E780
FF80
7980
ENDCHAR
STARTCHAR 1EB4
ENCODING 7860
SWIDTH 540 0
DWIDTH 12 0
BBX 12 21 0 0
BITMAP
0D00
1780
0000
1080
0F00
0000
0000
0F00
0F00
0F00
1D80
1980
1980
39C0
30C0
3FC0
7FE0
7060
6060
E070
E070
ENDCHAR
STARTCHAR 1EB5
ENCODING 7861
SWIDTH 495 0
DWIDTH 11 0
BBX 9 17 1 0
BITMAP
3F00
0000
2300
1E00
0000
0000
3E00
FF00
4380
0380
1F80
7F80
F380
E380
E780
FF80
7980
ENDCHAR
STARTCHAR 1EB6
ENCODING 7862
SWIDTH 540 0
DWIDTH 12 0
BBX 12 24 0 -4
BITMAP
10C0
1980
1F80
0F00
0000
0000
0F00
0F00
0F00
1D80
1980
1980
39C0
30C0
3FC0
7FE0
7060
6060
E070
E070
0000
0600
0700
0600
ENDCHAR
STARTCHAR 1EB7
ENCODING 7863
SWIDTH 495 0
DWIDTH 11 0
BBX 9 21 1 -4
BITMAP
6180
3300
3F00
1E00
0000
0000
3E00
FF00
4380
0380
1F80
7F80
F380
E380
E780
FF80
7980
0000
1C00
1C00
1C00
ENDCHAR
STARTCHAR 1EB8
ENCODING 7864
SWIDTH 990 0
DWIDTH 22 0
BBX 13 13 0 1
BITMAP
8008
C018
E038
B078
E8F8
FDF8
DBF8
7FF0
2DE0
1FC0
0D80
0700
0200
ENDCHAR
STARTCHAR 1EB9
ENCODING 7865
SWIDTH 495 0
DWIDTH 11 0
BBX 9 15 1 -4
BITMAP
1E00
7F00
6180
C180
FF80
FF80
C000
E000
7100
7F80
1F00
0000
0C00
1C00
0C00
ENDCHAR
STARTCHAR 1EBA
ENCODING 7866
SWIDTH 990 0
DWIDTH 22 0
BBX 13 13 0 1
BITMAP
0300
0780
0BC0
1FE0
3FF0
7FF8
FEF8
BDE8
E8D8
D078
A028
C018
8008
ENDCHAR
STARTCHAR 1EBB
ENCODING 7867
SWIDTH 495 0
DWIDTH 11 0
BBX 9 18 1 0
BITMAP
1C00
1E00
0600
0600
0C00
0000
0000
1E00
7F00
6180
C180
FF80
FF80
C000
E000
7100
7F80
1F00
ENDCHAR
STARTCHAR 1EBC
ENCODING 7868
SWIDTH 990 0
DWIDTH 22 0
BBX 9 19 0 -2
BITMAP
1C00
2200
3200
3200
3200
3200
3200
2A00
2A00
2A00
2A00
2A00
4900
BC80
BE80
BE80
9D00
4300
3C00
ENDCHAR
STARTCHAR 1EBD
ENCODING 7869
SWIDTH 495 0
DWIDTH 11 0
BBX 9 17 1 0
BITMAP
3180
7D80
6F80
6700
0000
0000
1E00
7F00
6180
C180
FF80
FF80
C000
E000
7100
7F80
1F00
ENDCHAR
STARTCHAR 1EBE
ENCODING 7870
SWIDTH 990 0
DWIDTH 22 0
BBX 19 11 0 2
BITMAP
03F800
0FFE00
1C0700
300100
6002C0
600440
400860
C01060
C02020
C06020
004000
ENDCHAR
STARTCHAR 1EBF
ENCODING 7871
SWIDTH 495 0
DWIDTH 11 0
BBX 11 18 1 0
BITMAP
0040
00E0
0080
1D80
3200
2100
0000
1E00
7F00
6180
C180
FF80
FF80
C000
E000
7100
7F80
1F00
ENDCHAR
STARTCHAR 1EC0
ENCODING 7872
SWIDTH 1215 0
DWIDTH 27 0
BBX 19 15 5 0
BITMAP
0003C0
0007E0
000060
000060
3FFFE0
3FFFC0
000000
000000
7FE000
FFF800
001800
001C00
009800
00F800
007000
ENDCHAR
STARTCHAR 1EC1
ENCODING 7873
SWIDTH 495 0
DWIDTH 11 0
BBX 10 18 0 0
BITMAP
4000
C000
6000
2E00
1900
1080
0000
0F00
3F80
30C0
60C0
7FC0
7FC0
6000
7000
3880
3FC0
0F80
ENDCHAR
STARTCHAR 1EC2
ENCODING 7874
SWIDTH 720 0
DWIDTH 16 0
BBX 17 22 0 -3
BITMAP
008000
01C000
03E000
07F000
0FF000
0FF800
1FFC00
33CE00
21DE00
6D9F00
4D9F00
E93F80
E13F80
FF4380
FE4980
FEC980
FCC900
7DC300
79E200
3FFE00
1FF800
07F000
ENDCHAR
STARTCHAR 1EC3
ENCODING 7875
SWIDTH 495 0
DWIDTH 11 0
BBX 10 18 1 0
BITMAP
0180
00C0
00C0
1D80
3200
2100
0000
1E00
7F00
6180
C180
FF80
FF80
C000
E000
7100
7F80
1F00
ENDCHAR
STARTCHAR 1EC4
ENCODING 7876
SWIDTH 990 0
DWIDTH 22 0
BBX 13 19 0 -2
BITMAP
0200
0300
0700
0780
0F80
1FC0
1FC0
3FE0
3FE0
7FF0
7FF8
FFF8
FFF8
FFF8
DFF8
67F8
30F0
1DE0
0F80
ENDCHAR
STARTCHAR 1EC5
ENCODING 7877
SWIDTH 495 0
DWIDTH 11 0
BBX 9 17 1 0
BITMAP
3F00
0000
1C00
3200
2100
0000
1E00
7F00
6180
C180
FF80
FF80
C000
E000
7100
7F80
1F00
ENDCHAR
STARTCHAR 1EC6
ENCODING 7878
SWIDTH 990 0
DWIDTH 22 0
BBX 19 19 0 -2
BITMAP
004000
004000
304080
184100
0C0200
01F400
03F800
07FC00
07FC00
FFFDE0
07FC00
03FC00
03F800
04F200
084700
104180
204080
004000
004000
ENDCHAR
STARTCHAR 1EC7
ENCODING 7879
SWIDTH 495 0
DWIDTH 11 0
BBX 9 21 1 -4
BITMAP
1E00
3E00
3300
6180
0000
0000
1E00
7F00
6180
C180
FF80
FF80
C000
E000
7100
7F80
1F00
0000
0C00
1C00
0C00
ENDCHAR
STARTCHAR 1EC8
ENCODING 7880
SWIDTH 270 0
DWIDTH 6 0
BBX 4 20 1 0
BITMAP
60
B0
30
60
00
00
60
60
60
60
60
60
60
60
60
60
60
60
60
60
ENDCHAR
STARTCHAR 1EC9
ENCODING 7881
SWIDTH 270 0
DWIDTH 6 0
BBX 4 18 1 0
BITMAP
E0
F0
30
30
60
00
00
60
60
60
60
60
60
60
60
60
60
60
ENDCHAR
STARTCHAR 1ECA
ENCODING 7882
SWIDTH 270 0
DWIDTH 6 0
BBX 3 18 2 -4
BITMAP
C0
C0
C0
C0
C0
C0
C0
C0
C0
C0
C0
C0
C0
C0
00
C0
E0
C0
ENDCHAR
STARTCHAR 1ECB
ENCODING 7883
SWIDTH 270 0
DWIDTH 6 0
BBX 3 20 1 -4
BITMAP
60
E0
60
00
00
60
60
60
60
60
60
60
60
60
60
60
00
60
E0
60
ENDCHAR
STARTCHAR 1ECC
ENCODING 7884
SWIDTH 675 0
DWIDTH 15 0
BBX 13 18 1 -4
BITMAP
0F80
3FE0
78F0
7070
E030
E038
E038
E038
E038
E030
7070
78E0
3FE0
0F80
0000
0700
0700
0700
ENDCHAR
STARTCHAR 1ECD
ENCODING 7885
SWIDTH 540 0
DWIDTH 12 0
BBX 10 15 1 -4
BITMAP
1E00
7F80
7380
E1C0
E1C0
E0C0
E0C0
E1C0
7380
7F80
1E00
0000
0C00
0E00
0C00
ENDCHAR
STARTCHAR 1ECE
ENCODING 7886
SWIDTH 675 0
DWIDTH 15 0
BBX 13 20 1 0
BITMAP
0600
0300
0300
0600
0000
0000
0F80
3FE0
78F0
7070
E030
E038
E038
E038
E038
E030
7070
78E0
3FE0
0F80
ENDCHAR
STARTCHAR 1ECF
ENCODING 7887
SWIDTH 540 0
DWIDTH 12 0
BBX 10 18 1 0
BITMAP
1C00
1E00
0600
0600
0C00
0000
0000
1E00
7F80
7380
E1C0
E1C0
E0C0
E0C0
E1C0
7380
7F80
1E00
ENDCHAR
STARTCHAR 1ED0
ENCODING 7888
SWIDTH 675 0
DWIDTH 15 0
BBX 13 21 1 0
BITMAP
0020
0070
0740
0D80
18C0
0000
0000
0F80
3FE0
78F0
7070
E030
E038
E038
E038
E038
E030
7070
78E0
3FE0
0F80
ENDCHAR
STARTCHAR 1ED1
ENCODING 7889
SWIDTH 540 0
DWIDTH 12 0
BBX 11 18 1 0
BITMAP
0040
00E0
00C0
1F80
3300
2100
0000
1E00
7F80
7380
E1C0
E1C0
E0C0
E0C0
E1C0
7380
7F80
1E00
ENDCHAR
STARTCHAR 1ED2
ENCODING 7890
SWIDTH 675 0
DWIDTH 15 0
BBX 13 21 1 0
BITMAP
2000
7000
1700
0D80
18C0
0000
0000
0F80
3FE0
78F0
7070
E030
E038
E038
E038
E038
E030
7070
78E0
3FE0
0F80
ENDCHAR
STARTCHAR 1ED3
ENCODING 7891
SWIDTH 540 0
DWIDTH 12 0
BBX 11 18 0 0
BITMAP
4000
E000
6000
3F00
1980
1080
0000
0F00
3FC0
39C0
70E0
70E0
7060
7060
70E0
39C0
3FC0
0F00
ENDCHAR
STARTCHAR 1ED4
ENCODING 7892
SWIDTH 675 0
DWIDTH 15 0
BBX 13 20 1 0
BITMAP
00E0
0720
0DE0
1880
0000
0000
0F80
3FE0
78F0
7070
E030
E038
E038
E038
E038
E030
7070
78E0
3FE0
0F80
ENDCHAR
STARTCHAR 1ED5
ENCODING 7893
SWIDTH 540 0
DWIDTH 12 0
BBX 10 18 1 0
BITMAP
0180
00C0
00C0
1E80
3300
2100
0000
1E00
7F80
7380
E1C0
E1C0
E0C0
E0C0
E1C0
7380
7F80
1E00
ENDCHAR
STARTCHAR 1ED6
ENCODING 7894
SWIDTH 675 0
DWIDTH 15 0
BBX 13 21 1 0
BITMAP
0C80
1BC0
0000
0700
19C0
0000
0000
0F80
3FE0
78F0
7070
E030
E038
E038
E038
E038
E030
7070
78E0
3FE0
0F80
ENDCHAR
STARTCHAR 1ED7
ENCODING 7895
SWIDTH 540 0
DWIDTH 12 0
BBX 10 17 1 0
BITMAP
3F00
0000
1E00
3300
2100
0000
1E00
7F80
7380
E1C0
E1C0
E0C0
E0C0
E1C0
7380
7F80
1E00
ENDCHAR
STARTCHAR 1ED8
ENCODING 7896
SWIDTH 675 0
DWIDTH 15 0
BBX 13 23 1 -4
BITMAP
0700
0D80
18C0
0000
0000
0F80
3FE0
78F0
7070
E030
E038
E038
E038
E038
E030
7070
78E0
3FE0
0F80
0000
0700
0700
0700
ENDCHAR
STARTCHAR 1ED9
ENCODING 7897
SWIDTH 540 0
DWIDTH 12 0
BBX 10 21 1 -4
BITMAP
1E00
1F00
3300
6180
0000
0000
1E00
7F80
7380
E1C0
E1C0
E0C0
E0C0
E1C0
7380
7F80
1E00
0000
0C00
0E00
0C00
ENDCHAR
STARTCHAR 1EDA
ENCODING 7898
SWIDTH 675 0
DWIDTH 15 0
BBX 13 20 1 0
BITMAP
0080
01C0
0700
0218
0018
0018
0FB0
3FE0
78F0
7070
E038
E038
E038
E038
E038
E030
7070
78F0
3FE0
0F80
ENDCHAR
STARTCHAR 1EDB
ENCODING 7899
SWIDTH 540 0
DWIDTH 12 0
BBX 11 18 1 0
BITMAP
0100
0380
0700
0E20
0CE0
0060
0060
1FC0
7F80
7380
E1C0
E1C0
E0C0
E0C0
E1C0
7380
7F80
1E00
ENDCHAR
STARTCHAR 1EDC
ENCODING 7900
SWIDTH 675 0
DWIDTH 15 0
BBX 13 20 1 0
BITMAP
0800
1C00
0E00
0318
0018
0018
0FB0
3FE0
78F0
7070
E038
E038
E038
E038
E038
E030
7070
78F0
3FE0
0F80
ENDCHAR
STARTCHAR 1EDD
ENCODING 7901
SWIDTH 540 0
DWIDTH 12 0
BBX 11 18 1 0
BITMAP
1000
7000
3800
1C20
04E0
0060
0060
1FC0
7F80
7380
E1C0
E1C0
E0C0
E0C0
E1C0
7380
7F80
1E00
ENDCHAR
STARTCHAR 1EDE
ENCODING 7902
SWIDTH 675 0
DWIDTH 15 0
BBX 13 20 1 0
BITMAP
0600
0300
0300
0618
0018
0018
0FB0
3FE0
78F0
7070
E038
E038
E038
E038
E038
E030
7070
78F0
3FE0
0F80
ENDCHAR
STARTCHAR 1EDF
ENCODING 7903
SWIDTH 540 0
DWIDTH 12 0
BBX 11 18 1 0
BITMAP
1C00
1E00
0600
0620
0CE0
0060
0060
1FC0
7F80
7380
E1C0
E1C0
E0C0
E0C0
E1C0
7380
7F80
1E00
ENDCHAR
STARTCHAR 1EE0
ENCODING 7904
SWIDTH 675 0
DWIDTH 15 0
BBX 13 20 1 0
BITMAP
0800
1EC0
37C0
3398
0018
0018
0FB0
3FE0
78F0
7070
E038
E038
E038
E038
E038
E030
7070
78F0
3FE0
0F80
ENDCHAR
STARTCHAR 1EE1
ENCODING 7905
SWIDTH 540 0
DWIDTH 12 0
BBX 11 17 1 0
BITMAP
3180
7900
4F20
46E0
8060
0060
1FC0
7F80
7380
E1C0
E1C0
E0C0
E0C0
E1C0
7380
7F80
1E00
ENDCHAR
STARTCHAR 1EE2
ENCODING 7906
SWIDTH 675 0
DWIDTH 15 0
BBX 13 21 1 -4
BITMAP
0018
0018
0018
0FB0
3FE0
78F0
7070
E038
E038
E038
E038
E038
E030
7070
78F0
3FE0
0F80
0000
0700
0700
0700
ENDCHAR
STARTCHAR 1EE3
ENCODING 7907
SWIDTH 540 0
DWIDTH 12 0
BBX 11 19 1 -4
BITMAP
0020
00E0
0060
0060
1FC0
7F80
7380
E1C0
E1C0
E0C0
E0C0
E1C0
7380
7F80
1E00
0000
0C00
0E00
0C00
ENDCHAR
STARTCHAR 1EE4
ENCODING 7908
SWIDTH 630 0
DWIDTH 14 0
BBX 11 18 2 -4
BITMAP
C0E0
C0E0
C0E0
C0E0
C0E0
C0E0
C0E0
C0E0
C0E0
C0E0
E0C0
71C0
7F80
1F00
0000
0C00
0E00
0C00
ENDCHAR
STARTCHAR 1EE5
ENCODING 7909
SWIDTH 540 0
DWIDTH 12 0
BBX 10 15 1 -4
BITMAP
E1C0
E1C0
E1C0
E1C0
E1C0
E1C0
E1C0
61C0
63C0
7FC0
3CC0
0000
0E00
0E00
0E00
ENDCHAR
STARTCHAR 1EE6
ENCODING 7910
SWIDTH 630 0
DWIDTH 14 0
BBX 11 20 2 0
BITMAP
0C00
1600
0600
0C00
0000
0000
C0E0
C0E0
C0E0
C0E0
C0E0
C0E0
C0E0
C0E0
C0E0
C0E0
E0C0
71C0
7F80
1F00
ENDCHAR
STARTCHAR 1EE7
ENCODING 7911
SWIDTH 540 0
DWIDTH 12 0
BBX 10 18 1 0
BITMAP
0C00
1E00
0600
0600
0C00
0000
0000
E1C0
E1C0
E1C0
E1C0
E1C0
E1C0
E1C0
61C0
63C0
7FC0
3CC0
ENDCHAR
STARTCHAR 1EE8
ENCODING 7912
SWIDTH 675 0
DWIDTH 15 0
BBX 13 20 2 0
BITMAP
0100
0780
0E08
0C18
0018
0018
C0F0
C0E0
C0E0
C0E0
C0E0
C0E0
C0E0
C0E0
C0E0
C0E0
E0C0
71C0
7F80
1F00
ENDCHAR
STARTCHAR 1EE9
ENCODING 7913
SWIDTH 540 0
DWIDTH 12 0
BBX 12 18 1 0
BITMAP
0200
0300
0780
0E30
0870
0030
0060
E1C0
E1C0
E1C0
E1C0
E1C0
E1C0
E1C0
61C0
63C0
7FC0
3DC0
ENDCHAR
STARTCHAR 1EEA
ENCODING 7914
SWIDTH 675 0
DWIDTH 15 0
BBX 13 20 2 0
BITMAP
1000
3800
1C08
0618
0018
0018
C0F0
C0E0
C0E0
C0E0
C0E0
C0E0
C0E0
C0E0
C0E0
C0E0
E0C0
71C0
7F80
1F00
ENDCHAR
STARTCHAR 1EEB
ENCODING 7915
SWIDTH 540 0
DWIDTH 12 0
BBX 12 18 1 0
BITMAP
2000
7000
3800
1C30
0870
0030
0060
E1C0
E1C0
E1C0
E1C0
E1C0
E1C0
E1C0
61C0
63C0
7FC0
3DC0
ENDCHAR
STARTCHAR 1EEC
ENCODING 7916
SWIDTH 675 0
DWIDTH 15 0
BBX 13 20 2 0
BITMAP
0C00
1600
0608
0C18
0018
0018
C0F0
C0E0
C0E0
C0E0
C0E0
C0E0
C0E0
C0E0
C0E0
C0E0
E0C0
71C0
7F80
1F00
ENDCHAR
STARTCHAR 1EED
ENCODING 7917
SWIDTH 540 0
DWIDTH 12 0
BBX 12 18 1 0
BITMAP
1C00
1E00
0600
0630
0C70
0030
0060
E1C0
E1C0
E1C0
E1C0
E1C0
E1C0
E1C0
61C0
63C0
7FC0
3DC0
ENDCHAR
STARTCHAR 1EEE
ENCODING 7918
SWIDTH 675 0
DWIDTH 15 0
BBX 13 20 2 0
BITMAP
1000
3D80
6F88
6718
0018
0018
C0F0
C0E0
C0E0
C0E0
C0E0
C0E0
C0E0
C0E0
C0E0
C0E0
E0C0
71C0
7F80
1F00
ENDCHAR
STARTCHAR 1EEF
ENCODING 7919
SWIDTH 540 0
DWIDTH 12 0
BBX 12 17 1 0
BITMAP
3180
7D80
6FB0
6770
0030
0060
E1C0
E1C0
E1C0
E1C0
E1C0
E1C0
E1C0
61C0
63C0
7FC0
3DC0
ENDCHAR
STARTCHAR 1EF0
ENCODING 7920
SWIDTH 675 0
DWIDTH 15 0
BBX 13 22 2 -4
BITMAP
0008
0018
0018
0018
C0F0
C0E0
C0E0
C0E0
C0E0
C0E0
C0E0
C0E0
C0E0
C0E0
E0C0
71C0
7F80
1F00
0000
0C00
0E00
0C00
ENDCHAR
STARTCHAR 1EF1
ENCODING 7921
SWIDTH 540 0
DWIDTH 12 0
BBX 12 19 1 -4
BITMAP
0030
0070
0030
0060
E1C0
E1C0
E1C0
E1C0
E1C0
E1C0
E1C0
61C0
63C0
7FC0
3DC0
0000
0E00
0E00
0C00
ENDCHAR
STARTCHAR 1EF2
ENCODING 7922
SWIDTH 495 0
DWIDTH 11 0
BBX 11 20 0 0
BITMAP
1000
3800
0E00
0400
0000
0000
E0E0
60C0
71C0
3180
3980
1B00
1B00
0E00
0E00
0E00
0E00
0E00
0E00
0E00
ENDCHAR
STARTCHAR 1EF3
ENCODING 7923
SWIDTH 495 0
DWIDTH 11 0
BBX 11 23 0 -5
BITMAP
1000
3800
1C00
0E00
0400
0000
0000
E0E0
60C0
71C0
3180
3180
3980
1B00
1B00
1F00
0E00
0E00
0E00
0C00
1C00
7800
7000
ENDCHAR
STARTCHAR 1EF4
ENCODING 7924
SWIDTH 495 0
DWIDTH 11 0
BBX 11 18 0 -4
BITMAP
E0E0
60C0
71C0
3180
3980
1B00
1B00
0E00
0E00
0E00
0E00
0E00
0E00
0E00
0000
0E00
0E00
0E00
ENDCHAR
STARTCHAR 1EF5
ENCODING 7925
SWIDTH 495 0
DWIDTH 11 0
BBX 11 16 0 -5
BITMAP
E0E0
60C0
71C0
3180
3180
3980
1B00
1B00
1F00
0E00
0E00
0E00
0CC0
1CE0
78C0
7000
ENDCHAR
STARTCHAR 1EF6
ENCODING 7926
SWIDTH 495 0
DWIDTH 11 0
BBX 11 20 0 0
BITMAP
0E00
0600
0600
0C00
0000
0000
E0E0
60C0
71C0
3180
3980
1B00
1B00
0E00
0E00
0E00
0E00
0E00
0E00
0E00
ENDCHAR
STARTCHAR 1EF7
ENCODING 7927
SWIDTH 495 0
DWIDTH 11 0
BBX 11 23 0 -5
BITMAP
0C00
0E00
0700
0200
0400
0000
0000
E0E0
60C0
71C0
3180
3180
3980
1B00
1B00
1F00
0E00
0E00
0E00
0C00
1C00
7800
7000
ENDCHAR
STARTCHAR 1EF8
ENCODING 7928
SWIDTH 495 0
DWIDTH 11 0
BBX 11 20 0 0
BITMAP
1800
3CC0
3F80
6380
0000
0000
E0E0
60C0
71C0
3180
3980
1B00
1B00
0E00
0E00
0E00
0E00
0E00
0E00
0E00
ENDCHAR
STARTCHAR 1EF9
ENCODING 7929
SWIDTH 495 0
DWIDTH 11 0
BBX 11 22 0 -5
BITMAP
18C0
3CC0
3780
2380
0000
0000
E0E0
60C0
71C0
3180
3180
3980
1B00
1B00
1F00
0E00
0E00
0E00
0C00
1C00
7800
7000
ENDCHAR
STARTCHAR 1F00
ENCODING 7936
SWIDTH 585 0
DWIDTH 13 0
BBX 12 18 1 0
BITMAP
0C00
0E00
0600
0600
0C00
0000
0000
1CE0
7EC0
73C0
E1C0
E1C0
E1C0
E1C0
E180
E3C0
7FE0
3CF0
ENDCHAR
STARTCHAR 1F01
ENCODING 7937
SWIDTH 585 0
DWIDTH 13 0
BBX 12 17 1 0
BITMAP
0E00
1800
0C00
0400
0000
0000
1CE0
7EC0
73C0
E1C0
E1C0
E1C0
E1C0
E180
E3C0
7FE0
3CF0
ENDCHAR
STARTCHAR 1F02
ENCODING 7938
SWIDTH 585 0
DWIDTH 13 0
BBX 12 17 1 0
BITMAP
3700
1B00
1B00
3300
0100
0000
1CE0
7EC0
73C0
E1C0
E1C0
E1C0
E1C0
E180
E3C0
7FE0
3CF0
ENDCHAR
STARTCHAR 1F03
ENCODING 7939
SWIDTH 585 0
DWIDTH 13 0
BBX 12 17 1 0
BITMAP
3E00
6300
2300
3300
0100
0000
1CE0
7EC0
73C0
E1C0
E1C0
E1C0
E1C0
E180
E3C0
7FE0
3CF0
ENDCHAR
STARTCHAR 1F04
ENCODING 7940
SWIDTH 585 0
DWIDTH 13 0
BBX 12 17 1 0
BITMAP
3380
1B00
1B00
3300
0200
0000
1CE0
7EC0
73C0
E1C0
E1C0
E1C0
E1C0
E180
E3C0
7FE0
3CF0
ENDCHAR
STARTCHAR 1F05
ENCODING 7941
SWIDTH 585 0
DWIDTH 13 0
BBX 12 17 1 0
BITMAP
1B00
3300
3300
1200
0200
0400
1CE0
7EC0
73C0
E1C0
E1C0
E1C0
E1C0
E180
E3C0
7FE0
3CF0
ENDCHAR
STARTCHAR 1F06
ENCODING 7942
SWIDTH 585 0
DWIDTH 13 0
BBX 12 17 1 0
BITMAP
3F80
0000
0C00
0600
0C00
0000
1CE0
7EC0
73C0
E1C0
E1C0
E1C0
E1C0
E180
E3C0
7FE0
3CF0
ENDCHAR
STARTCHAR 1F07
ENCODING 7943
SWIDTH 585 0
DWIDTH 13 0
BBX 12 17 1 0
BITMAP
3F80
0000
0E00
0800
0C00
0000
1CE0
7EC0
73C0
E1C0
E1C0
E1C0
E1C0
E180
E3C0
7FE0
3CF0
ENDCHAR
STARTCHAR 1F08
ENCODING 7944
SWIDTH 630 0
DWIDTH 14 0
BBX 14 14 0 0
BITMAP
C380
E780
76C0
26C0
6EC0
0CE0
0C60
1C60
1FF0
1FF0
3830
3838
3018
701C
ENDCHAR
STARTCHAR 1F09
ENCODING 7945
SWIDTH 585 0
DWIDTH 13 0
BBX 13 14 0 0
BITMAP
6380
E780
C7C0
C6C0
ECC0
0CE0
0C60
1860
1FF0
1FF0
3830
3038
3038
7018
ENDCHAR
STARTCHAR 1F0A
ENCODING 7946
SWIDTH 765 0
DWIDTH 17 0
BBX 17 14 0 0
BITMAP
CC7000
EC7800
6CF800
64D800
C6DC00
01CC00
018C00
018E00
03FE00
03FE00
030700
070300
070300
060380
ENDCHAR
STARTCHAR 1F0B
ENCODING 7947
SWIDTH 765 0
DWIDTH 17 0
BBX 17 14 0 0
BITMAP
6C7000
EC7800
CCD800
84D800
C6DC00
01CC00
018C00
018E00
03FE00
03FE00
030700
070300
070300
060380
ENDCHAR
STARTCHAR 1F0C
ENCODING 7948
SWIDTH 765 0
DWIDTH 17 0
BBX 17 14 0 0
BITMAP
CE7000
EC7800
6CD800
6CD800
C8DC00
01CC00
018C00
018E00
03FE00
03FE00
030700
070700
060300
0E0380
ENDCHAR
STARTCHAR 1F0D
ENCODING 7949
SWIDTH 765 0
DWIDTH 17 0
BBX 17 14 0 0
BITMAP
6E7000
EC7800
CCD800
8CD800
C8DC00
018C00
018C00
018E00
03FE00
03FE00
030700
070700
060300
0E0380
ENDCHAR
STARTCHAR 1F0E
ENCODING 7950
SWIDTH 630 0
DWIDTH 14 0
BBX 15 14 -1 0
BITMAP
7DE0
7DE0
B9E0
1BB0
3330
0330
0738
0618
07F8
0FFC
0C0C
0C0C
1C0E
1C0E
ENDCHAR
STARTCHAR 1F0F
ENCODING 7951
SWIDTH 630 0
DWIDTH 14 0
BBX 15 14 -1 0
BITMAP
7DE0
7DE0
B9E0
23B0
3330
0330
0738
0618
07F8
0FFC
0C0C
0C0C
1C0E
1C0E
ENDCHAR
STARTCHAR 1F10
ENCODING 7952
SWIDTH 450 0
DWIDTH 10 0
BBX 9 18 1 0
BITMAP
1800
1C00
0E00
0C00
0800
0000
0000
3E00
7F00
E100
6000
7C00
7C00
E000
C000
E100
7F80
3E00
ENDCHAR
STARTCHAR 1F11
ENCODING 7953
SWIDTH 450 0
DWIDTH 10 0
BBX 9 17 1 0
BITMAP
1C00
1800
1800
0C00
0000
0000
3E00
7F00
E100
6000
7C00
7C00
E000
C000
E100
7F80
3E00
ENDCHAR
STARTCHAR 1F12
ENCODING 7954
SWIDTH 450 0
DWIDTH 10 0
BBX 9 17 1 0
BITMAP
6600
3600
3600
6200
0200
0100
3E00
7F00
E100
6000
7C00
7C00
E000
C000
E100
7F80
3E00
ENDCHAR
STARTCHAR 1F13
ENCODING 7955
SWIDTH 450 0
DWIDTH 10 0
BBX 9 17 1 0
BITMAP
3E00
6600
6600
2600
0200
0000
3E00
7F00
E100
6000
7C00
7C00
E000
C000
E100
7F80
3E00
ENDCHAR
STARTCHAR 1F14
ENCODING 7956
SWIDTH 450 0
DWIDTH 10 0
BBX 9 17 1 0
BITMAP
6300
3600
3600
6600
0400
0000
3E00
7F00
E100
6000
7C00
7C00
E000
C000
E100
7F80
3E00
ENDCHAR
STARTCHAR 1F15
ENCODING 7957
SWIDTH 450 0
DWIDTH 10 0
BBX 9 17 1 0
BITMAP
3700
6600
6600
3600
0400
0000
3E00
7F00
E100
6000
7C00
7C00
E000
C000
E100
7F80
3E00
ENDCHAR
STARTCHAR 1F18
ENCODING 7960
SWIDTH 675 0
DWIDTH 15 0
BBX 14 14 0 0
BITMAP
C7FC
E7FC
6600
2600
E600
0600
07F8
07F8
0600
0600
0600
0600
07FC
07FC
ENDCHAR
STARTCHAR 1F19
ENCODING 7961
SWIDTH 675 0
DWIDTH 15 0
BBX 14 14 0 0
BITMAP
67FC
E7FC
C600
C600
E600
0600
07F8
07F8
0600
0600
0600
0600
07FC
07FC
ENDCHAR
STARTCHAR 1F1A
ENCODING 7962
SWIDTH 810 0
DWIDTH 18 0
BBX 17 14 0 0
BITMAP
CCFF80
ECFF80
6CE000
64E000
C6E000
00E000
00FF00
00FF00
00E000
00E000
00E000
00E000
00FF80
00FF80
ENDCHAR
STARTCHAR 1F1B
ENCODING 7963
SWIDTH 810 0
DWIDTH 18 0
BBX 17 14 0 0
BITMAP
6CFF80
ECFF80
CCE000
84E000
C6E000
00E000
00FF00
00FF00
00E000
00E000
00E000
00E000
00FF80
00FF80
ENDCHAR
STARTCHAR 1F1C
ENCODING 7964
SWIDTH 810 0
DWIDTH 18 0
BBX 17 14 0 0
BITMAP
CEFF80
ECFF80
6CC000
6CC000
C8C000
00C000
00FF00
00FF00
00C000
00C000
00C000
00C000
00FF80
00FF80
ENDCHAR
STARTCHAR 1F1D
ENCODING 7965
SWIDTH 810 0
DWIDTH 18 0
BBX 17 14 0 0
BITMAP
6EFF80
ECFF80
CCC000
8CC000
C8C000
00C000
00FF00
00FF00
00C000
00C000
00C000
00C000
00FF80
00FF80
ENDCHAR
STARTCHAR 1F20
ENCODING 7968
SWIDTH 540 0
DWIDTH 12 0
BBX 10 21 1 -3
BITMAP
0C00
0E00
0700
0600
0400
0000
0000
E700
6F80
71C0
71C0
61C0
61C0
61C0
61C0
61C0
61C0
61C0
01C0
01C0
01C0
ENDCHAR
STARTCHAR 1F21
ENCODING 7969
SWIDTH 540 0
DWIDTH 12 0
BBX 10 20 1 -3
BITMAP
0E00
0C00
0C00
0600
0000
0000
E700
6F80
71C0
71C0
61C0
61C0
61C0
61C0
61C0
61C0
61C0
01C0
01C0
01C0
ENDCHAR
STARTCHAR 1F22
ENCODING 7970
SWIDTH 540 0
DWIDTH 12 0
BBX 10 20 1 -3
BITMAP
3300
1B00
1B00
3100
0100
0080
E700
6F80
71C0
71C0
61C0
61C0
61C0
61C0
61C0
61C0
61C0
01C0
01C0
01C0
ENDCHAR
STARTCHAR 1F23
ENCODING 7971
SWIDTH 540 0
DWIDTH 12 0
BBX 10 20 1 -3
BITMAP
1F00
3300
3300
1300
0100
0000
E700
6F80
71C0
71C0
61C0
61C0
61C0
61C0
61C0
61C0
61C0
01C0
01C0
01C0
ENDCHAR
STARTCHAR 1F24
ENCODING 7972
SWIDTH 540 0
DWIDTH 12 0
BBX 10 20 1 -3
BITMAP
3180
1B00
1B00
3300
0200
0000
E700
6F80
71C0
71C0
61C0
61C0
61C0
61C0
61C0
61C0
61C0
01C0
01C0
01C0
ENDCHAR
STARTCHAR 1F25
ENCODING 7973
SWIDTH 540 0
DWIDTH 12 0
BBX 10 20 1 -3
BITMAP
1B80
3300
3300
1300
0200
0000
E700
6F80
71C0
71C0
61C0
61C0
61C0
61C0
61C0
61C0
61C0
01C0
01C0
01C0
ENDCHAR
STARTCHAR 1F26
ENCODING 7974
SWIDTH 540 0
DWIDTH 12 0
BBX 10 20 1 -3
BITMAP
3F80
0000
0E00
0600
0400
0000
E700
6F80
71C0
71C0
61C0
61C0
61C0
61C0
61C0
61C0
61C0
01C0
01C0
01C0
ENDCHAR
STARTCHAR 1F27
ENCODING 7975
SWIDTH 540 0
DWIDTH 12 0
BBX 10 20 1 -3
BITMAP
3F80
0000
0E00
0C00
0400
0000
E700
6F80
71C0
71C0
61C0
61C0
61C0
61C0
61C0
61C0
61C0
01C0
01C0
01C0
ENDCHAR
STARTCHAR 1F28
ENCODING 7976
SWIDTH 810 0
DWIDTH 18 0
BBX 16 14 0 0
BITMAP
C607
E607
6607
2607
E607
0607
07FF
07FF
0607
0607
0607
0607
0607
0607
ENDCHAR
STARTCHAR 1F29
ENCODING 7977
SWIDTH 810 0
DWIDTH 18 0
BBX 16 14 0 0
BITMAP
6607
E607
C607
C607
E607
0607
07FF
07FF
0607
0607
0607
0607
0607
0607
ENDCHAR
STARTCHAR 1F2A
ENCODING 7978
SWIDTH 945 0
DWIDTH 21 0
BBX 19 14 0 0
BITMAP
CCE0E0
ECE0E0
6CE0E0
64E0E0
C6E0E0
00E0E0
00FFE0
00FFE0
00E0E0
00E0E0
00E0E0
00E0E0
00E0E0
00E0E0
ENDCHAR
STARTCHAR 1F2B
ENCODING 7979
SWIDTH 945 0
DWIDTH 21 0
BBX 19 14 0 0
BITMAP
6CE0E0
ECE0E0
CCE0E0
84E0E0
C6E0E0
00E0E0
00FFE0
00FFE0
00E0E0
00E0E0
00E0E0
00E0E0
00E0E0
00E0E0
ENDCHAR
STARTCHAR 1F2C
ENCODING 7980
SWIDTH 945 0
DWIDTH 21 0
BBX 19 14 0 0
BITMAP
CEC0E0
ECC0E0
6CC0E0
6CC0E0
C8C0E0
00C0E0
00FFE0
00FFE0
00C0E0
00C0E0
00C0E0
00C0E0
00C0E0
00C0E0
ENDCHAR
STARTCHAR 1F2D
ENCODING 7981
SWIDTH 945 0
DWIDTH 21 0
BBX 19 14 0 0
BITMAP
6EC0E0
ECC0E0
CCC0E0
8CC0E0
C8C0E0
00C0E0
00FFE0
00FFE0
00C0E0
00C0E0
00C0E0
00C0E0
00C0E0
00C0E0
ENDCHAR
STARTCHAR 1F2E
ENCODING 7982
SWIDTH 855 0
DWIDTH 19 0
BBX 18 14 -1 0
BITMAP
7DC0C0
7DC0C0
B9C0C0
19C0C0
31C0C0
01C0C0
01FFC0
01FFC0
01C0C0
01C0C0
01C0C0
01C0C0
01C0C0
01C0C0
ENDCHAR
STARTCHAR 1F2F
ENCODING 7983
SWIDTH 855 0
DWIDTH 19 0
BBX 18 14 -1 0
BITMAP
7DC0C0
7DC0C0
B9C0C0
21C0C0
31C0C0
01C0C0
01FFC0
01FFC0
01C0C0
01C0C0
01C0C0
01C0C0
01C0C0
01C0C0
ENDCHAR
STARTCHAR 1F30
ENCODING 7984
SWIDTH 270 0
DWIDTH 6 0
BBX 5 18 1 0
BITMAP
E0
F0
30
30
60
00
00
60
60
60
60
60
60
60
60
60
78
78
ENDCHAR
STARTCHAR 1F31
ENCODING 7985
SWIDTH 270 0
DWIDTH 6 0
BBX 5 17 1 0
BITMAP
70
C0
C0
60
00
00
60
60
60
60
60
60
60
60
60
78
78
ENDCHAR
STARTCHAR 1F32
ENCODING 7986
SWIDTH 270 0
DWIDTH 6 0
BBX 7 17 -1 0
BITMAP
CC
6C
64
46
06
00
18
18
18
18
18
18
18
18
18
1E
1E
ENDCHAR
STARTCHAR 1F33
ENCODING 7987
SWIDTH 270 0
DWIDTH 6 0
BBX 7 17 -1 0
BITMAP
6C
CC
CC
66
06
00
18
18
18
18
18
18
18
18
18
1E
1E
ENDCHAR
STARTCHAR 1F34
ENCODING 7988
SWIDTH 270 0
DWIDTH 6 0
BBX 7 17 -1 0
BITMAP
C6
66
6C
4C
0C
00
18
18
18
18
18
18
18
18
18
1E
1E
ENDCHAR
STARTCHAR 1F35
ENCODING 7989
SWIDTH 270 0
DWIDTH 6 0
BBX 7 17 -1 0
BITMAP
66
C6
CC
6C
0C
00
18
18
18
18
18
18
18
18
18
1E
1E
ENDCHAR
STARTCHAR 1F36
ENCODING 7990
SWIDTH 270 0
DWIDTH 6 0
BBX 6 17 0 0
BITMAP
FC
00
70
18
30
00
30
30
30
30
30
30
30
30
30
3C
3C
ENDCHAR
STARTCHAR 1F37
ENCODING 7991
SWIDTH 270 0
DWIDTH 6 0
BBX 6 17 0 0
BITMAP
FC
00
30
60
30
00
30
30
30
30
30
30
30
30
30
3C
3C
ENDCHAR
STARTCHAR 1F38
ENCODING 7992
SWIDTH 405 0
DWIDTH 9 0
BBX 7 14 0 0
BITMAP
C6
E6
66
26
E6
06
06
06
06
06
06
06
06
06
ENDCHAR
STARTCHAR 1F39
ENCODING 7993
SWIDTH 405 0
DWIDTH 9 0
BBX 7 14 0 0
BITMAP
66
E6
C6
C6
E6
06
06
06
06
06
06
06
06
06
ENDCHAR
STARTCHAR 1F3A
ENCODING 7994
SWIDTH 540 0
DWIDTH 12 0
BBX 11 14 0 0
BITMAP
CCE0
ECE0
6CE0
64E0
C6E0
00E0
00E0
00E0
00E0
00E0
00E0
00E0
00E0
00E0
ENDCHAR
STARTCHAR 1F3B
ENCODING 7995
SWIDTH 540 0
DWIDTH 12 0
BBX 11 14 0 0
BITMAP
6CE0
ECE0
CCE0
84E0
C6E0
00E0
00E0
00E0
00E0
00E0
00E0
00E0
00E0
00E0
ENDCHAR
STARTCHAR 1F3C
ENCODING 7996
SWIDTH 540 0
DWIDTH 12 0
BBX 10 14 0 0
BITMAP
CEC0
ECC0
6CC0
6CC0
C8C0
00C0
00C0
00C0
00C0
00C0
00C0
00C0
00C0
00C0
ENDCHAR
STARTCHAR 1F3D
ENCODING 7997
SWIDTH 540 0
DWIDTH 12 0
BBX 10 14 0 0
BITMAP
6EC0
ECC0
CCC0
8CC0
C8C0
00C0
00C0
00C0
00C0
00C0
00C0
00C0
00C0
00C0
ENDCHAR
STARTCHAR 1F3E
ENCODING 7998
SWIDTH 495 0
DWIDTH 11 0
BBX 10 14 -1 0
BITMAP
7DC0
7DC0
B9C0
19C0
31C0
01C0
01C0
01C0
01C0
01C0
01C0
01C0
01C0
01C0
ENDCHAR
STARTCHAR 1F3F
ENCODING 7999
SWIDTH 495 0
DWIDTH 11 0
BBX 10 14 -1 0
BITMAP
7DC0
7DC0
B9C0
21C0
31C0
01C0
01C0
01C0
01C0
01C0
01C0
01C0
01C0
01C0
ENDCHAR
STARTCHAR 1F40
ENCODING 8000
SWIDTH 540 0
DWIDTH 12 0
BBX 10 18 1 0
BITMAP
1C00
1E00
0600
0600
0C00
0000
0000
1E00
7F80
7380
E1C0
E1C0
E1C0
E1C0
E1C0
7380
7F80
1E00
ENDCHAR
STARTCHAR 1F41
ENCODING 8001
SWIDTH 540 0
DWIDTH 12 0
BBX 10 17 1 0
BITMAP
0E00
1800
1800
0C00
0000
0000
1E00
7F80
7380
E1C0
E1C0
E1C0
E1C0
E1C0
7380
7F80
1E00
ENDCHAR
STARTCHAR 1F42
ENCODING 8002
SWIDTH 540 0
DWIDTH 12 0
BBX 10 17 1 0
BITMAP
7600
1600
1300
3300
0300
0000
1E00
7F80
7380
E1C0
E1C0
E1C0
E1C0
E1C0
7380
7F80
1E00
ENDCHAR
STARTCHAR 1F43
ENCODING 8003
SWIDTH 540 0
DWIDTH 12 0
BBX 10 17 1 0
BITMAP
3600
6600
6300
3300
0300
0000
1E00
7F80
7380
E1C0
E1C0
E1C0
E1C0
E1C0
7380
7F80
1E00
ENDCHAR
STARTCHAR 1F44
ENCODING 8004
SWIDTH 540 0
DWIDTH 12 0
BBX 10 17 1 0
BITMAP
7300
1300
1300
3600
0600
0000
1E00
7F80
7380
E1C0
E1C0
E1C0
E1C0
E1C0
7380
7F80
1E00
ENDCHAR
STARTCHAR 1F45
ENCODING 8005
SWIDTH 540 0
DWIDTH 12 0
BBX 10 17 1 0
BITMAP
3B00
6300
6200
3600
0600
0000
1E00
7F80
7380
E1C0
E1C0
E1C0
E1C0
E1C0
7380
7F80
1E00
ENDCHAR
STARTCHAR 1F48
ENCODING 8008
SWIDTH 765 0
DWIDTH 17 0
BBX 16 14 0 0
BITMAP
C1F8
E3FC
670E
2E07
EE07
0C03
0C03
0C03
0C03
0E07
0E07
070E
03FC
01F8
ENDCHAR
STARTCHAR 1F49
ENCODING 8009
SWIDTH 765 0
DWIDTH 17 0
BBX 16 14 0 0
BITMAP
61F0
E7FC
C70E
CE06
EC07
1C07
1C07
1C07
1C07
0C07
0E0E
071E
03FC
01F0
ENDCHAR
STARTCHAR 1F4A
ENCODING 8010
SWIDTH 945 0
DWIDTH 21 0
BBX 20 14 0 0
BITMAP
CC1F00
EC7FC0
6CF1C0
64E0E0
C7C060
01C070
01C070
01C070
01C070
01C060
00E0E0
00F1C0
007FC0
001F00
ENDCHAR
STARTCHAR 1F4B
ENCODING 8011
SWIDTH 945 0
DWIDTH 21 0
BBX 20 14 0 0
BITMAP
6C1F00
EC7FC0
CCE1C0
84C0E0
C7C060
01C070
01C070
01C070
01C070
01C060
00E0E0
00F1C0
007F80
001F00
ENDCHAR
STARTCHAR 1F4C
ENCODING 8012
SWIDTH 900 0
DWIDTH 20 0
BBX 19 14 0 0
BITMAP
CE3F00
EC7F80
6CE1C0
6DC0E0
C9C0E0
018060
018060
018060
018060
01C0E0
01C0E0
00E1C0
007F80
003F00
ENDCHAR
STARTCHAR 1F4D
ENCODING 8013
SWIDTH 900 0
DWIDTH 20 0
BBX 19 14 0 0
BITMAP
6E3F00
EC7F80
CCE1C0
8DC0E0
C9C0E0
018060
018060
018060
018060
01C0E0
01C0E0
00E1C0
007F80
003F00
ENDCHAR
STARTCHAR 1F50
ENCODING 8016
SWIDTH 495 0
DWIDTH 11 0
BBX 9 18 1 0
BITMAP
1800
1C00
0E00
0C00
1800
0000
0000
E380
E380
E180
E180
E180
E180
E180
E180
6380
7F00
3E00
ENDCHAR
STARTCHAR 1F51
ENCODING 8017
SWIDTH 495 0
DWIDTH 11 0
BBX 9 17 1 0
BITMAP
1C00
1800
1800
0C00
0000
0000
E380
E380
E180
E180
E180
E180
E180
E180
6380
7F00
3E00
ENDCHAR
STARTCHAR 1F52
ENCODING 8018
SWIDTH 495 0
DWIDTH 11 0
BBX 9 17 1 0
BITMAP
6600
3600
3600
6200
0200
0000
E380
E380
E180
E180
E180
E180
E180
E180
6380
7F00
3E00
ENDCHAR
STARTCHAR 1F53
ENCODING 8019
SWIDTH 495 0
DWIDTH 11 0
BBX 9 17 1 0
BITMAP
3E00
6600
4600
2600
0200
0000
E380
E380
E180
E180
E180
E180
E180
E180
6380
7F00
3E00
ENDCHAR
STARTCHAR 1F54
ENCODING 8020
SWIDTH 495 0
DWIDTH 11 0
BBX 9 17 1 0
BITMAP
6300
3600
3600
6600
0400
0000
E380
E380
E180
E180
E180
E180
E180
E180
6380
7F00
3E00
ENDCHAR
STARTCHAR 1F55
ENCODING 8021
SWIDTH 495 0
DWIDTH 11 0
BBX 9 17 1 0
BITMAP
3700
6600
6600
2600
0400
0000
E380
E380
E180
E180
E180
E180
E180
E180
6380
7F00
3E00
ENDCHAR
STARTCHAR 1F56
ENCODING 8022
SWIDTH 495 0
DWIDTH 11 0
BBX 9 17 1 0
BITMAP
7F00
0000
1C00
0C00
0800
0000
E380
E380
E180
E180
E180
E180
E180
E180
6380
7F00
3E00
ENDCHAR
STARTCHAR 1F57
ENCODING 8023
SWIDTH 495 0
DWIDTH 11 0
BBX 9 17 1 0
BITMAP
7F00
0000
1C00
1800
0800
0000
E380
E380
E180
E180
E180
E180
E180
E180
6380
7F00
3E00
ENDCHAR
STARTCHAR 1F59
ENCODING 8025
SWIDTH 675 0
DWIDTH 15 0
BBX 15 14 0 0
BITMAP
6E0E
E60E
C70C
C31C
E398
01B8
01F0
00F0
00E0
00E0
00E0
00E0
00E0
00E0
ENDCHAR
STARTCHAR 1F5B
ENCODING 8027
SWIDTH 855 0
DWIDTH 19 0
BBX 19 14 0 0
BITMAP
6DC0E0
ECE1C0
CC6180
847380
C63300
003300
001E00
001E00
000C00
000C00
000C00
000C00
000C00
000C00
ENDCHAR
STARTCHAR 1F5D
ENCODING 8029
SWIDTH 810 0
DWIDTH 18 0
BBX 18 14 0 0
BITMAP
6FC0C0
ECE1C0
CCE180
8C6380
C87300
003700
003E00
001E00
001C00
000C00
000C00
000C00
000C00
000C00
ENDCHAR
STARTCHAR 1F5F
ENCODING 8031
SWIDTH 765 0
DWIDTH 17 0
BBX 18 14 -1 0
BITMAP
7D81C0
7DC380
B8C380
20E300
306700
007600
003E00
003C00
001C00
001800
001800
001800
001800
001800
ENDCHAR
STARTCHAR 1F60
ENCODING 8032
SWIDTH 720 0
DWIDTH 16 0
BBX 14 18 1 0
BITMAP
0700
0780
0180
0180
0300
0000
0000
2010
7038
6018
E01C
E31C
C31C
C31C
E31C
E798
7FF8
3CF0
ENDCHAR
STARTCHAR 1F61
ENCODING 8033
SWIDTH 720 0
DWIDTH 16 0
BBX 14 17 1 0
BITMAP
0380
0600
0600
0300
0000
0000
2010
7038
6018
E01C
E31C
C31C
C31C
E31C
E798
7FF8
3CF0
ENDCHAR
STARTCHAR 1F62
ENCODING 8034
SWIDTH 720 0
DWIDTH 16 0
BBX 14 17 1 0
BITMAP
1D80
0580
04C0
08C0
00C0
0000
2010
7038
6018
E01C
E31C
C31C
C31C
E31C
E798
7FF8
3CF0
ENDCHAR
STARTCHAR 1F63
ENCODING 8035
SWIDTH 720 0
DWIDTH 16 0
BBX 14 17 1 0
BITMAP
0D80
1980
1880
0CC0
00C0
0000
2010
7038
6018
E01C
E31C
C31C
C31C
E31C
E798
7FF8
3CF0
ENDCHAR
STARTCHAR 1F64
ENCODING 8036
SWIDTH 720 0
DWIDTH 16 0
BBX 14 17 1 0
BITMAP
1CC0
04C0
0480
0980
0180
0000
2010
7038
6018
E01C
E31C
C31C
C31C
E31C
E798
7FF8
3CF0
ENDCHAR
STARTCHAR 1F65
ENCODING 8037
SWIDTH 720 0
DWIDTH 16 0
BBX 14 17 1 0
BITMAP
0CC0
1AC0
1980
0D80
0180
0000
2010
7038
6018
E01C
E31C
C31C
C31C
E31C
E798
7FF8
3CF0
ENDCHAR
STARTCHAR 1F66
ENCODING 8038
SWIDTH 720 0
DWIDTH 16 0
BBX 14 17 1 0
BITMAP
0FC0
0000
0300
0580
0300
0000
2010
7038
6018
E01C
E31C
C31C
C31C
E31C
E798
7FF8
3CF0
ENDCHAR
STARTCHAR 1F67
ENCODING 8039
SWIDTH 720 0
DWIDTH 16 0
BBX 14 17 1 0
BITMAP
0FC0
0000
0300
0680
0300
0000
2010
7038
6018
E01C
E31C
C31C
C31C
E31C
E798
7FF8
3CF0
ENDCHAR
STARTCHAR 1F68
ENCODING 8040
SWIDTH 810 0
DWIDTH 18 0
BBX 17 14 0 0
BITMAP
C0F800
E3FE00
670E00
260700
EE0300
0E0380
0E0380
0E0380
0E0300
060700
070600
038E00
0F9F80
0F9F80
ENDCHAR
STARTCHAR 1F69
ENCODING 8041
SWIDTH 810 0
DWIDTH 18 0
BBX 17 14 0 0
BITMAP
61F800
E3FC00
C70E00
CE0700
EE0700
0C0300
0C0300
0C0300
0C0700
0E0700
060E00
030C00
1F9F80
1F9F80
ENDCHAR
STARTCHAR 1F6A
ENCODING 8042
SWIDTH 945 0
DWIDTH 21 0
BBX 20 14 0 0
BITMAP
CC1F00
EC7FC0
6CF1E0
64E0E0
C7C070
01C070
01C070
01C070
01C070
00C060
00E0E0
0071C0
01F1F0
01F1F0
ENDCHAR
STARTCHAR 1F6B
ENCODING 8043
SWIDTH 945 0
DWIDTH 21 0
BBX 20 14 0 0
BITMAP
6C1F00
EC7FC0
CCF1E0
84E0E0
C7C070
01C070
01C070
01C070
01C070
00C060
00E0E0
0071C0
01F1F0
01F1F0
ENDCHAR
STARTCHAR 1F6C
ENCODING 8044
SWIDTH 945 0
DWIDTH 21 0
BBX 20 14 0 0
BITMAP
CE1F00
EC7FC0
6CF1E0
6CC0E0
C9C060
01C070
01C070
01C070
01C060
00C060
00E0E0
0071C0
01F3F0
01F3F0
ENDCHAR
STARTCHAR 1F6D
ENCODING 8045
SWIDTH 945 0
DWIDTH 21 0
BBX 20 14 0 0
BITMAP
6E1F00
EC7FC0
CCE1C0
8CC0E0
C9C060
01C070
01C070
01C070
01C060
00C0E0
00E0C0
0071C0
01F3F0
01F3F0
ENDCHAR
STARTCHAR 1F6E
ENCODING 8046
SWIDTH 855 0
DWIDTH 19 0
BBX 19 14 -1 0
BITMAP
7C7E00
7CFF00
B9C380
1B81C0
3381C0
0300C0
0300C0
0300C0
0380C0
0381C0
018180
00C300
07E7E0
07E7E0
ENDCHAR
STARTCHAR 1F6F
ENCODING 8047
SWIDTH 855 0
DWIDTH 19 0
BBX 19 14 -1 0
BITMAP
7C7E00
7CFF00
B9C380
2381C0
3381C0
0300C0
0300C0
0300C0
0380C0
0381C0
018180
00C300
07E7E0
07E7E0
ENDCHAR
STARTCHAR 1F70
ENCODING 8048
SWIDTH 585 0
DWIDTH 13 0
BBX 12 18 1 0
BITMAP
1000
3800
1C00
0C00
0600
0000
0000
1CE0
7EC0
73C0
E1C0
E1C0
E1C0
E1C0
E180
E3C0
7FE0
3CF0
ENDCHAR
STARTCHAR 1F71
ENCODING 8049
SWIDTH 585 0
DWIDTH 13 0
BBX 12 18 1 0
BITMAP
0100
0380
0700
0E00
0400
0000
0000
1CE0
7EC0
73C0
E1C0
E1C0
E1C0
E1C0
E180
E3C0
7FE0
3CF0
ENDCHAR
STARTCHAR 1F72
ENCODING 8050
SWIDTH 450 0
DWIDTH 10 0
BBX 9 18 1 0
BITMAP
2000
7000
3800
1C00
0800
0000
0000
3E00
7F00
E100
6000
7C00
7C00
E000
C000
E100
7F80
3E00
ENDCHAR
STARTCHAR 1F73
ENCODING 8051
SWIDTH 450 0
DWIDTH 10 0
BBX 9 18 1 0
BITMAP
0200
0700
0E00
0C00
1800
0000
0000
3E00
7F00
E100
6000
7C00
7C00
E000
C000
E100
7F80
3E00
ENDCHAR
STARTCHAR 1F74
ENCODING 8052
SWIDTH 540 0
DWIDTH 12 0
BBX 10 21 1 -3
BITMAP
1000
3800
1C00
0E00
0400
0000
0000
E700
6F80
71C0
71C0
61C0
61C0
61C0
61C0
61C0
61C0
61C0
01C0
01C0
01C0
ENDCHAR
STARTCHAR 1F75
ENCODING 8053
SWIDTH 540 0
DWIDTH 12 0
BBX 10 21 1 -3
BITMAP
0100
0380
0700
0600
0C00
0000
0000
E700
6F80
71C0
71C0
61C0
61C0
61C0
61C0
61C0
61C0
61C0
01C0
01C0
01C0
ENDCHAR
STARTCHAR 1F76
ENCODING 8054
SWIDTH 270 0
DWIDTH 6 0
BBX 7 18 -1 0
BITMAP
40
E0
70
38
10
00
00
18
18
18
18
18
18
18
18
18
1E
1E
ENDCHAR
STARTCHAR 1F77
ENCODING 8055
SWIDTH 270 0
DWIDTH 6 0
BBX 5 18 2 0
BITMAP
20
30
78
E0
80
00
00
C0
C0
C0
C0
C0
C0
C0
C0
C0
F0
F0
ENDCHAR
STARTCHAR 1F78
ENCODING 8056
SWIDTH 540 0
DWIDTH 12 0
BBX 10 18 1 0
BITMAP
1000
7000
3800
1C00
0400
0000
0000
1E00
7F80
7380
E1C0
E1C0
E1C0
E1C0
E1C0
7380
7F80
1E00
ENDCHAR
STARTCHAR 1F79
ENCODING 8057
SWIDTH 540 0
DWIDTH 12 0
BBX 10 18 1 0
BITMAP
0100
0380
0700
0E00
0C00
0000
0000
1E00
7F80
7380
E1C0
E1C0
E1C0
E1C0
E1C0
7380
7F80
1E00
ENDCHAR
STARTCHAR 1F7A
ENCODING 8058
SWIDTH 495 0
DWIDTH 11 0
BBX 9 18 1 0
BITMAP
2000
7000
3800
1C00
0800
0000
0000
E380
E380
E180
E180
E180
E180
E180
E180
6380
7F00
3E00
ENDCHAR
STARTCHAR 1F7B
ENCODING 8059
SWIDTH 495 0
DWIDTH 11 0
BBX 9 18 1 0
BITMAP
0200
0700
0E00
1C00
0800
0000
0000
E380
E380
E180
E180
E180
E180
E180
E180
6380
7F00
3E00
ENDCHAR
STARTCHAR 1F7C
ENCODING 8060
SWIDTH 720 0
DWIDTH 16 0
BBX 14 18 1 0
BITMAP
0800
1C00
0E00
0700
0300
0000
0000
2010
7038
6018
E01C
E31C
C31C
C31C
E31C
E798
7FF8
3CF0
ENDCHAR
STARTCHAR 1F7D
ENCODING 8061
SWIDTH 720 0
DWIDTH 16 0
BBX 14 18 1 0
BITMAP
0080
00E0
01C0
0380
0200
0000
0000
2010
7038
6018
E01C
E31C
C31C
C31C
E31C
E798
7FF8
3CF0
ENDCHAR
STARTCHAR 1F80
ENCODING 8064
SWIDTH 585 0
DWIDTH 13 0
BBX 12 23 1 -5
BITMAP
0C00
0E00
0600
0600
0C00
0000
0000
1CE0
7EC0
73C0
E1C0
E1C0
E1C0
E1C0
E180
E3C0
7FE0
3CE0
0010
0000
0400
0600
0700
ENDCHAR
STARTCHAR 1F81
ENCODING 8065
SWIDTH 585 0
DWIDTH 13 0
BBX 12 22 1 -5
BITMAP
0E00
1800
0C00
0400
0000
0000
1CE0
7EC0
73C0
E1C0
E1C0
E1C0
E1C0
E180
E3C0
7FE0
3CE0
0010
0000
0400
0600
0700
ENDCHAR
STARTCHAR 1F82
ENCODING 8066
SWIDTH 585 0
DWIDTH 13 0
BBX 12 22 1 -5
BITMAP
3700
1B00
1B00
3300
0100
0000
1CE0
7EC0
73C0
E1C0
E1C0
E1C0
E1C0
E180
E3C0
7FE0
3CE0
0010
0000
0400
0600
0700
ENDCHAR
STARTCHAR 1F83
ENCODING 8067
SWIDTH 585 0
DWIDTH 13 0
BBX 12 22 1 -5
BITMAP
3E00
6300
2300
3300
0100
0000
1CE0
7EC0
73C0
E1C0
E1C0
E1C0
E1C0
E180
E3C0
7FE0
3CE0
0010
0000
0400
0600
0700
ENDCHAR
STARTCHAR 1F84
ENCODING 8068
SWIDTH 585 0
DWIDTH 13 0
BBX 12 22 1 -5
BITMAP
3380
1B00
1B00
3300
0200
0000
1CE0
7EC0
73C0
E1C0
E1C0
E1C0
E1C0
E180
E3C0
7FE0
3CE0
0010
0000
0400
0600
0700
ENDCHAR
STARTCHAR 1F85
ENCODING 8069
SWIDTH 585 0
DWIDTH 13 0
BBX 12 22 1 -5
BITMAP
1B00
3300
3300
1200
0200
0400
1CE0
7EC0
73C0
E1C0
E1C0
E1C0
E1C0
E180
E3C0
7FE0
3CE0
0010
0000
0400
0600
0700
ENDCHAR
STARTCHAR 1F86
ENCODING 8070
SWIDTH 585 0
DWIDTH 13 0
BBX 12 22 1 -5
BITMAP
3F80
0000
0C00
0600
0C00
0000
1CE0
7EC0
73C0
E1C0
E1C0
E1C0
E1C0
E180
E3C0
7FE0
3CE0
0010
0000
0400
0600
0700
ENDCHAR
STARTCHAR 1F87
ENCODING 8071
SWIDTH 585 0
DWIDTH 13 0
BBX 12 22 1 -5
BITMAP
3F80
0000
0E00
0800
0C00
0000
1CE0
7EC0
73C0
E1C0
E1C0
E1C0
E1C0
E180
E3C0
7FE0
3CE0
0010
0000
0400
0600
0700
ENDCHAR
STARTCHAR 1F88
ENCODING 8072
SWIDTH 900 0
DWIDTH 20 0
BBX 19 14 0 0
BITMAP
C38000
E78000
76C000
26C000
6EC000
0CE1C0
0C61C0
1C61C0
1FF1C0
1FF1C0
3831C0
3839C0
3019E0
701CE0
ENDCHAR
STARTCHAR 1F89
ENCODING 8073
SWIDTH 855 0
DWIDTH 19 0
BBX 19 14 0 0
BITMAP
638000
E78000
C7C000
C6C000
ECC000
0CE180
0C6180
186180
1FF180
1FF180
383180
303980
3039E0
7018E0
ENDCHAR
STARTCHAR 1F8A
ENCODING 8074
SWIDTH 1035 0
DWIDTH 23 0
BBX 23 14 0 0
BITMAP
CC7000
EC7800
6CF800
64D800
C6DC00
01CC38
018C38
018E38
03FE38
03FE38
030738
070338
07031E
06039E
ENDCHAR
STARTCHAR 1F8B
ENCODING 8075
SWIDTH 1035 0
DWIDTH 23 0
BBX 23 14 0 0
BITMAP
6C7000
EC7800
CCD800
84D800
C6DC00
01CC38
018C38
018E38
03FE38
03FE38
030738
070338
07031C
06039E
ENDCHAR
STARTCHAR 1F8C
ENCODING 8076
SWIDTH 1035 0
DWIDTH 23 0
BBX 23 14 0 0
BITMAP
CE7000
EC7800
6CD800
6CD800
C8DC00
01CC38
018C38
018E38
03FE38
03FE38
030738
070738
06031C
0E039E
ENDCHAR
STARTCHAR 1F8D
ENCODING 8077
SWIDTH 1035 0
DWIDTH 23 0
BBX 22 14 0 0
BITMAP
6E7000
EC7800
CCD800
8CD800
C8DC00
018C38
018C38
018E38
03FE38
03FE38
030738
070738
06033C
0E039C
ENDCHAR
STARTCHAR 1F8E
ENCODING 8078
SWIDTH 900 0
DWIDTH 20 0
BBX 21 14 -1 0
BITMAP
7DE000
7DE000
B9E000
1BB000
333000
033060
073860
061860
07F860
0FFC60
0C0C60
0C0C60
1C0E78
1C0E38
ENDCHAR
STARTCHAR 1F8F
ENCODING 8079
SWIDTH 900 0
DWIDTH 20 0
BBX 21 14 -1 0
BITMAP
7DE000
7DE000
B9E000
23B000
333000
033060
073860
061860
07F860
0FFC60
0C0C60
0C0C60
1C0E78
1C0E38
ENDCHAR
STARTCHAR 1F90
ENCODING 8080
SWIDTH 540 0
DWIDTH 12 0
BBX 10 23 1 -5
BITMAP
0C00
0E00
0700
0600
0400
0000
0000
E700
6F80
71C0
71C0
61C0
61C0
61C0
61C0
61C0
61C0
61C0
01C0
01C0
61C0
6000
7000
ENDCHAR
STARTCHAR 1F91
ENCODING 8081
SWIDTH 540 0
DWIDTH 12 0
BBX 10 22 1 -5
BITMAP
0E00
0C00
0C00
0600
0000
0000
E700
6F80
71C0
71C0
61C0
61C0
61C0
61C0
61C0
61C0
61C0
01C0
01C0
61C0
6000
7000
ENDCHAR
STARTCHAR 1F92
ENCODING 8082
SWIDTH 540 0
DWIDTH 12 0
BBX 10 22 1 -5
BITMAP
3300
1B00
1B00
3100
0100
0080
E700
6F80
71C0
71C0
61C0
61C0
61C0
61C0
61C0
61C0
61C0
01C0
01C0
61C0
6000
7000
ENDCHAR
STARTCHAR 1F93
ENCODING 8083
SWIDTH 540 0
DWIDTH 12 0
BBX 10 22 1 -5
BITMAP
1F00
3300
3300
1300
0100
0000
E700
6F80
71C0
71C0
61C0
61C0
61C0
61C0
61C0
61C0
61C0
01C0
01C0
61C0
6000
7000
ENDCHAR
STARTCHAR 1F94
ENCODING 8084
SWIDTH 540 0
DWIDTH 12 0
BBX 10 22 1 -5
BITMAP
3180
1B00
1B00
3300
0200
0000
E700
6F80
71C0
71C0
61C0
61C0
61C0
61C0
61C0
61C0
61C0
01C0
01C0
61C0
6000
7000
ENDCHAR
STARTCHAR 1F95
ENCODING 8085
SWIDTH 540 0
DWIDTH 12 0
BBX 10 22 1 -5
BITMAP
1B80
3300
3300
1300
0200
0000
E700
6F80
71C0
71C0
61C0
61C0
61C0
61C0
61C0
61C0
61C0
01C0
01C0
61C0
6000
7000
ENDCHAR
STARTCHAR 1F96
ENCODING 8086
SWIDTH 540 0
DWIDTH 12 0
BBX 10 22 1 -5
BITMAP
3F80
0000
0E00
0600
0400
0000
E700
6F80
71C0
71C0
61C0
61C0
61C0
61C0
61C0
61C0
61C0
01C0
01C0
61C0
6000
7000
ENDCHAR
STARTCHAR 1F97
ENCODING 8087
SWIDTH 540 0
DWIDTH 12 0
BBX 10 22 1 -5
BITMAP
3F80
0000
0E00
0C00
0400
0000
E700
6F80
71C0
71C0
61C0
61C0
61C0
61C0
61C0
61C0
61C0
01C0
01C0
61C0
6000
7000
ENDCHAR
STARTCHAR 1F98
ENCODING 8088
SWIDTH 1080 0
DWIDTH 24 0
BBX 23 14 0 0
BITMAP
C60700
E60700
660700
260700
E60700
06071C
07FF1C
07FF1C
06071C
06071C
06071C
06071C
06071E
06070E
ENDCHAR
STARTCHAR 1F99
ENCODING 8089
SWIDTH 1080 0
DWIDTH 24 0
BBX 23 14 0 0
BITMAP
660700
E60700
C60700
C60700
E60700
06071C
07FF1C
07FF1C
06071C
06071C
06071C
06071C
06071E
06070E
ENDCHAR
STARTCHAR 1F9A
ENCODING 8090
SWIDTH 1215 0
DWIDTH 27 0
BBX 27 14 0 0
BITMAP
CCE0E000
ECE0E000
6CE0E000
64E0E000
C6E0E000
00E0E380
00FFE380
00FFE380
00E0E380
00E0E380
00E0E380
00E0E380
00E0E1C0
00E0E1E0
ENDCHAR
STARTCHAR 1F9B
ENCODING 8091
SWIDTH 1215 0
DWIDTH 27 0
BBX 27 14 0 0
BITMAP
6CE0E000
ECE0E000
CCE0E000
84E0E000
C6E0E000
00E0E380
00FFE380
00FFE380
00E0E380
00E0E380
00E0E380
00E0E380
00E0E1C0
00E0E1E0
ENDCHAR
STARTCHAR 1F9C
ENCODING 8092
SWIDTH 1215 0
DWIDTH 27 0
BBX 26 14 0 0
BITMAP
CEC0E000
ECC0E000
6CC0E000
6CC0E000
C8C0E000
00C0E380
00FFE380
00FFE380
00C0E380
00C0E380
00C0E380
00C0E380
00C0E3C0
00C0E1C0
ENDCHAR
STARTCHAR 1F9D
ENCODING 8093
SWIDTH 1215 0
DWIDTH 27 0
BBX 26 14 0 0
BITMAP
6EC0E000
ECC0E000
CCC0E000
8CC0E000
C8C0E000
00C0E380
00FFE380
00FFE380
00C0E380
00C0E380
00C0E380
00C0E380
00C0E3C0
00C0E1C0
ENDCHAR
STARTCHAR 1F9E
ENCODING 8094
SWIDTH 1125 0
DWIDTH 25 0
BBX 26 14 -1 0
BITMAP
7DC0C000
7DC0C000
B9C0C000
19C0C000
31C0C000
01C0C300
01FFC300
01FFC300
01C0C300
01C0C300
01C0C300
01C0C300
01C0C3C0
01C0C1C0
ENDCHAR
STARTCHAR 1F9F
ENCODING 8095
SWIDTH 1125 0
DWIDTH 25 0
BBX 26 14 -1 0
BITMAP
7DC0C000
7DC0C000
B9C0C000
21C0C000
31C0C000
01C0C300
01FFC300
01FFC300
01C0C300
01C0C300
01C0C300
01C0C300
01C0C3C0
01C0C1C0
ENDCHAR
STARTCHAR 1FA0
ENCODING 8096
SWIDTH 720 0
DWIDTH 16 0
BBX 14 23 1 -5
BITMAP
0700
0780
0180
0180
0300
0000
0000
2010
7038
6018
E01C
E31C
C31C
C31C
E31C
E798
7FF8
3CF0
0000
0000
0300
0300
0380
ENDCHAR
STARTCHAR 1FA1
ENCODING 8097
SWIDTH 720 0
DWIDTH 16 0
BBX 14 22 1 -5
BITMAP
0380
0600
0600
0300
0000
0000
2010
7038
6018
E01C
E31C
C31C
C31C
E31C
E798
7FF8
3CF0
0000
0000
0300
0300
0380
ENDCHAR
STARTCHAR 1FA2
ENCODING 8098
SWIDTH 720 0
DWIDTH 16 0
BBX 14 22 1 -5
BITMAP
1D80
0580
04C0
08C0
00C0
0000
2010
7038
6018
E01C
E31C
C31C
C31C
E31C
E798
7FF8
3CF0
0000
0000
0300
0300
0380
ENDCHAR
STARTCHAR 1FA3
ENCODING 8099
SWIDTH 720 0
DWIDTH 16 0
BBX 14 22 1 -5
BITMAP
0D80
1980
1880
0CC0
00C0
0000
2010
7038
6018
E01C
E31C
C31C
C31C
E31C
E798
7FF8
3CF0
0000
0000
0300
0300
0380
ENDCHAR
STARTCHAR 1FA4
ENCODING 8100
SWIDTH 720 0
DWIDTH 16 0
BBX 14 22 1 -5
BITMAP
1CC0
04C0
0480
0980
0180
0000
2010
7038
6018
E01C
E31C
C31C
C31C
E31C
E798
7FF8
3CF0
0000
0000
0300
0300
0380
ENDCHAR
STARTCHAR 1FA5
ENCODING 8101
SWIDTH 720 0
DWIDTH 16 0
BBX 14 22 1 -5
BITMAP
0CC0
1AC0
1980
0D80
0180
0000
2010
7038
6018
E01C
E31C
C31C
C31C
E31C
E798
7FF8
3CF0
0000
0000
0300
0300
0380
ENDCHAR
STARTCHAR 1FA6
ENCODING 8102
SWIDTH 720 0
DWIDTH 16 0
BBX 14 22 1 -5
BITMAP
0FC0
0000
0300
0580
0300
0000
2010
7038
6018
E01C
E31C
C31C
C31C
E31C
E798
7FF8
3CF0
0000
0000
0300
0300
0380
ENDCHAR
STARTCHAR 1FA7
ENCODING 8103
SWIDTH 720 0
DWIDTH 16 0
BBX 14 22 1 -5
BITMAP
0FC0
0000
0300
0680
0300
0000
2010
7038
6018
E01C
E31C
C31C
C31C
E31C
E798
7FF8
3CF0
0000
0000
0300
0300
0380
ENDCHAR
STARTCHAR 1FA8
ENCODING 8104
SWIDTH 1080 0
DWIDTH 24 0
BBX 24 14 0 0
BITMAP
C0F800
E3FE00
670E00
260700
EE0300
0E039C
0E039C
0E039C
0E031C
06071C
07061C
038E1C
0F9F8E
0F9F8F
ENDCHAR
STARTCHAR 1FA9
ENCODING 8105
SWIDTH 1080 0
DWIDTH 24 0
BBX 23 14 0 0
BITMAP
61F800
E3FC00
C70E00
CE0700
EE0700
0C031C
0C031C
0C031C
0C071C
0E071C
060E18
030C1C
1F9F9E
1F9F8E
ENDCHAR
STARTCHAR 1FAA
ENCODING 8106
SWIDTH 1215 0
DWIDTH 27 0
BBX 27 14 0 0
BITMAP
CC1F0000
EC7FC000
6CF1E000
64E0E000
C7C07000
01C07180
01C07180
01C07180
01C07180
00C06180
00E0E180
0071C180
01F1F1E0
01F1F0E0
ENDCHAR
STARTCHAR 1FAB
ENCODING 8107
SWIDTH 1215 0
DWIDTH 27 0
BBX 27 14 0 0
BITMAP
6C1F0000
EC7FC000
CCF1E000
84E0E000
C7C07000
01C07180
01C07180
01C07180
01C07180
00C06180
00E0E180
0071C180
01F1F1E0
01F1F1E0
ENDCHAR
STARTCHAR 1FAC
ENCODING 8108
SWIDTH 1215 0
DWIDTH 27 0
BBX 27 14 0 0
BITMAP
CE1F0000
EC7FC000
6CF1E000
6CC0E000
C9C06000
01C07180
01C07180
01C07180
01C06180
00C06180
00E0E180
0071C180
01F3F1E0
01F3F1E0
ENDCHAR
STARTCHAR 1FAD
ENCODING 8109
SWIDTH 1215 0
DWIDTH 27 0
BBX 27 14 0 0
BITMAP
6E1F0000
EC7FC000
CCE1C000
8CC0E000
C9C06000
01C07380
01C07380
01C07380
01C06380
00C0E380
00E0C380
0071C380
01F3F1E0
01F3F1E0
ENDCHAR
STARTCHAR 1FAE
ENCODING 8110
SWIDTH 1125 0
DWIDTH 25 0
BBX 25 14 -1 0
BITMAP
7C7E0000
7CFF0000
B9C38000
1B81C000
3381C000
0300C700
0300C700
0300C700
0380C700
0381C700
01818700
00C30700
07E7E780
07E7E380
ENDCHAR
STARTCHAR 1FAF
ENCODING 8111
SWIDTH 1125 0
DWIDTH 25 0
BBX 25 14 -1 0
BITMAP
7C7E0000
7CFF0000
B9C38000
2381C000
3381C000
0300C700
0300C700
0300C700
0380C700
0381C700
01818700
00C30700
07E7E780
07E7E380
ENDCHAR
STARTCHAR 1FB0
ENCODING 8112
SWIDTH 585 0
DWIDTH 13 0
BBX 12 17 1 0
BITMAP
2180
3180
3F00
1E00
0000
0000
1CE0
7EC0
73C0
E1C0
E1C0
E1C0
E1C0
E180
E3C0
7FE0
3CF0
ENDCHAR
STARTCHAR 1FB1
ENCODING 8113
SWIDTH 585 0
DWIDTH 13 0
BBX 12 15 1 0
BITMAP
3F00
3F00
0000
0000
1CE0
7EC0
73C0
E1C0
E1C0
E1C0
E1C0
E180
E3C0
7FE0
3CF0
ENDCHAR
STARTCHAR 1FB2
ENCODING 8114
SWIDTH 585 0
DWIDTH 13 0
BBX 12 23 1 -5
BITMAP
1000
3800
1C00
0C00
0600
0000
0000
1CE0
7EC0
73C0
E1C0
E1C0
E1C0
E1C0
E180
E3C0
7FE0
3CE0
0010
0000
0400
0600
0700
ENDCHAR
STARTCHAR 1FB3
ENCODING 8115
SWIDTH 585 0
DWIDTH 13 0
BBX 12 16 1 -5
BITMAP
1CE0
7EC0
73C0
E1C0
E1C0
E1C0
E1C0
E180
E3C0
7FE0
3CE0
0010
0000
0400
0600
0700
ENDCHAR
STARTCHAR 1FB4
ENCODING 8116
SWIDTH 585 0
DWIDTH 13 0
BBX 12 23 1 -5
BITMAP
0100
0380
0700
0E00
0400
0000
0000
1CE0
7EC0
73C0
E1C0
E1C0
E1C0
E1C0
E180
E3C0
7FE0
3CE0
0010
0000
0400
0600
0700
ENDCHAR
STARTCHAR 1FB6
ENCODING 8118
SWIDTH 585 0
DWIDTH 13 0
BBX 12 17 1 0
BITMAP
1880
3D80
6780
6300
0000
0000
1CE0
7EC0
73C0
E1C0
E1C0
E1C0
E1C0
E180
E3C0
7FE0
3CF0
ENDCHAR
STARTCHAR 1FB7
ENCODING 8119
SWIDTH 585 0
DWIDTH 13 0
BBX 12 22 1 -5
BITMAP
1880
3D80
6780
6300
0000
0000
1CE0
7EC0
73C0
E1C0
E1C0
E1C0
E1C0
E180
E3C0
7FE0
3CE0
0010
0000
0400
0600
0700
ENDCHAR
STARTCHAR 1FB8
ENCODING 8120
SWIDTH 540 0
DWIDTH 12 0
BBX 12 20 0 0
BITMAP
10C0
1980
1F80
0F00
0000
0000
0F00
0F00
0F00
1D80
1980
1980
39C0
30C0
3FC0
7FE0
7060
6060
E070
E070
ENDCHAR
STARTCHAR 1FB9
ENCODING 8121
SWIDTH 540 0
DWIDTH 12 0
BBX 12 18 0 0
BITMAP
1F80
1F80
0000
0000
0F00
0F00
0F00
1D80
1980
1980
39C0
30C0
3FC0
7FE0
7060
6060
E070
E070
ENDCHAR
STARTCHAR 1FBA
ENCODING 8122
SWIDTH 585 0
DWIDTH 13 0
BBX 13 14 0 0
BITMAP
C780
C780
C780
6DC0
6CC0
0CC0
1CE0
1860
1FE0
3FF0
3070
3030
7038
6038
ENDCHAR
STARTCHAR 1FBB
ENCODING 8123
SWIDTH 585 0
DWIDTH 13 0
BBX 13 14 0 0
BITMAP
6780
E780
C780
CDC0
CCC0
0CC0
1CE0
1860
1FE0
3FF0
3070
3030
7038
6038
ENDCHAR
STARTCHAR 1FBC
ENCODING 8124
SWIDTH 810 0
DWIDTH 18 0
BBX 18 14 0 0
BITMAP
0F0000
0F0000
0F0000
1D8000
198000
198300
39C300
30C300
3FC300
7FE300
706300
606300
E073C0
E071C0
ENDCHAR
STARTCHAR 1FBD
ENCODING 8125
SWIDTH 540 0
DWIDTH 12 0
BBX 4 5 4 13
BITMAP
E0
F0
30
30
60
ENDCHAR
STARTCHAR 1FBE
ENCODING 8126
SWIDTH 270 0
DWIDTH 6 0
BBX 4 9 2 0
BITMAP
C0
C0
C0
C0
C0
C0
C0
F0
F0
ENDCHAR
STARTCHAR 1FBF
ENCODING 8127
SWIDTH 540 0
DWIDTH 12 0
BBX 4 5 4 13
BITMAP
E0
F0
30
30
60
ENDCHAR
STARTCHAR 1FC0
ENCODING 8128
SWIDTH 540 0
DWIDTH 12 0
BBX 8 4 2 13
BITMAP
73
FB
DF
CE
ENDCHAR
STARTCHAR 1FC1
ENCODING 8129
SWIDTH 540 0
DWIDTH 12 0
BBX 6 5 3 13
BITMAP
64
BC
00
CC
CC
ENDCHAR
STARTCHAR 1FC2
ENCODING 8130
SWIDTH 540 0
DWIDTH 12 0
BBX 10 23 1 -5
BITMAP
1000
3800
1C00
0E00
0400
0000
0000
E700
6F80
71C0
71C0
61C0
61C0
61C0
61C0
61C0
61C0
61C0
01C0
01C0
61C0
6000
7000
ENDCHAR
STARTCHAR 1FC3
ENCODING 8131
SWIDTH 540 0
DWIDTH 12 0
BBX 10 16 1 -5
BITMAP
E700
6F80
71C0
71C0
61C0
61C0
61C0
61C0
61C0
61C0
61C0
01C0
01C0
61C0
6000
7000
ENDCHAR
STARTCHAR 1FC4
ENCODING 8132
SWIDTH 540 0
DWIDTH 12 0
BBX 10 23 1 -5
BITMAP
0100
0380
0700
0600
0C00
0000
0000
E700
6F80
71C0
71C0
61C0
61C0
61C0
61C0
61C0
61C0
61C0
01C0
01C0
61C0
6000
7000
ENDCHAR
STARTCHAR 1FC6
ENCODING 8134
SWIDTH 540 0
DWIDTH 12 0
BBX 10 20 1 -3
BITMAP
18C0
3C80
3780
2380
0000
0000
E700
6F80
71C0
71C0
61C0
61C0
61C0
61C0
61C0
61C0
61C0
01C0
01C0
01C0
ENDCHAR
STARTCHAR 1FC7
ENCODING 8135
SWIDTH 540 0
DWIDTH 12 0
BBX 10 22 1 -5
BITMAP
18C0
3C80
3780
2380
0000
0000
E700
6F80
71C0
71C0
61C0
61C0
61C0
61C0
61C0
61C0
61C0
01C0
01C0
61C0
6000
7000
ENDCHAR
STARTCHAR 1FC8
ENCODING 8136
SWIDTH 630 0
DWIDTH 14 0
BBX 13 14 0 0
BITMAP
CFF8
CFF8
CC00
CC00
4C00
0C00
0FF0
0FF0
0C00
0C00
0C00
0C00
0FF8
0FF8
ENDCHAR
STARTCHAR 1FC9
ENCODING 8137
SWIDTH 630 0
DWIDTH 14 0
BBX 13 14 0 0
BITMAP
EFF8
CFF8
CC00
CC00
8C00
0C00
0FF0
0FF0
0C00
0C00
0C00
0C00
0FF8
0FF8
ENDCHAR
STARTCHAR 1FCA
ENCODING 8138
SWIDTH 765 0
DWIDTH 17 0
BBX 15 14 0 0
BITMAP
CC0E
CC0E
CC0E
CC0E
4C0E
0C0E
0FFE
0FFE
0C0E
0C0E
0C0E
0C0E
0C0E
0C0E
ENDCHAR
STARTCHAR 1FCB
ENCODING 8139
SWIDTH 765 0
DWIDTH 17 0
BBX 15 14 0 0
BITMAP
EC0E
CC0E
CC0E
CC0E
8C0E
0C0E
0FFE
0FFE
0C0E
0C0E
0C0E
0C0E
0C0E
0C0E
ENDCHAR
STARTCHAR 1FCC
ENCODING 8140
SWIDTH 945 0
DWIDTH 21 0
BBX 18 14 2 0
BITMAP
C0E000
C0E000
C0E000
C0E000
C0E000
C0E380
FFE380
FFE380
C0E380
C0E380
C0E380
C0E380
C0E3C0
C0E1C0
ENDCHAR
STARTCHAR 1FCD
ENCODING 8141
SWIDTH 540 0
DWIDTH 12 0
BBX 7 5 2 12
BITMAP
EC
2C
26
66
06
ENDCHAR
STARTCHAR 1FCE
ENCODING 8142
SWIDTH 540 0
DWIDTH 12 0
BBX 7 5 2 12
BITMAP
E6
26
26
6C
0C
ENDCHAR
STARTCHAR 1FCF
ENCODING 8143
SWIDTH 540 0
DWIDTH 12 0
BBX 6 5 3 12
BITMAP
FC
00
30
58
30
ENDCHAR
STARTCHAR 1FD0
ENCODING 8144
SWIDTH 270 0
DWIDTH 6 0
BBX 7 17 -1 0
BITMAP
C2
E6
7E
3C
00
00
18
18
18
18
18
18
18
18
18
1E
1E
ENDCHAR
STARTCHAR 1FD1
ENCODING 8145
SWIDTH 270 0
DWIDTH 6 0
BBX 6 15 0 0
BITMAP
FC
FC
00
00
30
30
30
30
30
30
30
30
30
3C
3C
ENDCHAR
STARTCHAR 1FD2
ENCODING 8146
SWIDTH 270 0
DWIDTH 6 0
BBX 8 17 -1 0
BITMAP
30
10
D3
DF
08
00
18
18
18
18
18
18
18
18
18
1E
1E
ENDCHAR
STARTCHAR 1FD3
ENCODING 8147
SWIDTH 270 0
DWIDTH 6 0
BBX 8 17 -1 0
BITMAP
0C
18
DB
DF
10
00
18
18
18
18
18
18
18
18
18
1E
1E
ENDCHAR
STARTCHAR 1FD6
ENCODING 8150
SWIDTH 270 0
DWIDTH 6 0
BBX 8 17 -1 0
BITMAP
63
FB
DF
CE
00
00
18
18
18
18
18
18
18
18
18
1E
1E
ENDCHAR
STARTCHAR 1FD7
ENCODING 8151
SWIDTH 270 0
DWIDTH 6 0
BBX 7 18 -1 0
BITMAP
24
5E
80
66
E6
00
00
18
18
18
18
18
18
18
18
18
1E
1E
ENDCHAR
STARTCHAR 1FD8
ENCODING 8152
SWIDTH 270 0
DWIDTH 6 0
BBX 7 20 0 0
BITMAP
86
CC
FC
78
00
00
30
30
30
30
30
30
30
30
30
30
30
30
30
30
ENDCHAR
STARTCHAR 1FD9
ENCODING 8153
SWIDTH 270 0
DWIDTH 6 0
BBX 6 18 0 0
BITMAP
FC
FC
00
00
30
30
30
30
30
30
30
30
30
30
30
30
30
30
ENDCHAR
STARTCHAR 1FDA
ENCODING 8154
SWIDTH 360 0
DWIDTH 8 0
BBX 6 14 0 0
BITMAP
CC
CC
CC
CC
4C
0C
0C
0C
0C
0C
0C
0C
0C
0C
ENDCHAR
STARTCHAR 1FDB
ENCODING 8155
SWIDTH 360 0
DWIDTH 8 0
BBX 6 14 0 0
BITMAP
EC
CC
CC
CC
8C
0C
0C
0C
0C
0C
0C
0C
0C
0C
ENDCHAR
STARTCHAR 1FDD
ENCODING 8157
SWIDTH 540 0
DWIDTH 12 0
BBX 7 5 2 12
BITMAP
6C
CC
C6
66
06
ENDCHAR
STARTCHAR 1FDE
ENCODING 8158
SWIDTH 540 0
DWIDTH 12 0
BBX 7 5 2 12
BITMAP
76
C6
C4
6C
0C
ENDCHAR
STARTCHAR 1FDF
ENCODING 8159
SWIDTH 540 0
DWIDTH 12 0
BBX 6 5 3 12
BITMAP
FC
00
30
68
30
ENDCHAR
STARTCHAR 1FE0
ENCODING 8160
SWIDTH 495 0
DWIDTH 11 0
BBX 9 17 1 0
BITMAP
6100
6300
3F00
1E00
0000
0000
E380
E380
E180
E180
E180
E180
E180
E180
6380
7F00
3E00
ENDCHAR
STARTCHAR 1FE1
ENCODING 8161
SWIDTH 495 0
DWIDTH 11 0
BBX 9 15 1 0
BITMAP
7F00
7F00
0000
0000
E380
E380
E180
E180
E180
E180
E180
E180
6380
7F00
3E00
ENDCHAR
STARTCHAR 1FE2
ENCODING 8162
SWIDTH 495 0
DWIDTH 11 0
BBX 9 17 1 0
BITMAP
1800
1800
6B00
6B00
0C00
0000
E380
E380
E180
E180
E180
E180
E180
E180
6380
7F00
3E00
ENDCHAR
STARTCHAR 1FE3
ENCODING 8163
SWIDTH 495 0
DWIDTH 11 0
BBX 9 17 1 0
BITMAP
0C00
0C00
6F00
6B00
0800
0000
E380
E380
E180
E180
E180
E180
E180
E180
6380
7F00
3E00
ENDCHAR
STARTCHAR 1FE4
ENCODING 8164
SWIDTH 540 0
DWIDTH 12 0
BBX 9 21 2 -3
BITMAP
1800
1C00
0C00
0C00
1800
0000
0000
3E00
7F00
E380
C380
C180
C180
C180
C380
E380
FF00
DE00
C000
C000
C000
ENDCHAR
STARTCHAR 1FE5
ENCODING 8165
SWIDTH 540 0
DWIDTH 12 0
BBX 9 20 2 -3
BITMAP
1C00
1800
1800
0C00
0000
0000
3E00
7F00
E380
C380
C180
C180
C180
C380
E380
FF00
DE00
C000
C000
C000
ENDCHAR
STARTCHAR 1FE6
ENCODING 8166
SWIDTH 495 0
DWIDTH 11 0
BBX 9 17 1 0
BITMAP
3180
7900
6F00
4700
0000
0000
E380
E380
E180
E180
E180
E180
E180
E180
6380
7F00
3E00
ENDCHAR
STARTCHAR 1FE7
ENCODING 8167
SWIDTH 495 0
DWIDTH 11 0
BBX 9 18 1 0
BITMAP
3200
6F00
0000
6300
6300
0000
0000
E380
E380
E180
E180
E180
E180
E180
E180
6380
7F00
3E00
ENDCHAR
STARTCHAR 1FE8
ENCODING 8168
SWIDTH 495 0
DWIDTH 11 0
BBX 11 20 0 0
BITMAP
3180
3180
1F00
0E00
0000
0000
E0E0
60C0
71C0
3180
3980
1B00
1B00
0E00
0E00
0E00
0E00
0E00
0E00
0E00
ENDCHAR
STARTCHAR 1FE9
ENCODING 8169
SWIDTH 495 0
DWIDTH 11 0
BBX 11 18 0 0
BITMAP
3F80
3F80
0000
0000
E0E0
60C0
71C0
3180
3980
1B00
1B00
0E00
0E00
0E00
0E00
0E00
0E00
0E00
ENDCHAR
STARTCHAR 1FEA
ENCODING 8170
SWIDTH 630 0
DWIDTH 14 0
BBX 14 14 0 0
BITMAP
DC0C
CE1C
CE18
C738
4730
0370
03E0
01E0
01C0
00C0
00C0
00C0
00C0
00C0
ENDCHAR
STARTCHAR 1FEB
ENCODING 8171
SWIDTH 630 0
DWIDTH 14 0
BBX 14 14 0 0
BITMAP
FC0C
CE1C
CE18
C738
8730
0370
03E0
01E0
01C0
00C0
00C0
00C0
00C0
00C0
ENDCHAR
STARTCHAR 1FEC
ENCODING 8172
SWIDTH 720 0
DWIDTH 16 0
BBX 15 14 0 0
BITMAP
67F8
E7FC
C60E
C60E
E606
060E
060E
07FC
07F0
0600
0600
0600
0600
0600
ENDCHAR
STARTCHAR 1FED
ENCODING 8173
SWIDTH 540 0
DWIDTH 12 0
BBX 8 5 2 12
BITMAP
30
10
DB
DB
08
ENDCHAR
STARTCHAR 1FEE
ENCODING 8174
SWIDTH 540 0
DWIDTH 12 0
BBX 8 5 2 12
BITMAP
0C
08
DB
DB
10
ENDCHAR
STARTCHAR 1FEF
ENCODING 8175
SWIDTH 540 0
DWIDTH 12 0
BBX 3 5 4 13
BITMAP
C0
C0
E0
60
60
ENDCHAR
STARTCHAR 1FF2
ENCODING 8178
SWIDTH 720 0
DWIDTH 16 0
BBX 14 23 1 -5
BITMAP
0800
1C00
0E00
0700
0300
0000
0000
2010
7038
6018
E01C
E31C
C31C
C31C
E31C
E798
7FF8
3CF0
0000
0000
0300
0300
0380
ENDCHAR
STARTCHAR 1FF3
ENCODING 8179
SWIDTH 720 0
DWIDTH 16 0
BBX 14 16 1 -5
BITMAP
2010
7038
6018
E01C
E31C
C31C
C31C
E31C
E798
7FF8
3CF0
0000
0000
0300
0300
0380
ENDCHAR
STARTCHAR 1FF4
ENCODING 8180
SWIDTH 720 0
DWIDTH 16 0
BBX 14 23 1 -5
BITMAP
0080
00E0
01C0
0380
0200
0000
0000
2010
7038
6018
E01C
E31C
C31C
C31C
E31C
E798
7FF8
3CF0
0000
0000
0300
0300
0380
ENDCHAR
STARTCHAR 1FF6
ENCODING 8182
SWIDTH 720 0
DWIDTH 16 0
BBX 14 17 1 0
BITMAP
0E60
1F60
1BE0
19C0
0000
0000
2010
7038
6018
E01C
E31C
C31C
C31C
E31C
E798
7FF8
3CF0
ENDCHAR
STARTCHAR 1FF7
ENCODING 8183
SWIDTH 720 0
DWIDTH 16 0
BBX 14 22 1 -5
BITMAP
0E60
1F60
1BE0
19C0
0000
0000
2010
7038
6018
E01C
E31C
C31C
C31C
E31C
E798
7FF8
3CF0
0000
0000
0300
0300
0380
ENDCHAR
STARTCHAR 1FF8
ENCODING 8184
SWIDTH 765 0
DWIDTH 17 0
BBX 16 14 0 0
BITMAP
C1F0
C7F8
CE1C
CC0E
5C06
1C06
1807
1807
1C06
1C0E
0C0E
0E1C
07F8
01F0
ENDCHAR
STARTCHAR 1FF9
ENCODING 8185
SWIDTH 720 0
DWIDTH 16 0
BBX 15 14 0 0
BITMAP
E3F0
C7F8
CE1C
DC0E
9C0E
1806
1806
1806
1806
1C0E
1C0E
0E1C
07F8
03F0
ENDCHAR
STARTCHAR 1FFA
ENCODING 8186
SWIDTH 765 0
DWIDTH 17 0
BBX 16 14 0 0
BITMAP
C1F0
C7FC
CE1C
CC0E
5C06
1C07
1C07
1C07
1C06
0C0E
0E0E
071C
1F3F
1F3F
ENDCHAR
STARTCHAR 1FFB
ENCODING 8187
SWIDTH 765 0
DWIDTH 17 0
BBX 16 14 0 0
BITMAP
C1F0
C7F8
CE1C
DC0E
9C06
1C06
1807
1C06
1C06
1C0E
0E0C
061C
1F3F
1F3F
ENDCHAR
STARTCHAR 1FFC
ENCODING 8188
SWIDTH 945 0
DWIDTH 21 0
BBX 20 14 1 0
BITMAP
0F8000
3FE000
78F000
703000
603800
E038C0
E038C0
E038C0
6038C0
6030C0
7070C0
38E0C0
F8F8F0
F8F870
ENDCHAR
STARTCHAR 1FFD
ENCODING 8189
SWIDTH 540 0
DWIDTH 12 0
BBX 3 5 5 12
BITMAP
60
60
E0
C0
C0
ENDCHAR
STARTCHAR 1FFE
ENCODING 8190
SWIDTH 540 0
DWIDTH 12 0
BBX 4 4 4 13
BITMAP
70
C0
C0
60
ENDCHAR
STARTCHAR 2007
ENCODING 8199
SWIDTH 495 0
DWIDTH 11 0
BBX 0 0 0 0
BITMAP
ENDCHAR
STARTCHAR 2012
ENCODING 8210
SWIDTH 495 0
DWIDTH 11 0
BBX 9 2 1 5
BITMAP
FF80
FF80
ENDCHAR
STARTCHAR 2013
ENCODING 8211
SWIDTH 495 0
DWIDTH 11 0
BBX 9 2 1 5
BITMAP
FF80
FF80
ENDCHAR
STARTCHAR 2014
ENCODING 8212
SWIDTH 810 0
DWIDTH 18 0
BBX 16 2 1 5
BITMAP
FFFF
FFFF
ENDCHAR
STARTCHAR 2015
ENCODING 8213
SWIDTH 810 0
DWIDTH 18 0
BBX 16 2 1 5
BITMAP
FFFF
FFFF
ENDCHAR
STARTCHAR 2016
ENCODING 8214
SWIDTH 405 0
DWIDTH 9 0
BBX 5 22 2 -6
BITMAP
C8
C8
C8
C8
C8
C8
C8
C8
C8
C8
C8
C8
C8
C8
C8
C8
C8
C8
C8
C8
C8
C8
ENDCHAR
STARTCHAR 2018
ENCODING 8216
SWIDTH 270 0
DWIDTH 6 0
BBX 4 6 1 9
BITMAP
20
70
40
C0
E0
60
ENDCHAR
STARTCHAR 2019
ENCODING 8217
SWIDTH 270 0
DWIDTH 6 0
BBX 4 6 1 9
BITMAP
60
70
30
20
60
C0
ENDCHAR
STARTCHAR 201A
ENCODING 8218
SWIDTH 270 0
DWIDTH 6 0
BBX 4 6 1 -3
BITMAP
60
70
30
20
60
C0
ENDCHAR
STARTCHAR 201C
ENCODING 8220
SWIDTH 495 0
DWIDTH 11 0
BBX 8 6 1 9
BITMAP
21
73
46
C4
E7
67
ENDCHAR
STARTCHAR 201D
ENCODING 8221
SWIDTH 495 0
DWIDTH 11 0
BBX 8 6 1 9
BITMAP
67
77
31
23
66
C4
ENDCHAR
STARTCHAR 201E
ENCODING 8222
SWIDTH 495 0
DWIDTH 11 0
BBX 8 6 1 -3
BITMAP
67
77
31
23
66
C4
ENDCHAR
STARTCHAR 2020
ENCODING 8224
SWIDTH 495 0
DWIDTH 11 0
BBX 9 18 1 -2
BITMAP
1800
1800
1800
1800
FF80
FF80
1800
1800
1800
1800
1800
1800
1800
1800
1800
1800
1800
1800
ENDCHAR
STARTCHAR 2021
ENCODING 8225
SWIDTH 495 0
DWIDTH 11 0
BBX 9 17 1 -1
BITMAP
1800
1800
1800
1800
FF80
9980
1800
1800
1800
1800
1800
1800
FF80
FF80
1800
1800
1800
ENDCHAR
STARTCHAR 2022
ENCODING 8226
SWIDTH 315 0
DWIDTH 7 0
BBX 5 6 1 3
BITMAP
70
F8
F8
F8
F8
70
ENDCHAR
STARTCHAR 2026
ENCODING 8230
SWIDTH 945 0
DWIDTH 21 0
BBX 18 3 2 0
BITMAP
E0C180
E1C1C0
E0C180
ENDCHAR
STARTCHAR 202F
ENCODING 8239
SWIDTH 135 0
DWIDTH 3 0
BBX 0 0 0 0
BITMAP
ENDCHAR
STARTCHAR 2030
ENCODING 8240
SWIDTH 1215 0
DWIDTH 27 0
BBX 25 14 1 0
BITMAP
78180000
FC100000
CC300000
C4600000
86400000
C4CE0F00
CC9F1F80
FDB39980
7931B180
0331B180
0631B180
04339980
0C1F1F00
080E0F00
ENDCHAR
STARTCHAR 2032
ENCODING 8242
SWIDTH 270 0
DWIDTH 6 0
BBX 3 6 2 9
BITMAP
E0
E0
C0
C0
C0
C0
ENDCHAR
STARTCHAR 2033
ENCODING 8243
SWIDTH 495 0
DWIDTH 11 0
BBX 7 6 2 9
BITMAP
E6
E6
C6
C6
CC
CC
ENDCHAR
STARTCHAR 2035
ENCODING 8245
SWIDTH 270 0
DWIDTH 6 0
BBX 3 6 1 9
BITMAP
E0
60
60
60
60
60
ENDCHAR
STARTCHAR 2039
ENCODING 8249
SWIDTH 270 0
DWIDTH 6 0
BBX 4 8 1 2
BITMAP
10
20
60
C0
C0
60
20
10
ENDCHAR
STARTCHAR 203A
ENCODING 8250
SWIDTH 270 0
DWIDTH 6 0
BBX 4 8 1 2
BITMAP
40
E0
30
30
30
30
60
C0
ENDCHAR
STARTCHAR 203C
ENCODING 8252
SWIDTH 585 0
DWIDTH 13 0
BBX 9 15 2 0
BITMAP
E380
E380
E380
E300
E300
E300
C300
4300
4300
4300
0000
0000
E380
E380
E380
ENDCHAR
STARTCHAR 203D
ENCODING 8253
SWIDTH 450 0
DWIDTH 10 0
BBX 9 15 0 0
BITMAP
3E00
7F00
E380
0180
1980
1B00
0B00
0E00
0C00
0C00
0000
0000
1C00
1C00
1C00
ENDCHAR
STARTCHAR 203E
ENCODING 8254
SWIDTH 495 0
DWIDTH 11 0
BBX 11 2 0 12
BITMAP
FFE0
FFE0
ENDCHAR
STARTCHAR 203F
ENCODING 8255
SWIDTH 0 0
DWIDTH 0 0
BBX 20 4 -10 -5
BITMAP
C00030
7801E0
1FFF80
03FC00
ENDCHAR
STARTCHAR 2044
ENCODING 8260
SWIDTH 90 0
DWIDTH 2 0
BBX 10 15 -4 0
BITMAP
00C0
0180
0100
0300
0200
0600
0400
0C00
0800
1800
1000
3000
2000
6000
C000
ENDCHAR
STARTCHAR 2047
ENCODING 8263
SWIDTH 855 0
DWIDTH 19 0
BBX 17 15 1 0
BITMAP
3C3E00
FE7F00
476300
070380
070300
0E0700
0C0E00
180C00
181C00
381800
000000
000000
381C00
381C00
381C00
ENDCHAR
STARTCHAR 2048
ENCODING 8264
SWIDTH 720 0
DWIDTH 16 0
BBX 13 15 1 0
BITMAP
3C38
FE30
4730
0730
0730
0E30
0C30
1830
1830
3830
0000
0000
3838
3838
3838
ENDCHAR
STARTCHAR 2049
ENCODING 8265
SWIDTH 720 0
DWIDTH 16 0
BBX 13 15 2 0
BITMAP
E1E0
E7F0
E238
E038
E038
E070
C060
40C0
41C0
41C0
0000
0000
E1C0
E1C0
E1C0
ENDCHAR
STARTCHAR 2070
ENCODING 8304
SWIDTH 360 0
DWIDTH 8 0
BBX 7 9 1 8
BITMAP
78
CC
C4
C4
86
C4
CC
CC
78
ENDCHAR
STARTCHAR 2071
ENCODING 8305
SWIDTH 180 0
DWIDTH 4 0
BBX 2 11 1 8
BITMAP
C0
C0
00
C0
C0
C0
C0
C0
C0
C0
C0
ENDCHAR
STARTCHAR 2074
ENCODING 8308
SWIDTH 360 0
DWIDTH 8 0
BBX 7 9 1 8
BITMAP
18
38
28
68
48
C8
FE
08
08
ENDCHAR
STARTCHAR 2075
ENCODING 8309
SWIDTH 360 0
DWIDTH 8 0
BBX 6 9 1 8
BITMAP
7C
7C
40
40
78
4C
0C
8C
78
ENDCHAR
STARTCHAR 2076
ENCODING 8310
SWIDTH 360 0
DWIDTH 8 0
BBX 6 9 1 8
BITMAP
3C
68
C0
C0
F8
CC
C4
4C
38
ENDCHAR
STARTCHAR 2077
ENCODING 8311
SWIDTH 360 0
DWIDTH 8 0
BBX 6 9 1 8
BITMAP
FC
FC
08
18
10
30
30
30
30
ENDCHAR
STARTCHAR 2078
ENCODING 8312
SWIDTH 360 0
DWIDTH 8 0
BBX 6 9 1 8
BITMAP
78
CC
CC
6C
38
CC
CC
CC
78
ENDCHAR
STARTCHAR 2079
ENCODING 8313
SWIDTH 360 0
DWIDTH 8 0
BBX 6 9 1 8
BITMAP
78
CC
CC
CC
CC
7C
0C
88
F0
ENDCHAR
STARTCHAR 207D
ENCODING 8317
SWIDTH 270 0
DWIDTH 6 0
BBX 4 12 1 6
BITMAP
30
60
60
60
C0
C0
C0
C0
60
60
60
30
ENDCHAR
STARTCHAR 207E
ENCODING 8318
SWIDTH 270 0
DWIDTH 6 0
BBX 3 12 1 6
BITMAP
C0
C0
60
60
60
60
60
60
60
60
C0
C0
ENDCHAR
STARTCHAR 207F
ENCODING 8319
SWIDTH 360 0
DWIDTH 8 0
BBX 6 8 1 8
BITMAP
DC
FC
CC
CC
CC
CC
CC
CC
ENDCHAR
STARTCHAR 2080
ENCODING 8320
SWIDTH 360 0
DWIDTH 8 0
BBX 7 9 1 -4
BITMAP
78
CC
C4
C4
86
C4
CC
CC
78
ENDCHAR
STARTCHAR 2081
ENCODING 8321
SWIDTH 360 0
DWIDTH 8 0
BBX 4 9 2 -4
BITMAP
70
F0
30
30
30
30
30
30
30
ENDCHAR
STARTCHAR 2082
ENCODING 8322
SWIDTH 360 0
DWIDTH 8 0
BBX 6 9 1 -4
BITMAP
78
FC
8C
0C
08
18
30
7C
FC
ENDCHAR
STARTCHAR 2083
ENCODING 8323
SWIDTH 360 0
DWIDTH 8 0
BBX 6 9 1 -4
BITMAP
78
CC
0C
0C
38
3C
0C
8C
78
ENDCHAR
STARTCHAR 2084
ENCODING 8324
SWIDTH 360 0
DWIDTH 8 0
BBX 7 9 1 -4
BITMAP
18
38
28
68
48
C8
FE
08
08
ENDCHAR
STARTCHAR 2085
ENCODING 8325
SWIDTH 360 0
DWIDTH 8 0
BBX 6 9 1 -4
BITMAP
7C
7C
40
40
78
4C
0C
8C
78
ENDCHAR
STARTCHAR 2086
ENCODING 8326
SWIDTH 360 0
DWIDTH 8 0
BBX 6 9 1 -4
BITMAP
3C
68
C0
C0
F8
CC
C4
4C
38
ENDCHAR
STARTCHAR 2087
ENCODING 8327
SWIDTH 360 0
DWIDTH 8 0
BBX 6 9 1 -4
BITMAP
FC
FC
08
18
10
30
30
30
30
ENDCHAR
STARTCHAR 2088
ENCODING 8328
SWIDTH 360 0
DWIDTH 8 0
BBX 6 9 1 -4
BITMAP
78
CC
CC
6C
38
CC
CC
CC
78
ENDCHAR
STARTCHAR 2089
ENCODING 8329
SWIDTH 360 0
DWIDTH 8 0
BBX 6 9 1 -4
BITMAP
78
CC
CC
CC
CC
7C
0C
88
F0
ENDCHAR
STARTCHAR 208D
ENCODING 8333
SWIDTH 270 0
DWIDTH 6 0
BBX 4 12 1 -6
BITMAP
30
60
60
60
C0
C0
C0
C0
60
60
60
30
ENDCHAR
STARTCHAR 208E
ENCODING 8334
SWIDTH 270 0
DWIDTH 6 0
BBX 3 12 1 -6
BITMAP
C0
C0
60
60
60
60
60
60
60
60
C0
C0
ENDCHAR
STARTCHAR 2094
ENCODING 8340
SWIDTH 360 0
DWIDTH 8 0
BBX 7 8 0 8
BITMAP
78
44
06
7E
C6
46
6C
38
ENDCHAR
STARTCHAR 20A1
ENCODING 8353
SWIDTH 495 0
DWIDTH 11 0
BBX 10 18 1 -2
BITMAP
0500
0500
0F00
3FC0
7580
7500
6A00
EA00
EA00
EA00
EA00
6A00
7A00
7A80
3BC0
1F00
1400
1400
ENDCHAR
STARTCHAR 20A4
ENCODING 8356
SWIDTH 495 0
DWIDTH 11 0
BBX 9 14 1 0
BITMAP
0F00
3F80
3980
7000
7000
FF00
FF00
FF00
FF00
3800
3000
7000
FF80
FF80
ENDCHAR
STARTCHAR 20A6
ENCODING 8358
SWIDTH 495 0
DWIDTH 11 0
BBX 11 14 0 0
BITMAP
30C0
38C0
38C0
28C0
2CC0
FFE0
FFE0
FFE0
FFE0
36C0
33C0
33C0
31C0
31C0
ENDCHAR
STARTCHAR 20A7
ENCODING 8359
SWIDTH 495 0
DWIDTH 11 0
BBX 11 14 0 0
BITMAP
3F00
3F80
31C0
FFE0
FFE0
31C0
3380
3F80
3E00
3000
3000
3000
3000
3000
ENDCHAR
STARTCHAR 20A9
ENCODING 8361
SWIDTH 495 0
DWIDTH 11 0
BBX 12 14 0 0
BITMAP
E060
E660
6E60
6E60
6A60
6A40
FFF0
FFF0
6BC0
6BC0
6BC0
29C0
39C0
39C0
ENDCHAR
STARTCHAR 20AB
ENCODING 8363
SWIDTH 495 0
DWIDTH 11 0
BBX 10 14 1 0
BITMAP
0300
1FC0
0300
1B00
7F00
7300
6300
E300
6300
6300
7F00
3900
0000
7F80
ENDCHAR
STARTCHAR 20AC
ENCODING 8364
SWIDTH 495 0
DWIDTH 11 0
BBX 11 14 0 0
BITMAP
0780
0FE0
1C40
3800
3800
3000
FFC0
3000
FF80
3000
3800
1C60
1FE0
0780
ENDCHAR
STARTCHAR 20AE
ENCODING 8366
SWIDTH 495 0
DWIDTH 11 0
BBX 10 14 1 0
BITMAP
FFC0
FFC0
1C00
1C80
1F80
1F00
1C80
7F80
5E00
3C00
5C00
1C00
1C00
1C00
ENDCHAR
STARTCHAR 20B1
ENCODING 8369
SWIDTH 495 0
DWIDTH 11 0
BBX 11 14 0 0
BITMAP
3E00
3F80
3180
FFE0
31C0
FFE0
31C0
3F80
3F00
3000
3000
3000
3000
3000
ENDCHAR
STARTCHAR 20B2
ENCODING 8370
SWIDTH 495 0
DWIDTH 11 0
BBX 10 18 1 -2
BITMAP
0400
0400
1F00
3F80
7180
6000
E000
E000
E7C0
E7C0
E1C0
E1C0
61C0
71C0
3F80
1F00
0400
0400
ENDCHAR
STARTCHAR 20B4
ENCODING 8372
SWIDTH 495 0
DWIDTH 11 0
BBX 11 14 0 0
BITMAP
1F00
3F80
3380
0180
0180
0380
FFE0
1E00
FFE0
3800
3000
38C0
3FC0
0F00
ENDCHAR
STARTCHAR 20B5
ENCODING 8373
SWIDTH 495 0
DWIDTH 11 0
BBX 10 18 1 -2
BITMAP
0600
0600
0F00
3FC0
7680
7600
6600
E600
E600
E600
E600
6600
7600
7680
3FC0
1F00
0600
0600
ENDCHAR
STARTCHAR 20B8
ENCODING 8376
SWIDTH 495 0
DWIDTH 11 0
BBX 10 14 1 0
BITMAP
FFC0
0000
0000
FFC0
1C00
1C00
1C00
1C00
1C00
1C00
1C00
1C00
1C00
1C00
ENDCHAR
STARTCHAR 20B9
ENCODING 8377
SWIDTH 495 0
DWIDTH 11 0
BBX 8 14 2 0
BITMAP
FF
F8
1C
0C
FF
0E
1C
FC
F0
30
38
1C
0C
0F
ENDCHAR
STARTCHAR 20BA
ENCODING 8378
SWIDTH 495 0
DWIDTH 11 0
BBX 11 14 0 0
BITMAP
3800
3900
3F00
3E00
3900
FF00
BC00
7840
F8E0
38E0
38C0
39C0
3F80
3E00
ENDCHAR
STARTCHAR 20BD
ENCODING 8381
SWIDTH 495 0
DWIDTH 11 0
BBX 10 14 0 0
BITMAP
3F00
3F80
31C0
31C0
31C0
31C0
3380
FF00
3000
FF00
FF00
3000
3000
3000
ENDCHAR
STARTCHAR 2113
ENCODING 8467
SWIDTH 450 0
DWIDTH 10 0
BBX 10 16 0 0
BITMAP
0F00
1F80
1980
3980
3980
3980
3B80
3B00
3E00
3C00
3800
7800
F800
1880
1FC0
0F00
ENDCHAR
STARTCHAR 2116
ENCODING 8470
SWIDTH 900 0
DWIDTH 20 0
BBX 19 14 1 0
BITMAP
706000
70E3C0
78C7E0
78CC60
6CCC60
6CC7E0
6CC3C0
66C000
66C000
63C7C0
63C7C0
61C000
E1C000
E1C000
ENDCHAR
STARTCHAR 2117
ENCODING 8471
SWIDTH 720 0
DWIDTH 16 0
BBX 14 15 1 0
BITMAP
0FC0
1FF0
3838
6018
4FCC
CFE4
8C64
8C64
8FE4
CFC4
4C0C
6C18
3838
1FF0
07C0
ENDCHAR
STARTCHAR 2120
ENCODING 8480
SWIDTH 675 0
DWIDTH 15 0
BBX 14 7 0 8
BITMAP
398C
7D9C
6954
395C
4D7C
FD2C
390C
ENDCHAR
STARTCHAR 2122
ENCODING 8482
SWIDTH 675 0
DWIDTH 15 0
BBX 14 7 0 8
BITMAP
FD8C
FD9C
315C
315C
316C
312C
310C
ENDCHAR
STARTCHAR 2126
ENCODING 8486
SWIDTH 675 0
DWIDTH 15 0
BBX 13 14 1 0
BITMAP
0F80
3FE0
78F0
7030
6038
E038
E038
E038
6038
6030
7070
38E0
F8F8
F8F8
ENDCHAR
STARTCHAR 212E
ENCODING 8494
SWIDTH 810 0
DWIDTH 18 0
BBX 16 14 1 0
BITMAP
07E0
1818
2004
6006
6006
E006
FFFF
E000
E000
6000
6000
3004
1818
07E0
ENDCHAR
STARTCHAR 2150
ENCODING 8528
SWIDTH 810 0
DWIDTH 18 0
BBX 16 15 1 0
BITMAP
3030
F020
3060
3040
30C0
3180
313F
333F
3202
0606
0404
0C0C
080C
180C
300C
ENDCHAR
STARTCHAR 2151
ENCODING 8529
SWIDTH 810 0
DWIDTH 18 0
BBX 16 15 1 0
BITMAP
3030
F020
3060
3040
30C0
3080
319E
3133
3333
0233
0633
041F
0C03
0822
183C
ENDCHAR
STARTCHAR 2152
ENCODING 8530
SWIDTH 1125 0
DWIDTH 25 0
BBX 23 15 1 0
BITMAP
003000
302000
F06000
304000
30C000
308000
318C38
313C7C
330CE6
020CC6
060CC6
040CC6
0C0CE6
080C7C
180038
ENDCHAR
STARTCHAR 2153
ENCODING 8531
SWIDTH 810 0
DWIDTH 18 0
BBX 16 15 1 0
BITMAP
3030
F020
3060
3040
30C0
3180
311E
3323
3203
0607
040E
0C0F
0803
1823
301E
ENDCHAR
STARTCHAR 2154
ENCODING 8532
SWIDTH 810 0
DWIDTH 18 0
BBX 16 15 1 0
BITMAP
7818
FC10
8C30
0C20
0860
1840
30DE
7CB3
FD83
0303
030E
060F
0403
0C33
081E
ENDCHAR
STARTCHAR 2155
ENCODING 8533
SWIDTH 810 0
DWIDTH 18 0
BBX 16 15 1 0
BITMAP
3030
F020
3060
3040
30C0
3180
311F
331F
3210
0610
043E
0C23
0803
1823
301E
ENDCHAR
STARTCHAR 2156
ENCODING 8534
SWIDTH 810 0
DWIDTH 18 0
BBX 16 15 1 0
BITMAP
7818
FC10
8C30
0C20
0860
1840
30DF
7C9F
FD98
0318
031E
0613
0401
0C33
081E
ENDCHAR
STARTCHAR 2157
ENCODING 8535
SWIDTH 810 0
DWIDTH 18 0
BBX 16 15 1 0
BITMAP
7818
CC10
0C30
0C60
3860
3CC0
0C9F
8D9F
7918
0318
021E
0613
0401
0C33
181E
ENDCHAR
STARTCHAR 2158
ENCODING 8536
SWIDTH 855 0
DWIDTH 19 0
BBX 17 15 1 0
BITMAP
180C00
381800
281000
683000
482000
C86000
FE4F80
08CF80
088800
018800
010F00
031180
020180
061180
0C0F00
ENDCHAR
STARTCHAR 2159
ENCODING 8537
SWIDTH 810 0
DWIDTH 18 0
BBX 16 15 1 0
BITMAP
3030
F020
3060
3040
30C0
3080
319F
3132
3330
0220
062E
0433
0C23
0833
181E
ENDCHAR
STARTCHAR 215A
ENCODING 8538
SWIDTH 810 0
DWIDTH 18 0
BBX 16 15 1 0
BITMAP
7C18
7C10
4030
4060
7860
4CC0
0C8F
8D9A
7930
0330
023E
0633
0431
0C13
180E
ENDCHAR
STARTCHAR 215B
ENCODING 8539
SWIDTH 810 0
DWIDTH 18 0
BBX 16 15 1 0
BITMAP
3030
F020
3060
3040
30C0
3080
319E
3133
3333
023A
061E
0433
0C33
0833
181E
ENDCHAR
STARTCHAR 215C
ENCODING 8540
SWIDTH 810 0
DWIDTH 18 0
BBX 16 15 1 0
BITMAP
7818
CC10
0C30
0C60
3860
3CC0
0C9E
8D93
7933
031B
020E
0613
0431
0C33
181E
ENDCHAR
STARTCHAR 215D
ENCODING 8541
SWIDTH 810 0
DWIDTH 18 0
BBX 16 15 1 0
BITMAP
7C18
7C10
4030
4060
7860
4CC0
0C9E
8D93
7933
031B
020E
0613
0431
0C33
181E
ENDCHAR
STARTCHAR 215E
ENCODING 8542
SWIDTH 810 0
DWIDTH 18 0
BBX 16 15 1 0
BITMAP
FC30
FC60
1840
10C0
3080
3180
311E
6333
6233
0632
041C
0C37
0823
1833
301E
ENDCHAR
STARTCHAR 2189
ENCODING 8585
SWIDTH 810 0
DWIDTH 18 0
BBX 16 15 1 0
BITMAP
7818
CC10
C430
C460
8660
C4C0
CC9E
CDB3
7903
0303
020E
060F
0403
0C33
181E
ENDCHAR
STARTCHAR 2190
ENCODING 8592
SWIDTH 630 0
DWIDTH 14 0
BBX 12 12 1 0
BITMAP
0400
0E00
1C00
3800
7000
FFF0
FFF0
7000
3800
1C00
0E00
0400
ENDCHAR
STARTCHAR 2191
ENCODING 8593
SWIDTH 630 0
DWIDTH 14 0
BBX 12 12 1 -1
BITMAP
0400
0E00
1F00
3F80
76C0
E660
C630
0600
0600
0600
0600
0600
ENDCHAR
STARTCHAR 2192
ENCODING 8594
SWIDTH 630 0
DWIDTH 14 0
BBX 12 12 1 0
BITMAP
0400
0600
0300
01C0
00E0
FFF0
FFF0
00E0
01C0
0300
0600
0400
ENDCHAR
STARTCHAR 2193
ENCODING 8595
SWIDTH 630 0
DWIDTH 14 0
BBX 12 12 1 -1
BITMAP
0600
0600
0600
0600
0600
C620
E670
76C0
3F80
1F00
0E00
0400
ENDCHAR
STARTCHAR 2202
ENCODING 8706
SWIDTH 540 0
DWIDTH 12 0
BBX 10 14 1 0
BITMAP
1F00
3F80
21C0
01C0
00C0
3EC0
7FC0
E1C0
E0C0
C1C0
C180
E380
7F00
3C00
ENDCHAR
STARTCHAR 2206
ENCODING 8710
SWIDTH 630 0
DWIDTH 14 0
BBX 12 14 1 0
BITMAP
0E00
0F00
1F00
1B80
1980
3980
31C0
30C0
70C0
60E0
E060
E060
FFF0
FFF0
ENDCHAR
STARTCHAR 220F
ENCODING 8719
SWIDTH 675 0
DWIDTH 15 0
BBX 11 16 2 -2
BITMAP
FFE0
FFE0
C060
C060
C060
C060
C060
C060
C060
C060
C060
C060
C060
C060
C060
C060
ENDCHAR
STARTCHAR 2211
ENCODING 8721
SWIDTH 495 0
DWIDTH 11 0
BBX 10 17 1 -3
BITMAP
FFC0
FFC0
E000
7000
3000
3800
1C00
0C00
0E00
0C00
1C00
3800
3000
7000
E000
FFC0
FFC0
ENDCHAR
STARTCHAR 2212
ENCODING 8722
SWIDTH 495 0
DWIDTH 11 0
BBX 10 2 1 6
BITMAP
FFC0
FFC0
ENDCHAR
STARTCHAR 2215
ENCODING 8725
SWIDTH 90 0
DWIDTH 2 0
BBX 10 15 -4 0
BITMAP
00C0
0180
0100
0300
0200
0600
0400
0C00
0800
1800
1000
3000
2000
6000
C000
ENDCHAR
STARTCHAR 2219
ENCODING 8729
SWIDTH 495 0
DWIDTH 11 0
BBX 3 3 4 6
BITMAP
E0
E0
E0
ENDCHAR
STARTCHAR 221A
ENCODING 8730
SWIDTH 585 0
DWIDTH 13 0
BBX 12 19 1 -2
BITMAP
0030
0020
0060
0060
0060
0040
00C0
00C0
20C0
F080
F180
3180
1980
1900
1900
0F00
0F00
0600
0600
ENDCHAR
STARTCHAR 221E
ENCODING 8734
SWIDTH 810 0
DWIDTH 18 0
BBX 16 9 1 3
BITMAP
003C
3C7E
7EC6
C783
C303
C383
C7C6
7CFE
387C
ENDCHAR
STARTCHAR 222B
ENCODING 8747
SWIDTH 360 0
DWIDTH 8 0
BBX 6 21 1 -4
BITMAP
1C
3C
30
30
30
30
30
30
30
30
30
30
38
38
38
38
38
38
38
F0
E0
ENDCHAR
STARTCHAR 2248
ENCODING 8776
SWIDTH 495 0
DWIDTH 11 0
BBX 10 8 1 3
BITMAP
7000
F880
8FC0
0700
7000
F880
8FC0
0700
ENDCHAR
STARTCHAR 2260
ENCODING 8800
SWIDTH 495 0
DWIDTH 11 0
BBX 10 13 1 1
BITMAP
0180
0100
0300
FFC0
FFC0
0C00
0800
1800
FFC0
FFC0
2000
6000
C000
ENDCHAR
STARTCHAR 2264
ENCODING 8804
SWIDTH 495 0
DWIDTH 11 0
BBX 10 12 1 0
BITMAP
00C0
07C0
3F00
F800
E000
FC00
1FC0
03C0
0040
0000
FFC0
FFC0
ENDCHAR
STARTCHAR 2265
ENCODING 8805
SWIDTH 495 0
DWIDTH 11 0
BBX 10 12 1 0
BITMAP
8000
F000
7E00
0FC0
03C0
1F80
FC00
E000
8000
0000
FFC0
FFC0
ENDCHAR
STARTCHAR 231C
ENCODING 8988
SWIDTH 315 0
DWIDTH 7 0
BBX 4 16 2 0
BITMAP
F0
F0
C0
C0
C0
C0
C0
C0
C0
C0
C0
C0
C0
C0
C0
C0
ENDCHAR
STARTCHAR 231D
ENCODING 8989
SWIDTH 315 0
DWIDTH 7 0
BBX 4 16 1 0
BITMAP
F0
F0
30
30
30
30
30
30
30
30
30
30
30
30
30
30
ENDCHAR
STARTCHAR 231E
ENCODING 8990
SWIDTH 315 0
DWIDTH 7 0
BBX 4 16 2 -1
BITMAP
C0
C0
C0
C0
C0
C0
C0
C0
C0
C0
C0
C0
C0
C0
F0
F0
ENDCHAR
STARTCHAR 231F
ENCODING 8991
SWIDTH 315 0
DWIDTH 7 0
BBX 4 16 1 -1
BITMAP
30
30
30
30
30
30
30
30
30
30
30
30
30
30
F0
F0
ENDCHAR
STARTCHAR 25A0
ENCODING 9632
SWIDTH 855 0
DWIDTH 19 0
BBX 18 18 1 -2
BITMAP
FFFFC0
FFFFC0
FFFFC0
FFFFC0
FFFFC0
FFFFC0
FFFFC0
FFFFC0
FFFFC0
FFFFC0
FFFFC0
FFFFC0
FFFFC0
FFFFC0
FFFFC0
FFFFC0
FFFFC0
FFFFC0
ENDCHAR
STARTCHAR 25B2
ENCODING 9650
SWIDTH 855 0
DWIDTH 19 0
BBX 17 18 1 -1
BITMAP
008000
00C000
00C000
01C000
01E000
03E000
03F000
07F000
07F800
0FF800
0FFC00
1FFC00
1FFE00
3FFE00
3FFF00
7FFF00
7FFF80
FFFF80
ENDCHAR
STARTCHAR 25B3
ENCODING 9651
SWIDTH 855 0
DWIDTH 19 0
BBX 17 18 1 -1
BITMAP
008000
008000
00C000
01C000
016000
032000
023000
061000
041800
0C0800
080C00
180C00
180600
300600
300300
600300
7FFF80
FFFF80
ENDCHAR
STARTCHAR 25B6
ENCODING 9654
SWIDTH 855 0
DWIDTH 19 0
BBX 18 17 1 -1
BITMAP
800000
E00000
F80000
FE0000
FFC000
FFF000
FFFC00
FFFF00
FFFFC0
FFFF00
FFFC00
FFF000
FFC000
FE0000
F80000
E00000
800000
ENDCHAR
STARTCHAR 25B7
ENCODING 9655
SWIDTH 855 0
DWIDTH 19 0
BBX 18 17 1 -1
BITMAP
800000
E00000
F80000
DE0000
C7C000
C0F000
C03C00
C00F00
C003C0
C00F00
C03C00
C0F000
C7C000
DE0000
F80000
E00000
800000
ENDCHAR
STARTCHAR 25BC
ENCODING 9660
SWIDTH 855 0
DWIDTH 19 0
BBX 17 18 1 -2
BITMAP
FFFF80
7FFF80
7FFF00
3FFF00
3FFE00
1FFE00
1FFC00
0FFC00
0FF800
07F800
07F000
03F000
03E000
01E000
01C000
00C000
00C000
008000
ENDCHAR
STARTCHAR 25BD
ENCODING 9661
SWIDTH 855 0
DWIDTH 19 0
BBX 17 18 1 -2
BITMAP
FFFF80
7FFF80
600300
300300
300600
180600
180C00
080C00
0C0800
041800
061000
023000
032000
016000
01C000
00C000
008000
008000
ENDCHAR
STARTCHAR 25C0
ENCODING 9664
SWIDTH 855 0
DWIDTH 19 0
BBX 18 17 1 -1
BITMAP
0000C0
0003C0
000FC0
003FC0
00FFC0
03FFC0
0FFFC0
3FFFC0
FFFFC0
3FFFC0
0FFFC0
03FFC0
00FFC0
003FC0
000FC0
0003C0
0000C0
ENDCHAR
STARTCHAR 25C1
ENCODING 9665
SWIDTH 855 0
DWIDTH 19 0
BBX 18 17 1 -1
BITMAP
0000C0
0003C0
000FC0
003CC0
00F0C0
03C0C0
0F00C0
3800C0
E000C0
3800C0
0F00C0
03C0C0
00F0C0
003CC0
000FC0
0003C0
0000C0
ENDCHAR
STARTCHAR 25C6
ENCODING 9670
SWIDTH 855 0
DWIDTH 19 0
BBX 18 18 1 -2
BITMAP
008000
01C000
03E000
07F000
0FF800
1FFC00
3FFE00
7FFF00
FFFF80
FFFFC0
7FFF00
3FFE00
1FFC00
0FF800
07F000
03E000
01C000
008000
ENDCHAR
STARTCHAR 25C9
ENCODING 9673
SWIDTH 855 0
DWIDTH 19 0
BBX 18 19 1 -2
BITMAP
03F000
0FFC00
3C1E00
300700
61E380
C7F180
CFF980
CFFCC0
CFFCC0
9FFCC0
CFFCC0
CFFCC0
CFF980
C7F180
63E380
300700
3C0E00
0FFC00
03F000
ENDCHAR
STARTCHAR 25CA
ENCODING 9674
SWIDTH 540 0
DWIDTH 12 0
BBX 10 14 1 0
BITMAP
0C00
1E00
1E00
3300
7300
6180
E180
E1C0
6180
7300
3300
1E00
1E00
0C00
ENDCHAR
STARTCHAR 25CC
ENCODING 9676
SWIDTH 585 0
DWIDTH 13 0
BBX 11 11 1 0
BITMAP
3500
3580
4040
4040
0000
C060
C060
4040
4040
3500
3580
ENDCHAR
STARTCHAR 2610
ENCODING 9744
SWIDTH 810 0
DWIDTH 18 0
BBX 14 15 2 0
BITMAP
7FFC
FFFC
800C
800C
800C
800C
800C
800C
800C
800C
800C
800C
800C
FFFC
FFF8
ENDCHAR
STARTCHAR 2611
ENCODING 9745
SWIDTH 810 0
DWIDTH 18 0
BBX 16 18 2 0
BITMAP
0002
0007
000E
7FFC
FFFC
803C
803C
806C
90CC
B8CC
998C
8D8C
8D8C
870C
860C
800C
FFFC
FFF8
ENDCHAR
STARTCHAR 266A
ENCODING 9834
SWIDTH 540 0
DWIDTH 12 0
BBX 10 16 1 -1
BITMAP
0C00
0F00
0F80
0DC0
0CC0
0CC0
0C40
0C40
0C80
0C00
0C00
7C00
FC00
FC00
F800
F000
ENDCHAR
STARTCHAR 2713
ENCODING 10003
SWIDTH 630 0
DWIDTH 14 0
BBX 14 16 0 -1
BITMAP
0008
001C
0038
0070
0060
00E0
00C0
0180
4180
C300
6300
7600
3600
3600
1C00
1C00
ENDCHAR
STARTCHAR 2752
ENCODING 10066
SWIDTH 855 0
DWIDTH 19 0
BBX 18 18 1 -2
BITMAP
7FFFC0
FFFFC0
8000C0
8000C0
8000C0
8000C0
8000C0
8000C0
8000C0
8000C0
8000C0
8000C0
8000C0
8000C0
8000C0
8000C0
FFFF80
FFFF00
ENDCHAR
STARTCHAR 27E6
ENCODING 10214
SWIDTH 405 0
DWIDTH 9 0
BBX 6 20 2 -4
BITMAP
FC
FC
D0
D0
D0
D0
D0
D0
D0
D0
D0
D0
D0
D0
D0
D0
D0
D0
FC
FC
ENDCHAR
STARTCHAR 27E7
ENCODING 10215
SWIDTH 405 0
DWIDTH 9 0
BBX 6 20 1 -4
BITMAP
FC
FC
2C
2C
2C
2C
2C
2C
2C
2C
2C
2C
2C
2C
2C
2C
2C
2C
FC
FC
ENDCHAR
STARTCHAR 2E22
ENCODING 11810
SWIDTH 315 0
DWIDTH 7 0
BBX 4 10 2 6
BITMAP
F0
F0
C0
C0
C0
C0
C0
C0
C0
C0
ENDCHAR
STARTCHAR 2E23
ENCODING 11811
SWIDTH 315 0
DWIDTH 7 0
BBX 4 10 1 6
BITMAP
F0
F0
30
30
30
30
30
30
30
30
ENDCHAR
STARTCHAR 2E24
ENCODING 11812
SWIDTH 315 0
DWIDTH 7 0
BBX 4 10 2 -4
BITMAP
C0
C0
C0
C0
C0
C0
C0
C0
F0
F0
ENDCHAR
STARTCHAR 2E25
ENCODING 11813
SWIDTH 315 0
DWIDTH 7 0
BBX 4 10 1 -4
BITMAP
30
30
30
30
30
30
30
30
F0
F0
ENDCHAR
STARTCHAR 2E3A
ENCODING 11834
SWIDTH 1485 0
DWIDTH 33 0
BBX 31 2 1 5
BITMAP
FFFFFFFE
FFFFFFFE
ENDCHAR
STARTCHAR 2E3B
ENCODING 11835
SWIDTH 2160 0
DWIDTH 48 0
BBX 46 2 1 5
BITMAP
FFFFFFFFFFFC
FFFFFFFFFFFC
ENDCHAR
STARTCHAR FB00
ENCODING 64256
SWIDTH 630 0
DWIDTH 14 0
BBX 13 16 1 0
BITMAP
1E78
3EF8
70E0
70C0
70C0
FFF0
FFF0
70C0
70C0
70C0
70C0
70C0
70C0
70C0
70C0
70C0
ENDCHAR
STARTCHAR FB01
ENCODING 64257
SWIDTH 585 0
DWIDTH 13 0
BBX 11 16 1 0
BITMAP
1EC0
3CE0
70C0
7000
7000
FCE0
FCE0
70E0
70E0
70E0
70E0
70E0
70E0
70E0
70E0
70E0
ENDCHAR
STARTCHAR FB02
ENCODING 64258
SWIDTH 585 0
DWIDTH 13 0
BBX 11 16 1 0
BITMAP
1EC0
3CC0
70C0
70C0
70C0
FCC0
FCC0
70C0
70C0
70C0
70C0
70C0
70C0
70C0
70E0
70E0
ENDCHAR
STARTCHAR FB03
ENCODING 64259
SWIDTH 855 0
DWIDTH 19 0
BBX 17 16 1 0
BITMAP
1E7B80
3EFB80
70E380
70C000
70C000
FFF380
FFF380
70C380
70C380
70C380
70C380
70C380
70C380
70C380
70C380
70C380
ENDCHAR
STARTCHAR FB04
ENCODING 64260
SWIDTH 900 0
DWIDTH 20 0
BBX 18 16 1 0
BITMAP
1E7B80
3EFB80
70E380
70C380
70C380
FFF380
FFF380
70C380
70C380
70C380
70C380
70C380
70C380
70C380
70C3C0
70C1C0
ENDCHAR
STARTCHAR FEFF
ENCODING 65279
SWIDTH 0 0
DWIDTH 0 0
BBX 0 0 0 0
BITMAP
ENDCHAR
ENDFONT
